<?xml version="1.0" encoding="UTF-8"?>
<!DOCTYPE svg PUBLIC "-//W3C//DTD SVG 1.1//EN" "http://www.w3.org/Graphics/SVG/1.1/DTD/svg11.dtd">
<!-- Creator: CorelDRAW -->
<svg xmlns="http://www.w3.org/2000/svg" xml:space="preserve" width="246.38mm" height="162.56mm" version="1.1" style="shape-rendering:geometricPrecision; text-rendering:geometricPrecision; image-rendering:optimizeQuality; fill-rule:evenodd; clip-rule:evenodd"
viewBox="0 0 24638 16256"
 xmlns:xlink="http://www.w3.org/1999/xlink"
 xmlns:xodm="http://www.corel.com/coreldraw/odm/2003">
 <defs>
  <style type="text/css">
   <![CDATA[
    .fil5 {fill:#FEFEFE;fill-rule:nonzero}
    .fil16 {fill:#FFE093;fill-rule:nonzero}
    .fil17 {fill:#FED987;fill-rule:nonzero}
    .fil11 {fill:#FCC32A;fill-rule:nonzero}
    .fil18 {fill:#F8B367;fill-rule:nonzero}
    .fil13 {fill:#F4A5A2;fill-rule:nonzero}
    .fil15 {fill:#F196B9;fill-rule:nonzero}
    .fil2 {fill:#F4F4F4;fill-rule:nonzero}
    .fil0 {fill:#EBECEC;fill-rule:nonzero}
    .fil6 {fill:#E3E3E3;fill-rule:nonzero}
    .fil1 {fill:#DCDDDC;fill-rule:nonzero}
    .fil7 {fill:#C8C8C9;fill-rule:nonzero}
    .fil20 {fill:#A68A3A;fill-rule:nonzero}
    .fil19 {fill:#9D802D;fill-rule:nonzero}
    .fil9 {fill:#A7A8A8;fill-rule:nonzero}
    .fil4 {fill:#32A6D2;fill-rule:nonzero}
    .fil12 {fill:#3F5E69;fill-rule:nonzero}
    .fil14 {fill:#354A53;fill-rule:nonzero}
    .fil3 {fill:#234D4D;fill-rule:nonzero}
    .fil8 {fill:#0C6692;fill-rule:nonzero}
    .fil10 {fill:#29383E;fill-rule:nonzero}
   ]]>
  </style>
 </defs>
 <g id="Layer_x0020_1">
  <metadata id="CorelCorpID_0Corel-Layer"/>
  <path class="fil0" d="M18689.44 798.48c-84.24,168.87 -280.03,232.46 -437.09,141.86 -157.06,-90.56 -215.87,-301.01 -131.66,-469.88 84.25,-168.91 279.65,-232.3 436.67,-141.74 157.02,90.56 216.29,300.86 132.08,469.76zm98.67 -668.68c-30.16,20.15 -67.91,19.02 -98.28,-0.72 -8.26,-5.34 -16.65,-10.5 -25.22,-15.44 -8.65,-5 -17.33,-9.71 -26.07,-14.14 -32.04,-16.28 -53.7,-49.33 -54.79,-87.34l-3.78 -130.02 -393.7 13.16 3.74 129.95c1.1,38.12 -18.34,73.03 -49.46,91.31 -17.14,10.06 -33.83,21.14 -49.95,33.2 -29,21.66 -66.6,24.66 -97.72,6.71l-106.33 -61.31 -186.23 373.48 106.33 61.31c31.11,17.94 49.6,53.3 48.86,91.29 -0.39,21.09 0.25,42.14 1.94,63.08 3.07,37.99 -13.26,74.7 -43.39,94.81l-102.73 68.56 207.64 360.01 103.26 -68.79c30.06,-20.03 67.59,-18.85 97.79,0.77 8.29,5.34 16.69,10.5 25.23,15.43 8.53,4.93 17.21,9.63 25.93,14.04 32.1,16.32 53.79,49.51 54.85,87.64l3.67 130.13 393.74 -13.16 -3.81 -129.64c-1.13,-38.09 18.23,-73.07 49.35,-91.36 17.18,-10.13 33.9,-21.28 50.06,-33.39 29.03,-21.73 66.71,-24.73 97.82,-6.78l106.3 61.31 186.23 -373.48 -106.26 -61.27c-31.18,-17.98 -49.67,-53.39 -48.89,-91.4 0.45,-21.21 -0.18,-42.34 -1.87,-63.36 -3.04,-37.97 13.33,-74.67 43.49,-94.77l102.52 -68.29 -207.64 -360 -102.63 68.47z"/>
  <path class="fil0" d="M17818.47 2085.19c0,134.27 -101.32,243.22 -226.2,243.22 -124.85,0 -225.92,-108.95 -225.92,-243.22 0,-134.22 101.07,-242.96 225.92,-242.96 124.88,0 226.2,108.74 226.2,242.96zm-144.96 -447.95c-12.42,23.19 -36.05,35.93 -60.89,34.56 -6.77,-0.37 -13.54,-0.57 -20.35,-0.57 -6.88,0 -13.69,0.2 -20.46,0.57 -24.73,1.34 -48.33,-11.34 -60.68,-34.44l-42.37 -78.92 -239.01 148.35 42.3 78.87c12.42,23.19 11.18,51.63 -2.4,74.02 -7.48,12.3 -14.36,25.04 -20.64,38.25 -11.21,23.71 -33.51,38.96 -58.24,38.96l-84.53 0 0 296.88 84.53 0c24.73,0 47.03,15.25 58.24,38.96 6.28,13.16 13.16,25.95 20.64,38.24 13.58,22.38 14.82,50.87 2.4,74.01l-42.3 78.89 239.01 148.33 42.58 -79.25c12.38,-23.03 35.91,-35.7 60.64,-34.34 6.74,0.35 13.51,0.53 20.29,0.53 6.81,0 13.58,-0.18 20.35,-0.53 24.84,-1.36 48.47,11.38 60.86,34.57l42.29 79.02 239.05 -148.33 -42.27 -78.65c-12.45,-23.14 -11.25,-51.6 2.33,-73.99 7.52,-12.37 14.4,-25.19 20.64,-38.47 11.22,-23.74 33.55,-38.99 58.31,-38.99l84.49 0 0 -296.88 -84.49 0c-24.76,0 -47.09,-15.29 -58.31,-39.04 -6.24,-13.21 -13.12,-26.07 -20.64,-38.44 -13.58,-22.38 -14.78,-50.83 -2.33,-73.97l42.27 -78.65 -239.05 -148.35 -42.26 78.8z"/>
  <path class="fil0" d="M5902.71 11270.38c-124.84,0 -226.16,-108.95 -226.16,-243.19 0,-134.3 101.32,-243.04 226.16,-243.04 124.83,0 225.94,108.74 225.94,243.04 0,134.24 -101.11,243.19 -225.94,243.19zm416.52 -155.89c-21.52,-13.31 -33.38,-38.78 -32.11,-65.48 0.35,-7.25 0.5,-14.53 0.5,-21.82 0,-7.43 -0.15,-14.76 -0.5,-22.04 -1.25,-26.63 10.55,-51.97 32.02,-65.3l73.38 -45.48 -137.92 -257.11 -73.37 45.49c-21.52,13.39 -47.99,12.06 -68.8,-2.58 -11.44,-8.05 -23.32,-15.45 -35.58,-22.16 -22.05,-12.06 -36.21,-36.05 -36.21,-62.67l0 -90.87 -276.07 0 0 90.87c0,26.62 -14.18,50.61 -36.23,62.67 -12.24,6.71 -24.13,14.11 -35.58,22.16 -20.79,14.64 -47.26,15.97 -68.8,2.58l-73.36 -45.49 -137.91 257.11 73.67 45.75c21.43,13.32 33.21,38.62 31.94,65.18 -0.34,7.29 -0.52,14.53 -0.52,21.89 0,7.29 0.18,14.57 0.52,21.82 1.27,26.7 -10.58,52.13 -32.12,65.44l-73.49 45.54 137.91 257.07 73.18 -45.45c21.49,-13.4 47.97,-12.11 68.78,2.46 11.49,8.08 23.42,15.48 35.72,22.23 22.08,12.07 36.29,36.05 36.29,62.68l0 90.91 276.07 0 0 -90.91c0,-26.63 14.2,-50.61 36.28,-62.68 12.3,-6.75 24.24,-14.15 35.75,-22.23 20.8,-14.57 47.26,-15.86 68.77,-2.46l73.16 45.45 137.92 -257.07 -73.29 -45.5z"/>
  <polygon class="fil0" points="12977.58,13348.99 19563.87,13348.99 19700.85,10442.59 12840.6,10442.59 "/>
  <path class="fil1" d="M16529.63 11737.26l2690.92 0 55.98 -937.52 -2794.84 0 47.94 937.52zm2722.1 35.78l-2753.57 0 -51.61 -1009.03 2865.44 0 -60.26 1009.03z"/>
  <path class="fil1" d="M16637.65 12898.05l2531.99 0 48.79 -839.25 -2619.62 0 38.84 839.25zm2563.25 35.74l-2594.89 0 -42.13 -910.73 2689.93 0 -52.91 910.73z"/>
  <path class="fil1" d="M17706.64 11342.16l404.25 0 20.6 -171.82 -445.49 0 20.64 171.82zm433.46 35.78l-462.67 0 -29.25 -243.34 521.09 0 -29.17 243.34z"/>
  <path class="fil1" d="M17706.64 12564.34l404.25 0 20.6 -171.87 -445.49 0 20.64 171.87zm433.46 35.77l-462.67 0 -29.25 -243.37 521.09 0 -29.17 243.37z"/>
  <path class="fil1" d="M13290.81 11737.26l2690.85 0 55.99 -937.52 -2794.89 0 48.05 937.52zm2722.04 35.78l-2753.54 0 -51.68 -1009.03 2865.47 0 -60.25 1009.03z"/>
  <path class="fil1" d="M13398.76 12898.05l2532.06 0 48.76 -839.25 -2619.62 0 38.8 839.25zm2563.29 35.74l-2594.9 0 -42.12 -910.73 2689.93 0 -52.91 910.73z"/>
  <path class="fil1" d="M14467.75 11342.16l404.25 0 20.6 -171.82 -445.45 0 20.6 171.82zm433.46 35.78l-462.67 0 -29.18 -243.34 521.02 0 -29.17 243.34z"/>
  <path class="fil1" d="M14467.75 12564.34l404.25 0 20.6 -171.87 -445.45 0 20.6 171.87zm433.46 35.77l-462.67 0 -29.18 -243.37 521.02 0 -29.17 243.37z"/>
  <polygon class="fil0" points="13568.24,13348.99 13526.89,13665.59 13443.71,14301.8 13281.04,14301.8 13281.04,13348.99 "/>
  <polygon class="fil1" points="13568.24,13348.99 13526.89,13665.59 13281.04,13665.59 13281.04,13348.99 "/>
  <polygon class="fil0" points="18973.22,13348.99 19014.6,13665.59 19097.75,14301.8 19260.45,14301.8 19260.45,13348.99 "/>
  <polygon class="fil1" points="18973.22,13348.99 19014.6,13665.59 19260.45,13665.59 19260.45,13348.99 "/>
  <path class="fil2" d="M7698.35 9618.59c-208.28,0 -377.11,-181.58 -377.11,-405.57 0,-174.26 102.21,-322.86 245.7,-380.23l127.27 380.84 -0.32 6.86 3.89 -2.16 254.75 294.26c-67.05,65.82 -156.26,106 -254.18,106zm259.97 -111.81l-247.86 -286.25 354.62 87.34c-17.22,77.24 -55,145.91 -106.76,198.91zm108.57 -207.49l-304.66 -75.05 311 33.02c-1.45,14.22 -3.57,28.26 -6.34,42.03zm7.12 -50.79l-361.66 -38.4 321.88 -181.62c26.35,55.35 41.21,118.11 41.21,184.54 0,11.94 -0.48,23.78 -1.43,35.48zm-371.21 -42.96l18.14 -397.33c133.96,8.5 249.13,92.26 309.49,212.5l-327.63 184.83zm-7.54 -14.83l-120.61 -360.92c38.74,-14.45 80.37,-22.3 123.7,-22.3 4.8,0 9.62,0.07 14.38,0.26l-17.47 382.96z"/>
  <path class="fil0" d="M7448.65 9213.02c0,-148.31 111.78,-268.53 249.7,-268.53 137.9,0 249.69,120.22 249.69,268.53 0,148.3 -111.79,268.53 -249.69,268.53 -137.92,0 -249.7,-120.23 -249.7,-268.53z"/>
  <path class="fil2" d="M11508.48 3465.04c-184.5,0 -338.03,-142.47 -370.7,-330.64l368.87 -70.07 222.5 324.07c-62.02,48.23 -138.26,76.64 -220.67,76.64zm227.3 -81.91l-221.58 -322.67 315.42 -213.6c35.49,61.84 55.95,134.68 55.95,212.65 0,132.18 -58.81,249.6 -149.79,323.62zm-599.41 -257.41c-3.28,-21.56 -5.01,-43.68 -5.01,-66.21 0,-59.68 12,-116.36 33.55,-167.39l330.03 165.49 -358.57 68.11zm371.76 -71.18l-339.76 -170.39c60.82,-136.19 190.25,-230.18 340.11,-230.18 132.89,0 249.77,73.95 316.9,185.68l-317.25 214.89z"/>
  <path class="fil0" d="M11258.79 3059.51c0,-148.3 111.79,-268.54 249.69,-268.54 137.9,0 249.7,120.24 249.7,268.54 0,148.3 -111.8,268.53 -249.7,268.53 -137.9,0 -249.69,-120.23 -249.69,-268.53z"/>
  <path class="fil2" d="M16280.96 5283.31c-208.25,0 -377.09,-181.61 -377.09,-405.56 0,-19.43 1.27,-38.51 3.74,-57.21l369.82 61.04 63.96 396.53c-19.69,3.42 -39.87,5.2 -60.43,5.2zm68.47 -6.67l-63.22 -392.22 349.08 132.52c-45.26,133.09 -153.46,233.59 -285.86,259.7zm288.57 -267.97l-354.22 -134.46 -159.95 -365.23c47.84,-23.61 101.07,-36.77 157.13,-36.77 208.28,0 377.12,181.55 377.12,405.54 0,45.82 -7.06,89.83 -20.08,130.92zm-363.99 -136.55l-365.2 -60.27c20.07,-132.04 99.41,-242.62 207.72,-299.16l157.48 359.43z"/>
  <path class="fil0" d="M16031.26 4877.75c0,-148.31 111.8,-268.54 249.73,-268.54 137.9,0 249.7,120.23 249.7,268.54 0,148.3 -111.8,268.53 -249.7,268.53 -137.93,0 -249.73,-120.23 -249.73,-268.53z"/>
  <path class="fil2" d="M16682.7 10442.59l-530.12 0 208.53 -203.39 233.61 -318.32c85.55,74.33 140.26,188.11 140.26,315.62 0,75.24 -19.05,145.69 -52.28,206.09zm-542.22 0l-107.46 0c-33.19,-60.4 -52.24,-130.85 -52.24,-206.09 0,-224.02 168.84,-405.57 377.08,-405.57 86.79,0 166.72,31.53 230.44,84.49l-233.19 317.78 -214.63 209.39z"/>
  <path class="fil0" d="M16357.86 10642.03c-109.25,0 -207.71,-50 -276.58,-129.86l71.3 -69.58 530.12 0c-65.62,119.4 -186.55,199.44 -324.84,199.44zm-282.04 -136.34c-16.06,-19.47 -30.41,-40.6 -42.8,-63.1l107.46 0 -64.66 63.1z"/>
  <path class="fil0" d="M16108.17 10236.5c0,-148.3 111.79,-268.53 249.69,-268.53 137.9,0 249.7,120.23 249.7,268.53 0,148.31 -111.8,268.54 -249.7,268.54 -137.9,0 -249.69,-120.23 -249.69,-268.54z"/>
  <path class="fil2" d="M7948.4 4058.3c-3.55,0 -7.09,-0.08 -10.62,-0.2l12.53 -274.14 33.91 272.06c-11.74,1.51 -23.7,2.28 -35.82,2.28zm-18.82 -0.61c-37.7,-2.55 -73.52,-12.53 -106.18,-28.65l119.89 -271.6 -13.71 300.25zm62.76 -2.8l-39.37 -315.67 291.65 -55.38c2.5,16.88 3.84,34.14 3.84,51.78 0,162.15 -111.24,296.38 -256.12,319.27zm-176.34 -29.64c-99.33,-52.58 -167.65,-162.53 -167.65,-289.63 0,-178.23 134.32,-322.71 300.05,-322.71 50.46,0 98,13.39 139.72,37.07l-142.36 281.66 -0.14 0 -0.21 0.45 -0.99 0.38 -0.08 1.98 -0.18 0.34 0.01 0.11 -128.17 290.35zm141.15 -297.78l138.15 -273.28c60.67,36.69 108.28,95.45 133.44,166.1l-271.59 107.18zm36 -4.82l238.42 -94.09c4.9,15.06 8.81,30.62 11.64,46.59l-250.06 47.5z"/>
  <path class="fil0" d="M7749.71 3735.62c0,-118.03 88.96,-213.67 198.69,-213.67 109.72,0 198.68,95.64 198.68,213.67 0,118 -88.96,213.64 -198.68,213.64 -109.73,0 -198.69,-95.64 -198.69,-213.64z"/>
  <path class="fil2" d="M17377.25 9061.03c-45.02,0 -86.54,-16.08 -119.88,-43.21l122.42 -166.78 3.07 -1.48 -1.38 -2.85 29.78 -209.87c93.52,17.33 164.67,105.01 164.67,210.52 0,118.02 -88.97,213.67 -198.68,213.67zm-126.26 -48.67c-22.93,-20.3 -41.52,-46.02 -54.15,-75.35l167.04 -78.49 -112.89 153.84zm-57.47 -83.43c-9.63,-25.16 -14.96,-52.66 -14.96,-81.57 0,-81.27 42.23,-151.94 104.36,-188.07l88.68 185.95 -178.08 83.69zm181.58 -95.64l-84.92 -178.05c26.32,-13.78 55.85,-21.51 87.07,-21.51 8.78,0 17.43,0.6 25.89,1.77l-28.04 197.79z"/>
  <path class="fil0" d="M17245.66 8847.36c0,-78.11 58.92,-141.44 131.59,-141.44 72.64,0 131.55,63.33 131.55,141.44 0,78.16 -58.91,141.51 -131.55,141.51 -72.67,0 -131.59,-63.35 -131.59,-141.51z"/>
  <path class="fil2" d="M8192.6 5907.72c-77.95,0 -145.43,-48.3 -177.97,-118.6l179.15 -90.79 196.75 -23.14c0.49,6.22 0.77,12.49 0.77,18.85 0,118 -88.97,213.68 -198.7,213.68zm-181.47 -126.57c-11.05,-26.59 -17.21,-56.07 -17.21,-87.11 0,-106.88 72.95,-195.42 168.22,-211.16l26 208.51 -177.01 89.76zm185 -92l-25.86 -207.45c7.33,-0.88 14.79,-1.33 22.33,-1.33 101.02,0 184.45,81.08 197.05,186.05l-193.52 22.73z"/>
  <path class="fil0" d="M8061.06 5694.04c0,-78.15 58.9,-141.5 131.54,-141.5 72.66,0 131.57,63.35 131.57,141.5 0,78.12 -58.91,141.48 -131.57,141.48 -72.64,0 -131.54,-63.36 -131.54,-141.48z"/>
  <path class="fil0" d="M11013.29 9577.66c0,-78.17 58.91,-141.52 131.55,-141.52 72.67,0 131.55,63.35 131.55,141.52 0,78.1 -58.88,141.47 -131.55,141.47 -72.64,0 -131.55,-63.37 -131.55,-141.47z"/>
  <path class="fil2" d="M10616.03 5622.79c-33.69,0 -65.44,-8.99 -93.21,-24.88l96.27 -185.68 165.49 -116.24c19.09,32.81 30.09,71.59 30.09,113.14 0,118.01 -88.93,213.66 -198.64,213.66zm-100.4 -29.21c-51.83,-32.7 -88.66,-89.91 -96.67,-156.84l189.59 -22.31 -92.92 179.15zm-97.55 -165.6c-0.53,-6.23 -0.77,-12.49 -0.77,-18.85 0,-82.34 43.35,-153.81 106.82,-189.48l85.58 185.79 -191.63 22.54zm199.53 -25.23l-86.11 -187.04c25.65,-12.98 54.29,-20.22 84.53,-20.22 68.12,0 128.27,36.91 164.07,93.13l-162.49 114.13z"/>
  <path class="fil0" d="M10484.44 5409.13c0,-78.12 58.91,-141.49 131.59,-141.49 72.63,0 131.55,63.37 131.55,141.49 0,78.15 -58.92,141.5 -131.55,141.5 -72.68,0 -131.59,-63.35 -131.59,-141.5z"/>
  <path class="fil2" d="M14089.5 1534.16c-71.9,0 -134.87,-41.08 -169.72,-102.59l166.12 -112.49 138.33 158.43c-35.39,35.18 -82.73,56.65 -134.73,56.65zm140.65 -62.79l-123.26 -141.17 157.66 91.43c-9.17,18.37 -20.81,35.14 -34.4,49.74zm-314.5 -47.42c-5.43,-10.51 -10.02,-21.51 -13.76,-33.01l149.65 -59.03 -135.89 92.04zm352.64 -10.17l-171.77 -99.62 19.9 -7.86 -28.19 2.54 -0.99 -1.14 -0.98 0.69 -172.44 -87.76c33.34,-67.68 99.52,-113.81 175.68,-113.81 109.75,0 198.69,95.68 198.69,213.67 0,33.47 -7.13,65.14 -19.9,93.29zm-368.94 -31.18c-4.26,-15.15 -7.02,-31 -8.04,-47.36l165.45 -14.75 -157.41 62.11zm-8.43 -56.15c-0.07,-2.01 -0.07,-3.99 -0.07,-5.96 0,-32.93 6.92,-64.12 19.26,-91.96l160.91 81.83 -180.1 16.09z"/>
  <path class="fil0" d="M13957.95 1320.49c0,-78.15 58.91,-141.47 131.55,-141.47 72.67,0 131.59,63.32 131.59,141.47 0,78.12 -58.92,141.47 -131.59,141.47 -72.64,0 -131.55,-63.35 -131.55,-141.47z"/>
  <path class="fil2" d="M16594.93 2982.15c-109.72,0 -198.69,-95.65 -198.69,-213.63 0,-35.18 7.91,-68.37 21.88,-97.59l173.7 100.74 88.41 189.85c-25.86,13.24 -54.79,20.63 -85.3,20.63zm92.6 -24.58l-88.97 -191.06 -0.56 -1.26 -175.97 -102.05c34.12,-64.73 98.78,-108.39 172.9,-108.39 109.71,0 198.68,95.68 198.68,213.71 0,82.02 -43,153.23 -106.08,189.05z"/>
  <path class="fil0" d="M16463.34 2768.52c0,-78.17 58.92,-141.52 131.59,-141.52 72.67,0 131.51,63.35 131.51,141.52 0,78.11 -58.84,141.43 -131.51,141.43 -72.67,0 -131.59,-63.32 -131.59,-141.43z"/>
  <path class="fil2" d="M12537.81 11335.68c-75.46,0 -141.11,-45.22 -174.73,-111.89l173.42 -96.09 112.89 171.14c-31.82,23.26 -70.2,36.84 -111.58,36.84zm118.21 -41.92l-112 -169.86 177.48 -83.43c9.67,25.16 14.99,52.67 14.99,81.57 0,70.34 -31.64,132.79 -80.47,171.72zm-296.72 -77.78c-12.91,-28.35 -20.18,-60.24 -20.18,-93.94 0,-4.59 0.14,-9.11 0.39,-13.58l183.76 16.66 -163.97 90.86zm168 -99.37l-187.08 -16.96c4.79,-49.65 25.4,-94.24 56.3,-127.85l130.78 144.81zm9.45 -2.08l-134.37 -148.83c35.49,-35.59 83.08,-57.34 135.43,-57.34 30.97,0 60.29,7.64 86.43,21.21l-87.49 184.96zm9.91 -1.48l84.88 -179.46c37.96,21.86 68.55,56.62 86.68,98.8l-171.56 80.66z"/>
  <path class="fil0" d="M12406.26 11122.04c0,-78.15 58.91,-141.51 131.55,-141.51 72.67,0 131.58,63.36 131.58,141.51 0,78.12 -58.91,141.48 -131.58,141.48 -72.64,0 -131.55,-63.36 -131.55,-141.48z"/>
  <path class="fil0" d="M10616.03 12114.27c0,-78.15 58.87,-141.52 131.55,-141.52 72.63,0 131.55,63.37 131.55,141.52 0,78.12 -58.92,141.47 -131.55,141.47 -72.68,0 -131.55,-63.35 -131.55,-141.47z"/>
  <path class="fil0" d="M8940.93 8459.46c0,-55.23 41.63,-100.03 92.99,-100.03 51.4,0 93.07,44.8 93.07,100.03 0,55.28 -41.67,100.05 -93.07,100.05 -51.36,0 -92.99,-44.77 -92.99,-100.05z"/>
  <path class="fil0" d="M15263.9 2768.52c0,-55.28 41.66,-100.09 93.06,-100.09 51.37,0 93.03,44.81 93.03,100.09 0,55.2 -41.66,100 -93.03,100 -51.4,0 -93.06,-44.8 -93.06,-100z"/>
  <path class="fil0" d="M15356.96 11122.04c0,-55.24 41.66,-100.04 93.03,-100.04 51.36,0 93.03,44.8 93.03,100.04 0,55.24 -41.67,100.01 -93.03,100.01 -51.37,0 -93.03,-44.77 -93.03,-100.01z"/>
  <path class="fil0" d="M16594.93 7401.88c0,-55.28 41.66,-100.05 93.03,-100.05 51.36,0 92.99,44.77 92.99,100.05 0,55.24 -41.63,100.04 -92.99,100.04 -51.37,0 -93.03,-44.8 -93.03,-100.04z"/>
  <path class="fil0" d="M6671.31 6418.04c0,-55.25 41.64,-100.05 93.03,-100.05 51.37,0 93.01,44.8 93.01,100.05 0,55.23 -41.64,100.05 -93.01,100.05 -51.39,0 -93.03,-44.82 -93.03,-100.05z"/>
  <path class="fil0" d="M14456.32 5898.24c0,-55.25 41.66,-100.05 93.03,-100.05 51.4,0 93.02,44.8 93.02,100.05 0,55.23 -41.62,100.03 -93.02,100.03 -51.37,0 -93.03,-44.8 -93.03,-100.03z"/>
  <path class="fil0" d="M17762.45 5475.59c0,-55.28 41.62,-100.05 92.99,-100.05 51.4,0 93.06,44.77 93.06,100.05 0,55.24 -41.66,100.05 -93.06,100.05 -51.37,0 -92.99,-44.81 -92.99,-100.05z"/>
  <path class="fil0" d="M8847.87 1772.15c0,-55.27 41.66,-100.04 93.06,-100.04 51.37,0 92.99,44.77 92.99,100.04 0,55.25 -41.62,100.05 -92.99,100.05 -51.4,0 -93.06,-44.8 -93.06,-100.05z"/>
  <path class="fil0" d="M12213.44 4221.77c0,-55.23 41.66,-100.05 93.02,-100.05 51.4,0 93.02,44.82 93.02,100.05 0,55.28 -41.62,100.05 -93.02,100.05 -51.36,0 -93.02,-44.77 -93.02,-100.05z"/>
  <path class="fil0" d="M12400.54 503.06c0,-55.28 41.67,-100.05 93.06,-100.05 51.37,0 93.03,44.77 93.03,100.05 0,55.23 -41.66,100.03 -93.03,100.03 -51.39,0 -93.06,-44.8 -93.06,-100.03z"/>
  <path class="fil0" d="M13300.51 9313.06c0,-55.24 41.67,-100.04 93.07,-100.04 51.36,0 93.02,44.8 93.02,100.04 0,55.24 -41.66,100.05 -93.02,100.05 -51.4,0 -93.07,-44.81 -93.07,-100.05z"/>
  <path class="fil0" d="M13270.92 12374.64c0,-55.28 41.62,-100.08 93.02,-100.08 51.37,0 93.03,44.8 93.03,100.08 0,55.24 -41.66,100.05 -93.03,100.05 -51.4,0 -93.02,-44.81 -93.02,-100.05z"/>
  <path class="fil0" d="M8986.72 10808.33c0,-55.28 41.66,-100.05 93.03,-100.05 51.4,0 93.03,44.77 93.03,100.05 0,55.23 -41.63,100.03 -93.03,100.03 -51.37,0 -93.03,-44.8 -93.03,-100.03z"/>
  <path class="fil0" d="M17851.1 5477.1l-2497.07 -2705.52 -1268.13 -1452.5 -2576.75 1744.79 -3557.98 675.7 -1182.42 2678.7 933.19 2792.43 1378.66 1592.12 2065.02 -1229.26 2.15 2.46 1392.97 1542.92 824.4 1249.94 2082.84 -1250.71 907.13 -884.97 1018.22 -1387.59 477.77 -3368.51zm-3763.86 -4169.4l2.33 2.66 1270.39 1455.08 2499.85 2708.6 -0.28 2.24 -478.4 3372.94 -0.67 0.91 -1019.35 1389.07 -908.37 886.07 -2090.03 1255.18 -2.12 -3.26 -826.13 -1252.61 -1390.4 -1540.02 -2065.12 1229.3 -2.19 -2.54 -1382.24 -1596.79 -934.6 -2796.76 0.71 -1.63 1185 -2684.5 2.08 -0.38 3559.27 -675.92 2580.27 -1747.64z"/>
  <path class="fil0" d="M12835.62 10482.73l-3776.26 -930 24.45 1251.53 3451.6 313.12 300.21 -634.65zm3.85 -8.12l547.02 -1156.28 -2241.23 265.09 -2089.61 -221.87 3.57 182.11 3780.25 930.95zm-3792.04 -1113.89l-1285.2 -136.48 1288.73 317.37 -3.53 -180.89zm2458.34 -6297.68l-2563.11 -1285.15 -990.04 1958.57 243.51 1952.69 2427.3 -285.31 -3.84 7.45 -1581.5 3049.28 17.39 892.18 2089.75 221.9 2255.44 -266.86 -3.46 7.29 -549.49 1161.58 2599.66 640.22 1236.34 -3715.42 -406.68 -2522.34 -919.09 -2098.01 -806.2 3124.29 -4.73 -3.56 -2243.83 -1677.44 -797.42 -1161.36zm-2566.64 -1296.65l3.49 1.78 2568.54 1287.85 0.6 0.87 797.59 1161.7 2237.6 1672.47 809.02 -3135.18 4.7 10.7 924.34 2110.41 407.18 2525.26 -0.39 1.11 -1239.2 3723.8 -3.56 -0.83 -2605.16 -641.59 -303.67 641.93 -2.75 -0.26 -3461.73 -314.03 -0.07 -3.98 -24.52 -1257.68 -1353.72 -333.41 1.35 -8.66 1348.49 143.18 -17.43 -893.42 0.53 -1.11 1578.19 -3042.87 -2419.46 284.43 -0.55 -4.25 -244.38 -1959.82 0.63 -1.29 994.34 -1967.11z"/>
  <polygon class="fil0" points="9082.18,10804.76 10749.94,12110.7 10745.14,12117.83 9077.35,10811.89 "/>
  <path class="fil0" d="M13359.89 12369.78l15.84 -1636.77 -836.3 393.06 -1777.53 985.2 2597.99 258.51zm2084.03 -1258.78l-215.3 -1248.88 -785 368.96 1000.3 879.92zm-1015.86 -882.24l-1030.5 -906.48 -13.51 1397.19 1044.01 -490.71zm-5401.44 -1770.12l-1238.84 -1114.32 -84.98 1861.22 1323.82 -746.9zm-1246.23 -1132.45l66.26 -1451.94 -1074.76 544.85 1008.5 907.09zm9591.21 1519.05l-688.41 -1443.63 1.31 -2.16 1162.75 -1918.4 -3293.07 420.97 680.58 3947.54 2136.84 -1004.32zm-7816.06 -5748.51l4501.22 -1776.24 -5109.51 455.54 608.29 1320.7zm7036.28 -325.06l-2505.56 -1453.46 -4527.09 1786.45 1058.44 2298.09 1687.93 -1185.57 1.55 0.24 3974.5 655.96 1565.66 594.4 -1255.43 -2696.11zm-2520.8 -1461.31l-1577.7 -802.57 -3518.59 1256.93 5096.29 -454.36zm-1577.13 -812.09l1.48 0.76 1591.98 809.89 29.07 -2.62 -19.9 7.86 2501.48 1451.09 0.56 1.26 1259.84 2705.52 15.03 5.72 -15.56 1.93 -1165.22 1922.46 690.21 1447.42 -3.95 1.89 -2142.6 1007.07 219.75 1274.56 -8.65 -7.66 -1012.26 -890.36 -1051.2 494.05 -15.99 1650.35 -4.41 -0.46 -2630.33 -261.73 12.45 -6.95 1790.23 -992.22 839.93 -394.77 13.76 -1419.48 6.56 5.79 1040.34 915.17 790.58 -371.6 -682.52 -3958.81 4.3 -0.57 3288.67 -420.4 -1557.94 -591.51 -3972.17 -655.51 -1693.04 1189.12 -2.05 -4.44 -1060.87 -2303.36 -1599.09 631.01 -96.83 2121.29 335.32 -170.01 3.51 8.01 -339.29 171.98 -66.82 1463.27 1253.01 1127.02 -5.43 3.08 -1341.94 757.11 85.98 -1883.26 -1023.1 -920.25 5.79 -2.93 1084.57 -549.78 97.29 -2131.8 2.56 -0.98 1600.83 -631.69 -613.23 -1331.52 5.5 -0.48 3553.81 -1269.53z"/>
  <path class="fil3" d="M7410.16 1558.44c0,674.64 -508.56,1221.53 -1135.85,1221.53 -627.3,0 -1135.85,-546.89 -1135.85,-1221.53 0,-674.63 508.55,-1221.53 1135.85,-1221.53 627.29,0 1135.85,546.9 1135.85,1221.53z"/>
  <path class="fil4" d="M7410.16 1585.65c0,643.75 -485.24,1165.61 -1083.83,1165.61 -598.57,0 -1083.82,-521.86 -1083.82,-1165.61 0,-643.72 485.25,-1165.57 1083.82,-1165.57 598.59,0 1083.83,521.85 1083.83,1165.57z"/>
  <path class="fil5" d="M7341.69 1585.65c0,603.08 -454.58,1092 -1015.36,1092 -560.79,0 -1015.39,-488.92 -1015.39,-1092 0,-603.09 454.6,-1091.97 1015.39,-1091.97 560.78,0 1015.36,488.88 1015.36,1091.97z"/>
  <path class="fil6" d="M5611.15 2360.82c-0.09,-0.11 -0.16,-0.18 -0.26,-0.26 0.1,0.11 0.17,0.15 0.26,0.26zm-1 -1.07c-0.24,-0.25 -0.48,-0.52 -0.72,-0.79 0.25,0.27 0.47,0.54 0.72,0.79zm-0.77 -0.82c-45.23,-48.5 -86.24,-101.57 -122.33,-158.48 36.12,56.94 77.08,109.95 122.33,158.48zm-122.95 -159.43c-0.06,-0.11 -0.12,-0.22 -0.2,-0.3 0.09,0.11 0.13,0.19 0.2,0.3z"/>
  <path class="fil2" d="M5671.67 2420.39c-20.92,-19.02 -41.11,-38.86 -60.52,-59.57 -0.09,-0.11 -0.16,-0.15 -0.26,-0.26 -0.24,-0.27 -0.49,-0.54 -0.74,-0.81 -0.25,-0.25 -0.47,-0.52 -0.72,-0.79 -0.01,0 -0.03,0 -0.05,-0.03 -45.25,-48.53 -86.21,-101.54 -122.33,-158.48 -0.21,-0.3 -0.41,-0.65 -0.62,-0.95 -0.07,-0.11 -0.11,-0.19 -0.2,-0.3 -35.67,-56.45 -66.58,-116.71 -92.04,-180.06l1404.78 -1400.15c261.58,148.15 455.59,415.59 519.73,734.92 -462.36,301.28 -1222.3,795.55 -1647.03,1066.48z"/>
  <path class="fil2" d="M6007.46 2622.71c-55.56,-19.8 -109.04,-44.5 -159.92,-73.9 382.53,-237.76 1081.57,-670.31 1493.44,-925.04 -3.87,124.75 -27.34,244.14 -67.11,354.85l-1266.41 644.09z"/>
  <polygon class="fil7" points="6316.52,738.46 6336.13,738.46 6336.13,572.95 6316.52,572.95 "/>
  <polygon class="fil8" points="5923.94,857.25 5846.99,713.88 5864.01,703.34 5940.96,846.67 "/>
  <polygon class="fil8" points="5639.21,1171.2 5505.91,1088.42 5515.74,1070.17 5649.01,1152.91 "/>
  <polygon class="fil8" points="5384.66,1596.23 5538.56,1596.23 5538.56,1575.13 5384.66,1575.13 "/>
  <polygon class="fil8" points="5515.74,2101.16 5505.91,2082.88 5639.21,2000.09 5649.01,2018.38 "/>
  <polygon class="fil8" points="5864.01,2467.96 5846.99,2457.41 5923.94,2314.12 5940.96,2324.63 "/>
  <polygon class="fil8" points="6316.52,2598.39 6336.13,2598.39 6336.13,2432.87 6316.52,2432.87 "/>
  <polygon class="fil8" points="6788.66,2467.96 6711.71,2324.63 6728.71,2314.12 6805.67,2457.41 "/>
  <polygon class="fil8" points="7136.95,2101.16 7003.68,2018.38 7013.47,2000.09 7146.76,2082.88 "/>
  <polygon class="fil8" points="7114.1,1596.23 7268.01,1596.23 7268.01,1575.13 7114.1,1575.13 "/>
  <polygon class="fil8" points="7013.47,1171.2 7003.68,1152.91 7136.95,1070.17 7146.76,1088.42 "/>
  <polygon class="fil8" points="6728.71,857.25 6711.71,846.67 6788.66,703.34 6805.67,713.88 "/>
  <polygon class="fil7" points="6341.09,647.91 6374.49,1659.36 6278.17,1658.07 6314.94,647.56 "/>
  <polygon class="fil9" points="6926.92,1232.93 6294.15,1667.29 6248.17,1576.27 6914.43,1208.19 "/>
  <path class="fil7" d="M6359.19 1585.65c0,19.53 -14.7,35.36 -32.86,35.36 -18.15,0 -32.88,-15.83 -32.88,-35.36 0,-19.54 14.73,-35.33 32.88,-35.33 18.16,0 32.86,15.79 32.86,35.33z"/>
  <path class="fil0" d="M16009.18 15438.16c0,386.59 -2424.43,699.98 -5415.17,699.98 -2990.72,0 -5415.17,-313.39 -5415.17,-699.98 0,-386.59 2424.45,-699.98 5415.17,-699.98 2990.74,0 5415.17,313.39 5415.17,699.98z"/>
  <polygon class="fil10" points="4678.7,14321.26 6574.29,14312.05 8469.87,14308.71 12261.03,14302.34 16052.18,14308.63 17947.8,14311.96 19843.38,14321.26 17947.8,14330.53 16052.18,14333.86 12261.03,14340.21 8469.87,14333.82 6574.29,14330.48 "/>
  <path class="fil11" d="M5896.66 12381.43c-10.88,-287.5 -6.51,-575.57 11.01,-862.62 36.11,-592.15 126.78,-1179.72 251.27,-1757.49 70.07,-325.22 156.35,-644.98 246.25,-964.34 2.72,-9.65 17.04,-6.91 14.55,3.11 -278.03,1125.92 -506.15,2287.81 -490.44,3458.19 4.41,327.54 39.65,649.25 68.58,974.7 0.76,8.76 -12.55,12.18 -14.39,3.26 -57.4,-278.55 -76.07,-570.37 -86.83,-854.81z"/>
  <path class="fil11" d="M6419.74 8800.09c0,0 421.19,1149.74 326.89,1419.98 -94.31,270.25 -288.71,327.91 -288.71,327.91 0,0 257.71,395.64 77.61,766.79 -180.07,371.08 -580.18,353.55 -606.78,774.34 0,0 -22.3,-1759.43 490.99,-3289.02z"/>
  <path class="fil10" d="M5974.53 11362.62l0.44 -6.03c59.13,-781.74 188.1,-1561.09 408.53,-2312.89l3.47 0.83c-83.45,336.3 -157.71,674.45 -221.17,1014.42 54.7,-60.59 126.26,-95.42 201.06,-120.57l0.75 2.31c-77.88,36.19 -152.52,78.2 -207.57,149.18 -12.3,66.62 -24.35,133.28 -35.79,200.05 94.12,-113.14 224.66,-169.28 355.29,-222.63l1.01 3.11c-136.05,59.53 -271.55,136.28 -363.7,262.36 -32.15,190.79 -60.26,382.27 -84.59,574.31 68.8,-77.31 153.72,-129.29 251.16,-154.82l1.58 4.82c-100.09,31.03 -186.17,91.27 -254.73,175.5l-1.54 1.29c-8.42,67.57 -16.39,135.19 -23.83,202.91 52.99,-48.6 111.54,-85.6 176.03,-114.2l0.95 2.92c-65.5,29.97 -124.43,73.18 -176.32,125.46l-2.25 0.99c-7.01,64.38 -13.98,128.76 -20.04,193.3 96.57,-125.13 215.95,-215.69 357.23,-274.3l1.52 4.62c-137.36,64.24 -258.43,165.99 -352.06,291.34 -2.56,3.42 -5.9,3.99 -8.88,3 -9.1,98.94 -17.24,198 -24.01,297.33l-2.08 0.07c5.32,-101.56 11.92,-203.16 19.54,-304.68z"/>
  <path class="fil10" d="M6312.95 9824.15c73.05,-53.99 165.87,-77.06 253.06,-84.88l0.22 3.45c-90.67,14.5 -166.88,49.82 -250.2,87.91 -3.62,1.64 -6.23,-4.17 -3.08,-6.48z"/>
  <path class="fil10" d="M6261.82 11041.39c57.81,-37.34 123.75,-58.39 189.96,-69.89l0.27 3.86c-67.25,13.1 -126.81,38.86 -187.93,70.88l-2.3 -4.85z"/>
  <path class="fil11" d="M4789.42 10238.82c175.66,132.82 344.2,285.99 487.5,458.31 152.72,183.66 264.11,392.17 341.9,623.56 159.37,474.01 246.74,987.52 254.69,1491.32 4.46,282.4 -18.9,562.64 -75.07,838.68 -2.05,10.06 -16.02,7.17 -14.58,-2.97 68.67,-485.65 66.16,-981.25 -7.65,-1466.03 -72.41,-475.62 -186.02,-993.07 -467.15,-1379.59 -153.09,-210.49 -343.94,-376.05 -532.61,-547.2 -9.92,-8.99 2.76,-23.78 12.97,-16.08z"/>
  <path class="fil11" d="M5811.51 12469.53c0,0 -144.66,-261.97 -355.34,-488.51 -210.71,-226.53 -388.18,-387.55 -415.56,-537.37 -27.4,-149.82 211.07,-260.15 211.07,-260.15 0,0 -291.59,56.27 -371.35,-75.34 -79.79,-131.58 -118.31,-893.81 -118.31,-893.81 0,0 530.45,407.27 777.6,978.22 247.15,570.95 271.89,1276.96 271.89,1276.96z"/>
  <path class="fil10" d="M4945.53 10409.74c223.22,235.74 447.84,486.98 579.28,796.71 45.04,106.19 83.41,216.3 117.17,328.52l0.15 0.54c6.77,22.53 13.65,44.99 20.04,67.68l1.06 3.67c65,231.36 110.92,470.53 150.69,704.19l-2.16 0.77c-22.87,-118.95 -48.07,-239.02 -76.22,-358.72l-3.17 -0.69c-45.13,-20.41 -90.51,-33.18 -139.21,-38 -3.17,-0.31 -2.92,-6.23 0.3,-6.08 47.01,2.46 93.02,11.3 137.68,27.02 -25.69,-107.98 -53.62,-215.61 -85.01,-321.69 -102.42,-27.01 -209.31,-41.54 -314.62,-44.24l-0.14 -1.85c106.17,-5.32 205.94,4.5 309.33,28.22 -5.46,-18.25 -11.16,-36.31 -16.81,-54.44 -69.15,-16.96 -138.6,-31.19 -209.37,-38.17l0.11 -2.39c69.29,2.01 137.57,9.82 205.01,26.78 -28.87,-91.84 -60.05,-182.4 -94.65,-270.61 -28.64,-72.96 -62.68,-142.24 -100.16,-209.12 -56.72,-13.82 -111.69,-26.94 -169.82,-32.56l0.16 -3.04c52.73,-3.68 107.71,0.61 158.76,16.85 -27.91,-48.45 -57.22,-95.9 -88.59,-141.89l-0.02 0c-118.95,-28.34 -239.52,-54.6 -361.2,-30.05l-0.81 -3.95c115.87,-32.77 230.82,-13.88 346.09,10.66 -12.56,-18.01 -25.45,-35.77 -38.44,-53.41 -73.02,-24.32 -145.65,-36.09 -222.27,-37.6l-0.2 -2.62c69.92,-7.17 139.66,0.11 207.24,19.8 -98.35,-131.42 -206.98,-254.83 -314.36,-376.89 -5,-5.64 -1.1,-8.94 4.16,-3.4z"/>
  <path class="fil10" d="M4951.47 10929.31c34.92,-3.99 70.45,-8.16 105.52,-3.91 4.23,0.49 3.87,7.94 -0.4,8.09 -34.92,1.06 -69.84,-1.71 -104.77,0.34l-0.35 -4.52z"/>
  <path class="fil10" d="M5333.29 11668.74c55.74,-0.75 111.41,15.4 163.47,35.29l-0.77 2.54c-53.98,-13.84 -108.59,-19.46 -163.12,-29.14 -4.46,-0.76 -4.25,-8.61 0.42,-8.69z"/>
  <path class="fil10" d="M5447.7 11413.31c22.63,-1.26 47.11,2.99 69.42,6.75l-0.21 4.43c-22.57,0.42 -47.36,1.11 -69.56,-3.53 -3.94,-0.79 -3.78,-7.43 0.35,-7.65z"/>
  <path class="fil11" d="M7366.53 11047.75c-170.71,63.79 -340.03,145.84 -493.04,249.72 -163.05,110.67 -298.01,251.7 -410.69,419.62 -230.85,344.02 -411.93,737.83 -526.65,1143.59 -64.3,227.44 -105.63,460.01 -119.49,697.4 -0.49,8.6 11.43,9.79 12.45,1.22 48.79,-410.13 157.32,-810.54 321.24,-1184.54 160.82,-366.92 364,-757.42 674.57,-1000.34 169.12,-132.3 359.17,-218.88 548.65,-310.46 9.96,-4.82 2.88,-19.92 -7.04,-16.21z"/>
  <path class="fil11" d="M6059.94 12598.89c0,0 173.36,-175.99 392.56,-306.99 219.21,-130.97 397.43,-217.13 451.79,-331.59 54.36,-114.43 -114.88,-262.99 -114.88,-262.99 0,0 223.87,118.02 316.72,31.37 92.84,-86.65 287.83,-693.95 287.83,-693.95 0,0 -516.83,197.74 -839.55,598.34 -322.71,400.64 -494.47,965.81 -494.47,965.81z"/>
  <path class="fil10" d="M6086.84 12473.7c258.49,-521.81 603.41,-993.86 1076.03,-1305.44l0.22 0.33c-124.41,85.25 -239.09,183.63 -345.93,291.15 95.66,-2.85 193.06,13.51 277.88,63.06l-1.42 3.15c-94.53,-34.38 -185.36,-56.99 -285.9,-51.98l-3.24 -1.29c-16.78,17.11 -33.32,34.48 -49.71,52.05 49.74,2.27 100.04,9.86 148.49,21.17l-0.39 2.2c-52.46,-10.89 -103.62,-14.72 -156.84,-13.88 -86.62,93.59 -167.3,193.67 -243.78,297.67 34.52,-5.43 70.73,-2.28 103.82,8.08l-0.76 4.21c-37.67,-5.13 -73.45,-4.44 -110.82,-1.63 -14.15,19.39 -28.44,38.58 -42.3,58.23 106.27,-6.86 210.38,4.1 313.66,32.78l-0.46 2.66c-106.53,-22.54 -213.95,-29.71 -322.19,-22.54 -13.17,18.82 -25.66,38.16 -38.59,57.18 63.42,-2.09 124.91,6.45 186.74,22.99l-0.73 4.02c-63.59,-15.63 -128.26,-19.54 -193.28,-16.2 -55.61,82.41 -108.86,166.55 -160.06,251.84 27.1,-6.03 55.56,-2.73 81.95,5.32l-0.43 2.41c-30.42,-3.87 -58.83,0.35 -88.68,4.52 -46.06,77.06 -90.53,154.88 -133.18,233.14 -3.6,6.64 -13.52,1.71 -10.1,-5.2z"/>
  <path class="fil10" d="M6488.94 12040.86c50.52,-4.67 101.88,3.86 150.15,19.76l-0.43 2.39c-49.69,-9.83 -98.96,-13.55 -149.31,-16.43 -3.32,-0.18 -3.94,-5.39 -0.41,-5.72z"/>
  <path class="fil10" d="M6939.75 11404.99c22.86,-2.85 46.7,0.38 69.26,4.29l-0.79 4.43c-22.76,-2.61 -45.22,-1.7 -68,-2.42 -3.72,-0.11 -4.32,-5.85 -0.47,-6.3z"/>
  <polygon class="fil12" points="5393.33,14324.38 6559.95,14324.38 6393.59,13013.96 6351.08,12677.93 5602.17,12677.93 5559.67,13013.96 "/>
  <polygon class="fil10" points="5559.67,13013.96 6393.59,13013.96 6351.08,12677.93 5602.17,12677.93 "/>
  <polygon class="fil12" points="5495.08,12845.91 6458.18,12845.91 6458.18,12561.37 5495.08,12561.37 "/>
  <path class="fil13" d="M12670.28 15706.69c-76.13,26.47 -2246.66,-3.79 -2328.54,-61.47 -31.47,-21.31 -45.82,-361.71 -52.14,-773.5 -0.03,-4.35 -0.07,-8.66 -0.11,-12.94 -1.48,-84.87 -2.5,-172.23 -2.64,-260.83 0,-12.21 -0.04,-24.39 -0.39,-36.53l105.34 -1210.99 1451.96 15.64 -143.3 1199.6 -1.69 47.5 -8.75 248.31 -0.84 25.57c0,0 825.98,411.22 909.87,484.83 83.22,73.3 147.39,308.78 71.23,334.81z"/>
  <path class="fil0" d="M12670.28 15706.69c-76.13,26.47 -2246.66,-3.79 -2328.54,-61.47 -31.47,-21.31 -45.82,-361.71 -52.14,-773.5 -0.03,-4.35 -0.07,-8.66 -0.11,-12.94 -1.48,-84.87 -2.5,-172.23 -2.64,-260.83 0,-12.21 -0.04,-24.39 -0.39,-36.53l1414 4.25 -1.69 47.5 -8.75 248.31 -0.84 25.57c0,0 825.98,411.22 909.87,484.83 83.22,73.3 147.39,308.78 71.23,334.81z"/>
  <path class="fil11" d="M12670.49 15706.53c-39.2,13.59 -628.89,12.19 -1205.29,-0.34 -115.89,-2.51 -231.07,-5.35 -341,-8.56 -411.05,-12.14 -750.74,-30.35 -782.28,-52.52 -31.22,-21.02 -45.48,-352.07 -51.79,-756.27 0,-5.74 -0.35,-11.43 -0.35,-17.12 0,-4.32 0,-8.95 -0.32,-13.24l1.66 0 1398.87 2.85 -0.67 25.72c0,0 826.09,411 909.77,484.57 83.36,73.56 147.42,308.86 71.4,334.91z"/>
  <path class="fil10" d="M12646.82 15615.86c-365.75,-14.76 -1842.34,-37.21 -2204.96,-21.88l0 2.46c362.23,23.14 1838.92,32.7 2204.89,25.86 7.72,-0.14 7.79,-6.09 0.07,-6.44z"/>
  <path class="fil10" d="M11845.84 14867.97c-143.61,-30.92 -320,-9.59 -431.37,99.18 -4.31,4.21 1.34,10.73 6.03,9.21 142.63,-46.13 275.63,-75.19 424.53,-88.81 10.48,-1 11.08,-17.33 0.81,-19.58z"/>
  <path class="fil10" d="M11948.96 14936.75c-143.65,-30.88 -320.04,-9.6 -431.38,99.2 -4.3,4.23 1.35,10.75 6.04,9.23 142.63,-46.17 275.62,-75.23 424.53,-88.85 10.48,-0.95 11.11,-17.34 0.81,-19.58z"/>
  <path class="fil10" d="M12052.08 15005.57c-143.65,-30.93 -320.04,-9.6 -431.38,99.18 -4.34,4.2 1.34,10.73 6,9.21 142.63,-46.17 275.66,-75.19 424.57,-88.85 10.47,-0.94 11.07,-17.33 0.81,-19.54z"/>
  <path class="fil10" d="M11465.2 15706.19c-115.89,-2.51 -231.07,-5.35 -341,-8.56 -411.05,-12.14 -750.74,-30.35 -782.28,-52.52 -31.22,-21.02 -45.48,-352.07 -51.79,-756.27 0,-5.74 -0.35,-11.43 -0.35,-17.12 0,-4.32 0,-8.95 -0.32,-13.24l1.66 0c191.59,144.59 866.95,628.13 1174.08,847.71z"/>
  <path class="fil10" d="M11785.27 14866.71l-1563.23 0c0,0 314.79,-3926.51 302.51,-3995.1 -15.63,-87.84 -107.91,-485.29 -230.79,-1004.48 -38.52,-162.45 -80.01,-336.75 -123.19,-517.41 -116.52,-488.47 -245.04,-1022.35 -356.94,-1486.92 -167.99,-695.92 -299.15,-1236.55 -299.15,-1236.55l1324.85 0c0,0 154.38,526.33 348.97,1211.21 317.08,1113.02 740.76,2644.93 782.6,3017.38 67.74,601.33 -185.63,4011.87 -185.63,4011.87z"/>
  <path class="fil14" d="M11716.06 14579.86c-238.76,-5.36 -170.18,-7.44 -408.94,-9.95 -116.84,-1.17 -884.7,-8.35 -993.88,11.04l0 5.25c109.18,19.46 877.04,12.24 993.88,11.05 238.76,-2.44 170.18,-4.57 408.94,-9.93 4.48,-0.1 4.48,-7.34 0,-7.46z"/>
  <path class="fil14" d="M10818.7 10631.64c-51.3,-243.04 -127.85,-481.18 -194.53,-719.71 -135.5,-484.66 -272.09,-969.04 -408.94,-1453.29 -68.4,-242.1 -136.94,-484.19 -206.19,-726.09 -34.96,-122.12 -69.85,-244.28 -105.41,-366.19 -34.79,-119.32 -74.37,-237.6 -105.77,-357.99 -12.77,-48.97 -19.75,-22.08 -3.42,40.1 32.99,125.39 65.55,250.94 99.52,376.02 67.35,247.71 135.22,495.22 203.27,742.69 135.54,492.53 272.87,984.49 410.1,1476.49 68.8,246.68 138.08,493.17 206.94,739.81 32.88,117.84 65.13,236.4 84.49,357.85 20.18,126.7 21.28,254.87 13.8,382.88 -14.96,257.19 -42.69,514.07 -64.77,770.69 -22.16,257.12 -44.28,514.28 -66.39,771.41 -44.03,511.76 -88.13,1023.49 -130.96,1535.37 -5.43,64.88 -10.72,129.75 -15.34,194.71 -1.55,21.69 28.96,20.06 31.11,-0.81 51.47,-506.03 90.95,-1013.73 135.15,-1520.51 43.96,-504.34 87.95,-1008.66 131.77,-1512.99 10.97,-126.64 23.53,-253.47 23.6,-380.76 0.1,-118.14 -13.76,-234.61 -38.03,-349.68z"/>
  <path class="fil14" d="M10688.87 6626.25c-91.97,765.19 -267.26,2199.97 -395.11,3240.88 -298.8,-1261.21 -779.28,-3240.88 -779.28,-3240.88l1174.39 0z"/>
  <path class="fil13" d="M11014.31 15729.19c-76.06,26.74 -2246.7,5.01 -2328.75,-52.36 -31.58,-21.18 -47.07,-361.52 -54.79,-773.32 -0.04,-4.28 -0.07,-8.57 -0.14,-12.85 -1.77,-84.87 -3.07,-172.29 -3.49,-260.83 -0.08,-12.22 -0.15,-24.41 -0.57,-36.54 -5.04,-594.32 34.82,-1211.02 34.82,-1211.02l1418.84 9.94 -39.66 1199.76 -1.48 47.49 -7.93 248.35 -0.75 25.57c0,0 827.37,407.99 911.55,481.26 83.43,72.99 148.41,308.22 72.35,334.55z"/>
  <path class="fil0" d="M11014.31 15729.19c-76.06,26.74 -2246.7,5.01 -2328.75,-52.36 -31.58,-21.18 -47.07,-361.52 -54.79,-773.32 -0.04,-4.28 -0.07,-8.57 -0.14,-12.85 -1.77,-84.87 -3.07,-172.29 -3.49,-260.83 -0.08,-12.22 -0.15,-24.41 -0.57,-36.54l1414 -1.32 -1.48 47.49 -7.93 248.35 -0.75 25.57c0,0 827.37,407.99 911.55,481.26 83.43,72.99 148.41,308.22 72.35,334.55z"/>
  <path class="fil11" d="M11014.31 15729.19c-76.06,26.74 -2246.7,5.01 -2328.75,-52.36 -31.58,-21.18 -47.07,-361.52 -54.79,-773.32 -0.04,-4.28 -0.07,-8.57 -0.14,-12.85l1400.53 -2.85 -0.75 25.57c0,0 827.37,407.99 911.55,481.26 83.43,72.99 148.41,308.22 72.35,334.55z"/>
  <path class="fil10" d="M10990.53 15638.48c-365.83,-13.36 -1842.45,-30.01 -2205,-13.28l-0.03 2.46c362.3,21.75 1839.03,25.49 2205,17.22 7.69,-0.15 7.72,-6.19 0.03,-6.4z"/>
  <path class="fil10" d="M10187.01 14893.68c-143.72,-30.35 -320.04,-8.34 -431.02,100.89 -4.31,4.25 1.34,10.74 6.03,9.22 142.49,-46.71 275.41,-76.33 424.25,-90.56 10.48,-0.99 11.04,-17.38 0.74,-19.55z"/>
  <path class="fil10" d="M10290.38 14962.09c-143.76,-30.31 -320.08,-8.31 -431.06,100.88 -4.31,4.26 1.37,10.75 6.03,9.22 142.49,-46.74 275.41,-76.34 424.25,-90.56 10.48,-0.98 11.04,-17.37 0.78,-19.54z"/>
  <path class="fil10" d="M10393.71 15030.5c-143.73,-30.35 -320.08,-8.33 -431.03,100.89 -4.3,4.24 1.34,10.7 6.03,9.17 142.46,-46.71 275.42,-76.3 424.25,-90.48 10.48,-1.03 11.05,-17.42 0.75,-19.58z"/>
  <path class="fil10" d="M10796.47 6626.25c0,0 -30.55,681.65 -175.65,1221.57 -11.6,44.65 -24.23,88.58 -37.85,130.7 0,0 -151.06,58.91 -381.85,211.05 0,0 -15.24,548.49 -30.55,1160.15 -16.89,683.8 -34.5,1446.57 -30.86,1608.31 13.26,605.25 -70.38,3933.31 -70.38,3933.31l-1562.92 6.79c0,0 282.58,-3716.56 280.6,-3938.32 -2.99,-356.36 75.67,-1931.48 136.46,-3080.2 37.18,-707.76 67.73,-1253.36 67.73,-1253.36l1805.27 0z"/>
  <path class="fil14" d="M10015.77 14592.33c-238.76,-4.23 -170.18,-6.67 -408.97,-8.03 -116.84,-0.68 -884.73,-4.37 -993.81,15.59l0.03 5.24c109.26,18.92 877.04,8.24 993.88,6.49 238.76,-3.58 170.18,-5.36 408.87,-11.77 4.48,-0.11 4.48,-7.44 0,-7.52z"/>
  <path class="fil14" d="M9122.54 6869.78c-28.75,937.74 -59.27,1875.6 -98.25,2812.92 -39.12,940.52 -91.86,1880.73 -165.03,2818.96 -40.92,524.17 -79.44,1261.56 -132.04,1784.5 -0.35,3.53 4.62,4.79 5.08,1.18 113.8,-930.15 177.23,-2080.39 233.18,-3016.5 55.95,-935.96 93.91,-1873.47 123.58,-2810.81 16.76,-530.19 29.6,-1060.58 44.35,-1590.85 0.21,-7.55 -10.66,-6.87 -10.87,0.6z"/>
  <path class="fil14" d="M10647.95 7937.92c-155.61,66.47 -304.62,157.19 -446.79,251.65 -5.58,3.68 -1.41,13.05 4.69,9.91 150.74,-78.81 304.69,-154.65 451.27,-242.25 11.5,-6.87 2.79,-24.43 -9.17,-19.31z"/>
  <path class="fil14" d="M10656.7 7359.58c-10.3,59.71 -23.78,118.86 -35.77,178.23 -11.25,55.7 -19.54,112.57 -33.23,167.62 -13.3,53.42 -34.43,102.39 -72.6,140.53 -20.32,20.29 -42.73,38.27 -64.39,56.9 -11.67,10.02 -24.3,19.69 -36.44,29.82 1.59,-7.89 2.86,-15.93 4.16,-24.05 3.71,-22.61 7.27,-45.34 10.83,-67.98 7.84,-50.31 15.32,-100.73 22.48,-151.16 14.11,-99.13 27.09,-199.29 46.32,-297.44 0.77,-3.98 -4.8,-5.54 -5.75,-1.52 -22.97,97.24 -48.33,193.45 -68.3,291.53 -9.84,48.1 -44.84,285.56 -46.39,302.37 -1.59,17.34 -2.93,34.76 -3.49,52.2 -0.6,17.19 -3.74,36.43 -0.07,53.35 0.95,4.33 5.82,3.61 7.51,0.68l0.25 0.15c8,-15.09 10.05,-34.86 14.04,-51.6 4.05,-16.96 7.62,-34.14 10.44,-51.36 1.02,-6.23 1.83,-12.6 2.65,-18.97 21.76,-14.2 41.98,-33 62.33,-48.84 21.91,-17.06 44.24,-33.68 64.95,-52.46 39.72,-35.93 64.52,-79.98 79.3,-133.24 15.35,-55.28 20.11,-113.63 26.04,-170.69 7.02,-67.46 12.13,-135.33 20.88,-202.56 0.53,-3.99 -5.04,-5.61 -5.75,-1.51z"/>
  <path class="fil13" d="M9954.88 4867.43c215.9,386.59 1137.01,1221.33 1461.49,1241.17 234.67,14.38 1049.29,-678.16 1267.98,-921.65 211,-234.96 -554.48,-873.47 -687.27,-744.82 -187.47,181.65 -597.29,704.94 -687.95,721.6 -63.57,11.68 -455.37,-185.87 -1063.13,-558.47 -336.34,-206.19 -419.98,31.38 -291.12,262.17z"/>
  <path class="fil13" d="M12271.22 4074.88c130.63,-79.22 274.53,-181.28 429.75,-207.3 155.18,-26.03 319.47,169.39 329.74,232.29 10.23,62.92 15.77,466.24 -138.96,495.41 -154.69,29.15 -110.42,-289.85 -121.88,-323.27 -11.47,-33.46 -24.49,-76.49 -53.17,-67.77 -28.64,8.77 -497.05,365.63 -497.05,365.63l51.57 -494.99z"/>
  <path class="fil13" d="M12284.84 4095.94c8.75,-1.68 394.64,-255.6 549.87,-281.63 155.22,-26.03 319.47,169.44 329.74,232.3 10.23,62.91 15.8,466.23 -138.96,495.41 -154.7,29.17 -110.42,-289.85 -121.89,-323.24 -11.46,-33.46 -24.48,-76.53 -53.16,-67.8 -28.65,8.76 -497.03,365.66 -497.03,365.66l-68.57 -420.7z"/>
  <path class="fil10" d="M12969.57 4530.87c-23.39,-22.73 -33.09,-61.69 -41.77,-93.48 -9.49,-34.72 -12.63,-71.26 -11.71,-107.3 0.81,-31.37 7.9,-63.77 3.88,-95.08 -3.74,-28.94 -19.01,-61.3 -35.91,-83.91 -15.77,-21.06 -37.18,-8.8 -55.49,2.27 -26.99,16.35 -52.57,37.06 -77.47,56.76 -27.03,21.32 -53.59,43.36 -80.22,65.14 -27.42,22.46 -56.66,43.97 -81.18,70.04l2.61 4.17c25.44,-15.22 48.58,-34.79 72.32,-52.74 26.95,-20.37 54.08,-40.52 81.39,-60.32 25.54,-18.44 50.2,-38.39 76.02,-56.37 9.14,-6.38 26.95,-21.45 38.59,-20.84 12.35,0.61 23.25,30.73 27.52,40.37 13.48,30.36 12.38,58.39 9.28,90.95 -3,31.29 -3.92,62.82 -1.13,94.19 2.54,28.91 8.43,59.3 20.57,85.48 11.67,25.2 31.92,43.44 48.54,64.64l4.16 -3.97z"/>
  <path class="fil13" d="M11865.21 4625.18c0,0 360.29,-501.06 435.96,-601.37 151.76,-201.2 851.88,-674.6 955.03,-706.43 103.16,-31.76 178.9,192.85 -293.75,530.01 -249.1,177.71 -270.02,352.92 -249.88,444.04 20.18,91.13 129.86,247.36 273.2,215.99 143.36,-31.31 199.91,-274.98 328.15,-325.03 128.27,-50.04 83.36,227.26 14.53,395.56 -68.86,168.29 -218.08,324.53 -334.47,398.25 -116.38,73.72 -472.79,324.98 -472.79,324.98l-655.98 -676z"/>
  <path class="fil10" d="M13146.74 4364.84c-46.85,55.44 -98.78,125.5 -169.69,141.82 -73.27,16.92 -129.61,-25.57 -174.38,-83.77 -45.15,-58.69 -77.33,-129.26 -72.74,-207.07 4.2,-70.04 31.72,-136.47 70.38,-192.27 47.84,-69.09 108.62,-125.17 172.33,-176.43l-3.67 -4.5c-61.1,44.35 -252.44,173.98 -261.72,377.53 -3.85,83.15 30.12,150.31 75.67,210.71 41.94,55.62 98.14,106.34 168.91,99.24 86.32,-8.6 147.42,-96.81 199.49,-163.9l-4.58 -1.36z"/>
  <path class="fil12" d="M11981.73 4456.54l593.3 1151.19c0,0 -887.48,562.64 -1174.07,532.1 -286.64,-30.54 -1122.23,-759.92 -1448.97,-1236.78 -198.89,-290.35 -58.98,-536.08 328.83,-318.62 398.42,223.43 957.36,531.27 997.26,538.63 39.9,7.4 703.65,-666.52 703.65,-666.52z"/>
  <path class="fil5" d="M12076.7 5842.01c-20.99,-17.19 -44.1,-28.45 -67.66,-38.33 -23.81,-9.1 -48.16,-16.76 -74.54,-18.4 20.99,17.27 44.09,28.53 67.66,38.33 23.85,9.07 48.19,16.72 74.54,18.4zm-932.74 -164.01c-21.03,-17.23 -44.1,-28.49 -67.67,-38.36 -23.84,-9.1 -48.15,-16.77 -74.57,-18.41 21.02,17.31 44.09,28.54 67.7,38.37 23.81,9.06 48.15,16.69 74.54,18.4zm602.37 -644.14c-21.03,-17.22 -44.1,-28.49 -67.67,-38.35 -23.84,-9.11 -48.19,-16.78 -74.57,-18.4 21.02,17.26 44.09,28.53 67.66,38.35 23.88,9.03 48.19,16.7 74.58,18.4zm-1237.34 411.15c-21.02,-17.23 -44.09,-28.5 -67.66,-38.36 -23.81,-9.1 -48.15,-16.76 -74.54,-18.4 20.99,17.26 44.06,28.53 67.66,38.36 23.81,9.07 48.16,16.69 74.54,18.4zm-301.16 -540.56c-16.02,22.62 -26.5,47.46 -35.67,72.81 -8.47,25.61 -15.56,51.78 -17.11,80.16 16.09,-22.57 26.53,-47.42 35.67,-72.76 8.43,-25.65 15.55,-51.83 17.11,-80.21zm1641.51 470.14c-16.02,22.65 -26.5,47.47 -35.67,72.81 -8.47,25.61 -15.59,51.79 -17.11,80.16 16.05,-22.57 26.53,-47.38 35.67,-72.76 8.39,-25.65 15.52,-51.83 17.11,-80.21zm-926.33 -184.07c-16.01,22.61 -26.49,47.46 -35.66,72.8 -8.47,25.61 -15.56,51.75 -17.08,80.17 16.05,-22.58 26.5,-47.43 35.63,-72.77 8.43,-25.65 15.56,-51.83 17.11,-80.2zm982.38 -501.37c26.21,-3.83 49.92,-13.43 73.06,-24.36 22.83,-11.68 45.05,-24.78 64.81,-43.71 -26.21,3.8 -49.92,13.39 -73.06,24.4 -22.83,11.69 -45.05,24.77 -64.81,43.67zm396.95 903.97c26.16,-3.78 49.91,-13.39 73.08,-24.36 22.83,-11.68 45.05,-24.76 64.77,-43.66 -26.21,3.75 -49.91,13.36 -73.06,24.32 -22.79,11.72 -45.01,24.85 -64.79,43.7zm-875.42 328.71c26.18,-3.83 49.92,-13.43 73.06,-24.36 22.83,-11.72 45.05,-24.78 64.81,-43.7 -26.22,3.75 -49.92,13.35 -73.06,24.36 -22.83,11.72 -45.05,24.81 -64.81,43.7zm-891.96 -1064.65c3.53,28.19 12.45,53.73 22.61,78.57 10.87,24.58 23.04,48.49 40.64,69.74 -3.49,-28.2 -12.42,-53.73 -22.65,-78.57 -10.9,-24.55 -23.07,-48.45 -40.6,-69.74zm1626.41 185.07c3.56,28.19 12.45,53.69 22.65,78.57 10.86,24.54 23.03,48.48 40.64,69.7 -3.5,-28.15 -12.42,-53.69 -22.65,-78.58 -10.94,-24.5 -23.07,-48.41 -40.64,-69.69zm-755.97 327.27c10.23,24.88 19.16,50.37 22.65,78.57 -17.57,-21.25 -29.74,-45.15 -40.61,-69.7 -10.19,-24.89 -19.12,-50.42 -22.64,-78.57 17.53,21.25 29.7,45.19 40.6,69.7z"/>
  <path class="fil10" d="M12041.35 5200.53c-38.8,-87.41 -191.87,-438.24 -223.66,-528.49l2.33 -1.37c46,79.71 206.45,421.17 245.5,508.65 77.82,174.41 159.49,348.09 219.14,530.93l-5.11 3.11c-89.96,-164.97 -161.68,-340.55 -238.2,-512.83z"/>
  <path class="fil10" d="M9951.96 4902.97c264.97,386.49 863.91,938.88 1233.87,1150.47l-1134.95 -1550.8 -0.36 0c-204.33,-18.33 -250.96,177.74 -98.56,400.33z"/>
  <path class="fil12" d="M8828.25 7639c5.72,5.99 2295.81,-162.53 2314.97,-189.4 26.77,-37.82 -697.94,-2540.52 -879.62,-2908.23 -77.4,-156.68 -447.71,-179.18 -594.11,-31.11 -366.5,370.63 -621.56,1569.17 -675.18,1928.53 -89.04,592.11 -186.45,1178.54 -166.06,1200.21z"/>
  <path class="fil5" d="M9951.82 6057.16c-21.03,-17.27 -44.1,-28.49 -67.67,-38.36 -23.84,-9.11 -48.15,-16.76 -74.54,-18.4 20.99,17.26 44.1,28.53 67.66,38.36 23.85,9.03 48.16,16.69 74.55,18.4zm344.94 1009.79c-21.02,-17.23 -44.13,-28.49 -67.7,-38.36 -23.81,-9.1 -48.15,-16.72 -74.54,-18.36 20.99,17.26 44.06,28.53 67.66,38.32 23.85,9.07 48.19,16.73 74.58,18.4zm-1098.02 -1533.7c17.82,12.64 37.11,22.02 56.87,30.17 23.85,8.96 48.12,16.73 74.65,18.36 -21.21,-17.15 -43.96,-28.57 -67.84,-38.32 -19.72,-7.36 -40.18,-14.26 -61.81,-16.72l-1.87 6.51zm1602.71 838.28c-20.99,-17.23 -44.1,-28.5 -67.67,-38.36 -23.81,-9.11 -48.15,-16.74 -74.54,-18.4 20.99,17.3 44.1,28.57 67.66,38.36 23.85,9.06 48.16,16.72 74.55,18.4zm-1215.85 695.42c-21.03,-17.23 -44.1,-28.49 -67.67,-38.32 -23.84,-9.14 -48.15,-16.76 -74.57,-18.4 21.02,17.26 44.09,28.53 67.7,38.32 23.84,9.07 48.15,16.73 74.54,18.4zm923.39 -1621.94c-21.02,-17.23 -44.09,-28.5 -67.66,-38.36 -23.81,-9.1 -48.15,-16.76 -74.54,-18.4 20.99,17.26 44.06,28.53 67.66,38.36 23.81,9.07 48.16,16.69 74.54,18.4zm-301.16 -540.56c-16.02,22.62 -26.5,47.46 -35.67,72.81 -8.47,25.61 -15.56,51.78 -17.11,80.16 16.09,-22.57 26.53,-47.42 35.67,-72.76 8.43,-25.65 15.55,-51.83 17.11,-80.21zm615.03 2105.78c-16.02,22.58 -26.49,47.43 -35.63,72.77 -8.5,25.6 -15.59,51.79 -17.11,80.16 16.05,-22.57 26.53,-47.42 35.63,-72.76 8.43,-25.65 15.56,-51.83 17.11,-80.17zm-906.53 -379.42c-16.06,22.6 -26.5,47.45 -35.67,72.79 -8.47,25.62 -15.59,51.8 -17.11,80.18 16.05,-22.58 26.53,-47.43 35.63,-72.78 8.43,-25.65 15.56,-51.82 17.15,-80.19zm333.76 -930.43c-16.02,22.61 -26.49,47.47 -35.67,72.8 -8.46,25.61 -15.59,51.75 -17.11,80.17 16.09,-22.61 26.53,-47.42 35.67,-72.77 8.43,-25.65 15.56,-51.82 17.11,-80.2zm-1089.45 1521.93c-16.02,22.62 -26.49,47.43 -35.67,72.76 -8.46,25.65 -15.59,51.8 -17.1,80.21 16.08,-22.61 26.52,-47.43 35.66,-72.81 8.43,-25.64 15.52,-51.78 17.11,-80.16zm-26.39 -1035.74c-16.01,22.61 -26.49,47.43 -35.66,72.81 -8.43,25.61 -15.6,51.74 -17.11,80.16 16.08,-22.61 26.53,-47.42 35.66,-72.8 8.4,-25.61 15.56,-51.79 17.11,-80.17zm307.2 -1150.16c-16.05,22.61 -26.49,47.46 -35.66,72.8 -8.47,25.61 -15.6,51.75 -17.11,80.17 16.08,-22.62 26.53,-47.43 35.66,-72.77 8.4,-25.64 15.52,-51.83 17.11,-80.2zm205.07 -130.82c26.21,-3.83 49.92,-13.39 73.06,-24.39 22.83,-11.65 45.09,-24.74 64.81,-43.67 -26.18,3.75 -49.92,13.35 -73.06,24.36 -22.83,11.72 -45.02,24.81 -64.81,43.7zm758.44 1834.17c26.17,-3.79 49.92,-13.39 73.06,-24.36 22.82,-11.68 45.08,-24.77 64.8,-43.66 -26.21,3.75 -49.91,13.35 -73.06,24.31 -22.79,11.72 -45.05,24.86 -64.8,43.71zm-855.98 849.38c13.65,-0.83 26.92,-2.04 40.57,-2.84 5.33,-2.47 10.23,-4.89 15.56,-7.36 22.71,-11.8 45.12,-24.85 64.8,-43.59 -26.18,3.68 -50.02,13.43 -73.17,24.43 -16.29,8.15 -32.59,17.53 -47.76,29.36zm-110.35 -1005.19c26.18,-3.8 49.92,-13.4 73.06,-24.36 22.82,-11.69 45.09,-24.78 64.81,-43.67 -26.22,3.72 -49.92,13.32 -73.06,24.32 -22.83,11.76 -45.05,24.81 -64.81,43.71zm207.89 -900.3c26.21,-3.84 49.92,-13.43 73.06,-24.36 22.83,-11.69 45.09,-24.77 64.84,-43.7 -26.21,3.75 -49.95,13.36 -73.09,24.36 -22.83,11.75 -45.02,24.81 -64.81,43.7zm984.32 130.01c3.57,28.16 12.49,53.69 22.69,78.58 10.86,24.55 23,48.49 40.6,69.69 -3.49,-28.18 -12.42,-53.72 -22.65,-78.57 -10.9,-24.55 -23.07,-48.45 -40.64,-69.7zm-679.02 1311.48c3.52,28.2 12.45,53.69 22.64,78.59 10.87,24.54 23.04,48.48 40.61,69.68 -3.49,-28.18 -12.42,-53.68 -22.61,-78.57 -10.91,-24.54 -23.11,-48.45 -40.64,-69.7zm-901.95 -402.07c3.53,28.18 12.45,53.68 22.65,78.61 10.86,24.54 23,48.45 40.6,69.69 -3.49,-28.19 -12.42,-53.72 -22.65,-78.57 -10.9,-24.54 -23.07,-48.45 -40.6,-69.73zm333.55 -722.67c3.56,28.19 12.49,53.69 22.65,78.57 10.86,24.55 23,48.5 40.64,69.7 -3.53,-28.19 -12.45,-53.68 -22.69,-78.57 -10.9,-24.51 -23.03,-48.41 -40.6,-69.7zm1058.83 1351.17c3.56,28.15 12.49,53.68 22.65,78.57 10.86,24.55 23.03,48.45 40.64,69.7 -3.5,-28.19 -12.42,-53.73 -22.65,-78.57 -10.9,-24.56 -23.07,-48.45 -40.64,-69.7zm-259.82 -1107.83c3.56,28.16 12.48,53.69 22.68,78.54 10.83,24.59 23,48.48 40.6,69.73 -3.49,-28.18 -12.41,-53.72 -22.64,-78.57 -10.9,-24.55 -23.08,-48.45 -40.64,-69.7zm-221.62 -948.36c10.23,24.85 19.16,50.38 22.65,78.57 -17.6,-21.24 -29.77,-45.15 -40.64,-69.69 -10.2,-24.89 -19.09,-50.43 -22.65,-78.57 17.57,21.24 29.74,45.14 40.64,69.69z"/>
  <path class="fil10" d="M10277.64 4581.52l-1.73 0.26c13.58,111.27 38.17,369.76 -125.76,366.03 -66.04,-1.51 -128.7,-41.15 -181.4,-80.65 -54.15,-40.56 -103.12,-88.63 -147.92,-140.61 -49.71,-57.69 -100.9,-118.25 -141.08,-184.11l-3.77 3.33c42.97,65.45 79.73,134.04 128.59,195.09 47.02,58.73 99.76,112.76 159.84,155.89 56.3,40.45 122.84,79.71 192.55,77.7 66.32,-1.86 111.65,-49.32 126.85,-116.39 19.97,-88.13 12.21,-189.05 -6.17,-276.54z"/>
  <polygon class="fil9" points="10552.91,7348.42 11739.34,7647.76 12357.5,5898.49 11171.05,5599.16 "/>
  <polygon class="fil7" points="10611.23,7363.11 11797.65,7662.48 12415.78,5913.22 11229.37,5613.84 "/>
  <path class="fil5" d="M11686.53 6598.48c-20.5,67.12 -88.83,108.5 -152.54,92.42 -63.75,-16.09 -98.78,-83.55 -78.25,-150.7 20.53,-67.11 88.83,-108.47 152.58,-92.41 63.75,16.07 98.74,83.54 78.21,150.69z"/>
  <path class="fil13" d="M9447.98 4757.36c-343.11,513.7 -1081.19,1686.89 -863.39,1957.96 358.03,445.68 1232.04,835.96 1505.87,924.21 118.18,38.05 541.19,-885.54 429.75,-961.46 -133.7,-91.13 -989.93,-452.84 -994.13,-497.46 -4.62,-48.97 155.72,-680.78 208.35,-1179.41 65.37,-618.94 -143.29,-458.19 -286.45,-243.84z"/>
  <path class="fil13" d="M10089.79 6613.38c0,0 360.11,-113.54 598.84,-175.92 133.21,-34.79 366.5,-72.54 475.22,-49.96 162.63,33.8 822.75,286.74 769.17,460.16 -48.51,156.99 -589.95,-137.76 -589.95,-137.76 0,0 570.79,245.47 480.09,422.99 -90.73,177.48 -661.32,-243.04 -661.32,-243.04 0,0 581.24,266.37 460.77,433.53 -91.06,126.27 -627.77,-223.27 -627.77,-223.27 0,0 498.09,232.68 409.68,366.87 -97.72,148.31 -612,-140.9 -612,-140.9 -278.16,300.48 -519.54,340.49 -702.06,313.45 -42.51,-6.34 -0.67,-1026.15 -0.67,-1026.15z"/>
  <path class="fil10" d="M11177.37 6623.93c433.24,146.26 604.06,360.8 598.45,356.1 -132.54,-111.27 -365.76,-232 -431.45,-264.66 -65.44,-32.59 -102.8,-56.15 -168.27,-88.82l1.27 -2.62z"/>
  <path class="fil10" d="M11036.82 6864.09c209.27,54.9 427.46,189.88 495.86,249.03 5.54,4.79 2.37,6.08 -4.02,2.66 -82.41,-43.98 -408.9,-210.07 -492.86,-249.57l1.02 -2.12z"/>
  <path class="fil10" d="M10902.8 7062.06c183.73,64.27 260,112.94 378.64,204.98 5.67,4.41 0.7,6.37 -5.65,2.77 -124.71,-70.68 -222.04,-127.09 -374.61,-202.78l1.62 -4.97z"/>
  <path class="fil12" d="M10256.83 6535.2l-482.04 1105.54c0,0 -1149.14,-665.94 -1235.92,-979.06 -86.75,-313.11 694.69,-1689.28 932.07,-1970.1 237.35,-280.76 314.47,-165.68 307.7,154.67 -6.74,320.36 -240.77,1318.81 -235.09,1337.47 5.68,18.67 713.28,351.48 713.28,351.48z"/>
  <path class="fil5" d="M8627.24 6318.52c17.82,12.68 37.15,22.05 56.87,30.21 23.88,8.95 48.15,16.69 74.68,18.31 -21.24,-17.11 -43.99,-28.52 -67.87,-38.32 -19.69,-7.35 -40.18,-14.26 -61.77,-16.72l-1.91 6.52zm571.5 -785.27c17.82,12.64 37.11,22.02 56.87,30.17 23.85,8.96 48.12,16.73 74.65,18.36 -21.21,-17.15 -43.96,-28.57 -67.84,-38.32 -19.72,-7.36 -40.18,-14.26 -61.81,-16.72l-1.87 6.51zm386.86 1533.7c-21.03,-17.23 -44.1,-28.49 -67.67,-38.32 -23.84,-9.14 -48.15,-16.76 -74.57,-18.4 21.02,17.26 44.09,28.53 67.7,38.32 23.84,9.07 48.15,16.73 74.54,18.4zm330.73 -436.14c-16.06,22.6 -26.5,47.45 -35.67,72.79 -8.47,25.62 -15.59,51.8 -17.11,80.18 16.05,-22.58 26.53,-47.43 35.63,-72.78 8.43,-25.65 15.56,-51.82 17.15,-80.19zm-767.12 609.6l8.57 6.26c1.38,-8.12 2.4,-16.24 2.76,-24.36 -4.13,5.91 -7.87,11.8 -11.33,18.1zm-403.44 -645.16c-16.01,22.62 -26.49,47.43 -35.66,72.77 -8.47,25.61 -15.59,51.79 -17.11,80.16 16.09,-22.57 26.53,-47.42 35.66,-72.77 8.4,-25.64 15.53,-51.78 17.11,-80.16zm388.48 -408.68c-16.01,22.61 -26.49,47.43 -35.66,72.81 -8.43,25.61 -15.6,51.74 -17.11,80.16 16.08,-22.61 26.53,-47.42 35.66,-72.8 8.4,-25.61 15.56,-51.79 17.11,-80.17zm307.2 -1150.16c-16.05,22.61 -26.49,47.46 -35.66,72.8 -8.47,25.61 -15.6,51.75 -17.11,80.17 16.08,-22.62 26.53,-47.43 35.66,-72.77 8.4,-25.64 15.52,-51.83 17.11,-80.2zm205.07 -130.82c26.21,-3.83 49.92,-13.39 73.06,-24.39 22.83,-11.65 45.09,-24.74 64.81,-43.67 -26.18,3.75 -49.92,13.35 -73.06,24.36 -22.83,11.72 -45.02,24.81 -64.81,43.7zm-24.69 2643.3c6.17,3.68 11.64,7.37 17.46,10.7 10.65,-7.4 20.92,-15.14 30.52,-24.32 -16.8,2.2 -32.57,7.36 -47.98,13.62zm-183.2 -964.94c26.18,-3.8 49.92,-13.4 73.06,-24.36 22.82,-11.69 45.09,-24.78 64.81,-43.67 -26.22,3.72 -49.92,13.32 -73.06,24.32 -22.83,11.76 -45.05,24.81 -64.81,43.71zm513.26 541.09c3.07,24.31 9.94,46.43 18.16,67.79l10.27 -23.56c-7.87,-15.52 -17.11,-30.23 -28.43,-44.23zm-902.02 -401.97c3.53,28.18 12.45,53.68 22.65,78.61 10.86,24.54 23,48.45 40.6,69.69 -3.49,-28.19 -12.42,-53.72 -22.65,-78.57 -10.9,-24.54 -23.07,-48.45 -40.6,-69.73zm-168.91 -909.41c3.56,28.16 12.49,53.69 22.65,78.58 10.86,24.55 23.03,48.44 40.64,69.69 -3.5,-28.18 -12.42,-53.72 -22.65,-78.57 -10.9,-24.51 -23.07,-48.45 -40.64,-69.7zm543.06 256.44c10.24,24.89 19.16,50.38 22.69,78.57 -17.64,-21.2 -29.78,-45.15 -40.64,-69.7 -10.16,-24.88 -19.09,-50.38 -22.65,-78.57 17.57,21.29 29.7,45.19 40.6,69.7z"/>
  <path class="fil10" d="M9629.02 5712.1c15.63,-74.85 30.84,-149.82 45.55,-224.9 7.65,-39 15.17,-78.04 23.32,-116.93 3.77,-17.91 7.4,-35.86 11.18,-53.76 1.87,-8.87 4.59,-17.83 5.93,-26.78 5.04,-33.02 0.53,-3.76 8.36,-35.55l3.45 0.57c-2.01,20.68 1.98,12.44 -1.72,28.08 -2.83,11.72 -4.06,23.47 -5.68,35.43 -2.51,18.13 -5.26,36.27 -7.94,54.36 -5.47,37.15 -11.75,74.1 -18.28,111.05 -0.84,4.86 -1.83,9.72 -2.68,14.57l1.2 -4.03c12.77,-40.06 25.97,-79.93 39.09,-119.84l2.61 0.84c-8.82,41.42 -18.98,82.05 -31.4,122.38 -7.16,23.3 -15.62,46.06 -24.2,68.79 -9.03,49.28 -17.85,98.68 -27.51,147.8 -29.92,152.33 -60.75,305.49 -101.92,454.82 60.11,29.52 121.57,56.12 181.64,85.86 60.29,29.9 120.2,60.67 180.13,91.29 59.9,30.57 119.95,61 179.32,92.72 28.33,15.13 56.41,30.88 84.63,46.28 30.66,16.81 59.73,37.41 90.63,53.43l-2.86 4.96c-32.21,-15.98 -66.5,-27.43 -99.13,-42.65 -28.61,-13.39 -57.36,-26.43 -85.86,-40.17 -60.61,-29.22 -120.8,-59.56 -180.94,-89.81 -60.15,-30.23 -120.34,-60.32 -180.13,-91.28 -59.66,-30.92 -117.87,-65.02 -177.38,-96.06l-3.74 -4.74c-2.33,-1.89 -4.06,-4.62 -3.31,-8.57 29.66,-153.35 65.82,-305.3 97.64,-458.16z"/>
  <path class="fil10" d="M9777.61 6971.34c35.88,-80.08 181.54,-399.38 223.35,-475.67l2.26 0.97c-26.64,81.23 -161.79,400.8 -197.6,481.16 -71.4,160.02 -140.08,322.66 -227.54,473.59l-4.97 -2.16c58.1,-163.98 133.77,-320.02 204.5,-477.89z"/>
  <path class="fil10" d="M8947.77 7093.92c26.32,16.24 51.19,36.2 76.06,54.86 25.93,19.39 52,38.59 77.97,57.94 50.94,38.09 102.02,77.5 156.14,110.13l-2.86 4.97c-54.89,-33.91 -110.77,-65.25 -164.04,-102.27 -50.7,-35.29 -104.25,-74.67 -146.16,-121.8l2.89 -3.83z"/>
  <path class="fil13" d="M10151.28 4828.19c-116.46,21.06 -326.04,-198.76 -394.44,-357 -4.63,-10.89 17.03,-120.23 37.53,-254.39 12.17,-81.49 23.92,-172.54 29.03,-256.42l481.51 162.48c0,0 -58.88,172.48 -66.99,318.81 -0.57,12.22 -0.14,23.68 1.23,34.68l0.39 5.72c5.89,66.13 24.31,325.71 -88.26,346.12z"/>
  <path class="fil10" d="M10239.08 4476.43l0.36 5.49c-15.42,1.49 -32.21,1.11 -50.42,-0.37 -282.71,-26.9 -326.6,-404.33 -333.09,-510.1l120.3 40.53 328.65 110.96c0,0 -58.95,172.51 -66.82,318.8 -0.67,12.19 -0.35,23.61 1.02,34.69z"/>
  <path class="fil10" d="M10327.14 3108.38c0,0 174.34,46.96 229.3,221.49 54.93,174.51 42.97,368.72 29.85,380.22 -13.16,11.5 -259.15,-601.71 -259.15,-601.71z"/>
  <path class="fil13" d="M9734.58 3451.88c-30.87,192.65 123.11,716.21 259.85,819.03 198.23,149.1 491.39,126.11 601.21,-122.43 106.5,-240.88 -105.45,-919.38 -255.24,-1009.33 -220.63,-132.56 -560.25,28.14 -605.82,312.73z"/>
  <path class="fil10" d="M10266.07 3733.11l-1.62 3.99c11.25,34.98 18.66,77.06 -7.66,98.72l0.85 1.9c34.68,-17.65 24.3,-73.42 8.43,-104.61z"/>
  <path class="fil10" d="M10226.07 3706.07c-54.05,13.35 -25.26,128.65 24.83,116.28 49.32,-12.18 20.5,-127.51 -24.83,-116.28z"/>
  <path class="fil10" d="M10452.87 3672l3.31 2.43c7.9,36 22.54,75.84 55.53,79.02l0.25 2.09c-38.07,5.05 -57.01,-48.06 -59.09,-83.54z"/>
  <path class="fil10" d="M10473.19 3626.13c52.35,-19.8 85.3,94.21 36.83,112.57 -47.7,18.05 -80.68,-95.99 -36.83,-112.57z"/>
  <path class="fil10" d="M10170.61 3665.54c13.62,-8.15 24.9,-18.13 37.57,-27.69 14.32,-10.85 26.78,-17.86 33.34,-36.16 3.52,-9.81 -2.47,-23.86 -11.01,-28.45 -19.93,-10.69 -40.53,-2.12 -58.24,10.13 -19.27,13.28 -30.91,28.83 -38,52.17 -6.88,22.62 18.38,40.78 36.34,30z"/>
  <path class="fil10" d="M10500.14 3556.1c-15.49,1.66 -30.06,0.45 -45.58,0.42 -17.5,-0.05 -31.43,1.86 -46.53,-9.11 -8.15,-5.89 -10.73,-21.09 -6.14,-30.13 10.62,-21.01 32.07,-26.67 53.13,-27.54 22.82,-0.94 40.67,4.63 58.91,19.38 17.68,14.3 6.67,44.74 -13.79,46.98z"/>
  <path class="fil10" d="M10302.02 4063.68c10.05,6.04 20.85,15.25 33.19,12.87 11.82,-2.28 23.96,-11.8 33.45,-19.28l1.9 1.4c-5.18,16.21 -21.2,30.02 -37.32,31.57 -15.73,1.52 -26.64,-10.32 -34.01,-24.02l2.79 -2.54z"/>
  <path class="fil10" d="M10310.2 3946.64c26.36,25.61 57.93,34.68 89.01,32.29 13.93,-0.95 27.94,-4.48 41.17,-9.76l7.55 -3.18 6.98 -3.3c3.74,-1.74 5.01,-5.81 4.66,-9.94l-0.07 -0.27 -1.24 -3.57 -0.07 -0.26 -0.84 -3.11c-6.14,-27.7 -19.09,-68.82 -19.09,-68.82 10.62,2.35 63.99,11.64 59.66,-2.54 -36.31,-117.01 -76.7,-247.18 -135.82,-355.38 -1.8,-3.72 -7.17,-1.17 -5.86,2.66 30.76,113.96 79.97,221.33 112.57,335.3 -16.76,-1.82 -44.41,-6.19 -57.75,-2 -3.35,2.16 26.32,78.95 28.19,91.66l0.1 1.36c-41.48,18.33 -77.36,13.74 -126.85,-5.28l-2.3 4.14z"/>
  <path class="fil10" d="M10421.82 3959.58c0,0 -14.46,39.46 -42.51,60.32 -10.33,7.7 -22.22,13.01 -36.05,13.05 -28.4,0.16 -35.63,-25.84 -36.34,-49.62 -0.67,-19.58 3.32,-37.71 3.32,-37.71 0,0 48.47,27.8 111.58,13.96z"/>
  <path class="fil15" d="M10379.31 4019.9c-10.33,7.7 -22.22,13.01 -36.05,13.05 -28.4,0.16 -35.63,-25.84 -36.34,-49.62 29.21,-5.09 62.55,7.55 72.39,36.57z"/>
  <path class="fil10" d="M9850.32 3945.58c58.7,-1.79 65.87,-196.11 62.37,-268.54 -3.1,-63.85 -43.64,-255.17 -45.01,-268.72 -1.38,-13.54 283.38,79.34 404.25,-11.6 120.86,-90.91 169.79,-252.95 152.64,-313.99 -17.18,-61.09 -231.88,-153.89 -378.39,-109.34 -146.58,44.53 -279.68,312.38 -279.68,312.38 0,0 39.51,-109.19 35.07,-115.33 -4.45,-6.15 -84.95,67.69 -79.69,145.23 0,0 -9.71,-96.21 -17.26,-95.34 -7.58,0.87 -55.81,103.88 -21.23,156.05 0,0 -59.16,108.35 -40.04,196.63 19.12,88.25 137.97,374.7 206.97,372.57z"/>
  <path class="fil10" d="M10357.76 3331.95c-34.43,34.98 -68.3,72.05 -111.37,94.81 -46.54,24.62 -101.22,29.81 -152.4,27.62 -52.39,-2.24 -103.26,-14.6 -152.19,-34.6 -42.87,-17.49 -83.89,-42.5 -128.03,-55.92 -11,-3.38 -17.04,14.26 -8.75,21.17 81.96,67.94 201.19,106.23 303.89,104.1 108.02,-2.2 192.37,-58.96 249.69,-156.23l-0.84 -0.95z"/>
  <path class="fil13" d="M9892.34 3874.18c0,0 -135.93,-155.1 -202.99,-100.5 -67.03,54.63 51.65,291.79 141.92,312.58 90.28,20.75 109.82,-68.75 109.82,-68.75l-48.75 -143.33z"/>
  <path class="fil10" d="M9724.94 3840.75l-0.1 2.54c63.6,16.66 103.36,71.56 133.95,130.13 -21.1,-21.06 -47.2,-30.3 -73.84,-2.81l2.08 3.23c23.85,-9.56 42.2,-7.77 61.7,10.82 13.8,13.12 24.42,30.8 35.25,46.77 3.56,5.36 12.84,0.72 9.87,-5.57l-0.67 -1.44c-9.73,-82.56 -84.91,-188.33 -168.24,-183.67z"/>
  <path class="fil5" d="M10241.41 4473.01l-119.41 309.47 -355.04 -397.79 -103.12 124.93c0,0 344.74,629.3 347.24,601.11l121.99 -266.52 170.01 188.55 -9 -468.24 -52.67 -91.51z"/>
  <path class="fil10" d="M10310.8 4801.07c-3.91,-77.25 -5.82,-155.21 -13.02,-232.16l-4.86 -0.79c-15.21,74.37 1.16,369.73 0.1,440.44l-0.77 -0.8c-7.06,-8.15 -157.62,-166.02 -159.18,-163.55 -26.31,42.22 -115.81,236.28 -121.95,253.96 -54.51,-99.93 -263.67,-463.43 -328.44,-558.12l-4.34 2.61c47.98,105.44 324.63,594.89 329,593.6 2.93,2.47 114.13,-236.55 127.57,-281.82 25.43,34.34 177.2,212.24 177.83,200.75 4.38,-77.4 1.94,-176.81 -1.94,-254.12z"/>
  <path class="fil16" d="M17217.58 3890c-35.35,0 -69.67,-4.86 -102.34,-14l-273.47 -587.23c60.46,-159.3 205.95,-271.52 375.81,-271.52 224.12,0 405.8,195.34 405.8,436.37 0,241.03 -181.68,436.38 -405.8,436.38zm-112.99 -17.11c-169.12,-52.67 -292.77,-220.43 -292.77,-419.27 0,-54.14 9.17,-105.97 25.93,-153.8l266.84 573.07z"/>
  <path class="fil17" d="M17115.24 3876c-3.6,-0.99 -7.13,-2.05 -10.65,-3.11l-266.84 -573.07c1.3,-3.72 2.64,-7.4 4.02,-11.05l273.47 587.23z"/>
  <path class="fil11" d="M17486.33 3453.62c0,159.61 -120.33,288.95 -268.75,288.95 -148.38,0 -268.67,-129.34 -268.67,-288.95 0,-159.61 120.29,-288.98 268.67,-288.98 148.42,0 268.75,129.37 268.75,288.98z"/>
  <path class="fil16" d="M13336.74 10442.59l-438.18 0c-8.79,-6.03 -17.32,-12.49 -25.61,-19.24l362.3 -765.91c56.13,18.24 107.1,49.2 150.04,89.76l-6.42 661.97c-13.34,12.09 -27.42,23.25 -42.13,33.42zm-470.43 -24.73c-94.08,-79.94 -154.44,-203.7 -154.44,-342.64 0,-241.03 181.68,-436.37 405.8,-436.37 37.96,0 74.72,5.61 109.57,16.09l-360.93 762.92z"/>
  <path class="fil17" d="M13117.67 10511.63c-80.72,0 -155.93,-25.33 -219.11,-69.04l438.18 0c-63.18,43.71 -138.39,69.04 -219.07,69.04z"/>
  <path class="fil17" d="M12872.95 10423.35c-2.23,-1.82 -4.45,-3.63 -6.64,-5.49l360.93 -762.92c2.68,0.79 5.36,1.62 8.01,2.5l-362.3 765.91z"/>
  <path class="fil16" d="M13387.12 10401.5l6.28 -646.44c79.94,79.7 130.03,193.63 130.03,320.16 0,129.75 -52.7,246.31 -136.31,326.28z"/>
  <path class="fil17" d="M13378.87 10409.17l6.42 -661.97c2.71,2.58 5.43,5.2 8.11,7.86l-6.28 646.44c-2.72,2.58 -5.47,5.16 -8.25,7.67z"/>
  <path class="fil11" d="M13386.34 10075.22c0,159.62 -120.29,288.99 -268.67,288.99 -148.41,0 -268.75,-129.37 -268.75,-288.99 0,-159.56 120.34,-288.94 268.75,-288.94 148.38,0 268.67,129.38 268.67,288.94z"/>
  <path class="fil16" d="M13508.93 3671.77c-97.93,0 -190.07,-26.6 -270.58,-73.48 139.85,-175.32 101.6,-283.87 36.94,-283.87 -6.17,0 -12.56,0.99 -19.09,2.96 -28.64,8.88 -103.43,51.83 -199.74,113.56 -73.13,-102.98 -116.59,-231.62 -116.59,-371.17 0,-338 254.77,-611.99 569.06,-611.99 314.29,0 569.07,273.99 569.07,611.99 0,338 -254.78,612 -569.07,612z"/>
  <path class="fil18" d="M13238.35 3598.29c-71.12,-41.4 -133.13,-98.64 -181.89,-167.35 96.31,-61.73 171.1,-104.68 199.74,-113.56 6.53,-1.97 12.92,-2.96 19.09,-2.96 64.66,0 102.91,108.55 -36.94,283.87z"/>
  <path class="fil11" d="M13885.74 3059.77c0,223.81 -168.7,405.24 -376.81,405.24 -208.1,0 -376.8,-181.43 -376.8,-405.24 0,-223.8 168.7,-405.23 376.8,-405.23 208.11,0 376.81,181.43 376.81,405.23z"/>
  <path class="fil16" d="M10343.43 12566.16c-78.42,0 -153.14,-17.07 -221.12,-47.91 6.04,-315.17 11.26,-618.04 14.64,-876.67l318.21 249.15c-15.84,209.43 -33.34,437.82 -51.47,672.05 -19.79,2.24 -39.9,3.38 -60.26,3.38zm112.47 -685.72l-318.81 -249.64c1.13,-88.51 2.09,-171.7 2.76,-248.31 63.21,-26.02 131.86,-40.33 203.58,-40.33 52.18,0 102.73,7.55 150.75,21.71 -10.73,149.06 -23.78,324.76 -38.28,516.57z"/>
  <path class="fil17" d="M10455.16 11890.73l-318.21 -249.15c0.04,-3.53 0.07,-7.28 0.14,-10.78l318.81 249.64c-0.25,3.42 -0.49,6.88 -0.74,10.29z"/>
  <path class="fil19" d="M10403.69 12562.78c18.13,-234.23 35.63,-462.62 51.47,-672.05 0.25,-3.41 0.49,-6.87 0.74,-10.29 14.5,-191.81 27.55,-367.51 38.28,-516.57 112.46,33.15 210.99,102.43 284.16,195.58 -10.27,111.88 -20.96,223.68 -30.55,335.45 -15.35,178.24 -30.69,356.48 -46.04,534.72 -83.15,72.58 -185.74,120.42 -298.06,133.16zm340.01 -173.6c22.75,-260.88 45.47,-521.78 68.15,-782.62 63.47,98.72 100.65,218.5 100.65,347.61 0,170.15 -64.56,324.07 -168.8,435.01z"/>
  <path class="fil20" d="M10701.75 12429.62c15.35,-178.24 30.69,-356.48 46.04,-534.72 9.59,-111.77 20.28,-223.57 30.55,-335.45 11.85,15.1 23.04,30.84 33.51,47.11 -22.68,260.84 -45.4,521.74 -68.15,782.62 -13.34,14.19 -27.34,27.68 -41.95,40.44z"/>
  <path class="fil19" d="M10122.31 12518.25c-204.43,-92.8 -347.94,-310.43 -347.94,-564.08 0,-260.87 151.73,-483.58 365.48,-571.68 -0.67,76.61 -1.63,159.8 -2.76,248.31 -0.07,3.5 -0.1,7.25 -0.14,10.78 -3.38,258.63 -8.6,561.5 -14.64,876.67z"/>
  <path class="fil11" d="M10720.24 11954.17c0,223.8 -168.7,405.22 -376.81,405.22 -208.1,0 -376.83,-181.42 -376.83,-405.22 0,-223.81 168.73,-405.24 376.83,-405.24 208.11,0 376.81,181.43 376.81,405.24z"/>
  <path class="fil16" d="M7982.11 8555.07c-92.29,0 -177.38,-33.11 -245.55,-88.93l32.84 -719.17c61.84,-41.01 134.7,-64.68 212.71,-64.68 224.11,0 405.77,195.38 405.77,436.37 0,241.03 -181.66,436.41 -405.77,436.41zm-253.48 -95.56c-92.84,-80.01 -152.3,-202.94 -152.3,-340.85 0,-153.23 73.45,-288.03 184.56,-365.88l-32.26 706.73z"/>
  <path class="fil17" d="M7736.56 8466.14c-2.68,-2.19 -5.31,-4.4 -7.93,-6.63l32.26 -706.73c2.81,-1.98 5.65,-3.91 8.51,-5.81l-32.84 719.17z"/>
  <path class="fil11" d="M8250.79 8118.66c0,159.61 -120.29,288.98 -268.68,288.98 -148.4,0 -268.7,-129.37 -268.7,-288.98 0,-159.57 120.3,-288.94 268.7,-288.94 148.39,0 268.68,129.37 268.68,288.94z"/>
  <path class="fil16" d="M7899.36 2788.74c-224.1,0 -405.78,-195.39 -405.78,-436.42 0,-240.98 181.68,-436.38 405.78,-436.38 224.11,0 405.79,195.4 405.79,436.38 0,241.03 -181.68,436.42 -405.79,436.42z"/>
  <path class="fil11" d="M8168.06 2352.32c0,159.58 -120.3,288.95 -268.7,288.95 -148.4,0 -268.68,-129.37 -268.68,-288.95 0,-159.57 120.28,-288.95 268.68,-288.95 148.4,0 268.7,129.38 268.7,288.95z"/>
  <path class="fil16" d="M16948.52 9694.92c-56.66,0 -109.93,-15.71 -156.25,-43.28l394.8 -537.98c52.38,61.73 84.35,143.86 84.35,234.04 0,191.79 -144.57,347.22 -322.9,347.22zm-163.41 -47.68c-95.43,-60.34 -159.45,-171.91 -159.45,-299.54 0,-57.33 12.91,-111.39 35.77,-159.04l373.62 -175.58c56.52,16.84 106.83,49.85 146.34,94.09l-396.28 540.07z"/>
  <path class="fil17" d="M16792.27 9651.64c-2.4,-1.45 -4.8,-2.93 -7.16,-4.4l396.28 -540.07c1.94,2.16 3.81,4.28 5.68,6.49l-394.8 537.98z"/>
  <path class="fil16" d="M16667.81 9176.03c55.57,-104.86 160.48,-175.54 280.71,-175.54 25.29,0 49.92,3.11 73.55,9.02l-354.26 166.52z"/>
  <path class="fil17" d="M16661.43 9188.66c2.04,-4.28 4.16,-8.46 6.38,-12.63l354.26 -166.52c4.34,1.1 8.68,2.28 12.98,3.57l-373.62 175.58z"/>
  <path class="fil11" d="M17162.34 9347.7c0,127.02 -95.75,229.96 -213.82,229.96 -118.08,0 -213.79,-102.94 -213.79,-229.96 0,-126.98 95.71,-229.95 213.79,-229.95 118.07,0 213.82,102.97 213.82,229.95z"/>
  <path class="fil16" d="M6802.47 4077c-118.09,0 -213.82,-102.93 -213.82,-229.91 0,-126.99 95.73,-229.91 213.82,-229.91 118.07,0 213.79,102.92 213.79,229.91 0,126.98 -95.72,229.91 -213.79,229.91z"/>
  <path class="fil11" d="M6944.02 3847.09c0,84.07 -63.37,152.25 -141.56,152.25 -78.18,0 -141.56,-68.18 -141.56,-152.25 0,-84.08 63.38,-152.25 141.56,-152.25 78.19,0 141.56,68.17 141.56,152.25z"/>
  <path class="fil16" d="M16609.11 7455.03c-80.22,-33.12 -137.16,-116.78 -137.16,-214.7 0,-103.23 63.25,-190.61 150.35,-219.67l45.72 283.45c-41.8,9.83 -73.09,49.85 -73.09,97.77 0,19.54 5.18,37.74 14.18,53.15zm126.15 -139.31c-13.86,-8.84 -30.05,-13.89 -47.3,-13.89 -4.03,0 -7.98,0.27 -11.86,0.79l-45.86 -284.42c17.71,-5.09 36.3,-7.82 55.49,-7.82 72.46,0 136.49,38.77 175.16,98.04l-125.63 207.3z"/>
  <path class="fil17" d="M16685.73 7470.24c-5.36,0 -10.69,-0.22 -15.98,-0.64l18.84 -56.65 26.32 55.17c-9.56,1.4 -19.26,2.12 -29.18,2.12zm-24.41 -1.47c-18.2,-2.25 -35.66,-6.91 -52.21,-13.74 -9,-15.41 -14.18,-33.61 -14.18,-53.15 0,-47.92 31.29,-87.94 73.09,-97.77l15.6 96.82 -0.43 0.68 0.29 0.57 -22.16 66.59zm28.89 -78.74l-14.11 -87.41c3.88,-0.52 7.83,-0.79 11.86,-0.79 17.25,0 33.44,5.05 47.3,13.89l-45.05 74.31z"/>
  <path class="fil17" d="M16669.75 7469.6c-2.82,-0.23 -5.64,-0.5 -8.43,-0.83l22.16 -66.59 5.11 10.77 -18.84 56.65zm13.87 -68.67l-15.6 -96.82 -45.72 -283.45c2.65,-0.87 5.3,-1.71 7.94,-2.46l45.86 284.42 14.11 87.41 -5.71 9.42 -0.88 1.48z"/>
  <path class="fil16" d="M16768.18 7452.53c8.11,-14.87 12.77,-32.18 12.77,-50.65 0,-33.5 -15.31,-63.18 -38.84,-81.34l123.75 -204.15c21.31,35.77 33.69,78.3 33.69,123.94 0,95.53 -54.22,177.48 -131.37,212.2z"/>
  <path class="fil17" d="M16723.45 7466.68l-30.8 -64.54 49.46 -81.6c23.53,18.16 38.84,47.84 38.84,81.34 0,18.47 -4.66,35.78 -12.77,50.65 -14.18,6.37 -29.18,11.15 -44.73,14.15z"/>
  <path class="fil17" d="M16714.91 7468.12l-26.32 -55.17 -5.11 -10.77 -0.29 -0.57 0.43 -0.68 0.88 -1.48 5.71 -9.42 45.05 -74.31 125.63 -207.3c1.73,2.61 3.35,5.27 4.97,7.97l-123.75 204.15 -49.46 81.6 30.8 64.54c-2.83,0.53 -5.68,1.02 -8.54,1.44z"/>
  <path class="fil11" d="M16827.3 7240.33c0,84.04 -63.39,152.21 -141.57,152.21 -78.21,0 -141.57,-68.17 -141.57,-152.21 0,-84.11 63.36,-152.29 141.57,-152.29 78.18,0 141.57,68.18 141.57,152.29z"/>
  <path class="fil16" d="M14078 7776.8c-118.07,0 -213.78,-102.93 -213.78,-229.92 0,-127.02 95.71,-229.95 213.78,-229.95 118.08,0 213.82,102.93 213.82,229.95 0,126.99 -95.74,229.92 -213.82,229.92z"/>
  <path class="fil11" d="M14219.57 7546.88c0,84.08 -63.39,152.22 -141.57,152.22 -78.21,0 -141.53,-68.14 -141.53,-152.22 0,-84.11 63.32,-152.29 141.53,-152.29 78.18,0 141.57,68.18 141.57,152.29z"/>
  <path class="fil16" d="M7644.29 10618.33c-118.08,0 -213.81,-102.98 -213.81,-229.92 0,-127.02 95.73,-229.95 213.81,-229.95 118.08,0 213.8,102.93 213.8,229.95 0,126.94 -95.72,229.92 -213.8,229.92z"/>
  <path class="fil11" d="M7785.85 10388.41c0,84.03 -63.37,152.22 -141.56,152.22 -78.19,0 -141.58,-68.19 -141.58,-152.22 0,-84.11 63.39,-152.25 141.58,-152.25 78.19,0 141.56,68.14 141.56,152.25z"/>
  <path class="fil16" d="M12010.03 1629.31c-77.26,0 -144.96,-44.05 -182.53,-110.09l380.93 -33.96c-31.64,84.45 -108.55,144.05 -198.4,144.05zm-187.12 -118.52c-17,-33.01 -26.7,-70.98 -26.7,-111.35 0,-127.02 95.71,-229.95 213.82,-229.95 118.07,0 213.78,102.93 213.78,229.95 0,26.91 -4.3,52.69 -12.17,76.71l-388.73 34.64z"/>
  <path class="fil17" d="M11827.5 1519.22c-1.59,-2.77 -3.1,-5.58 -4.59,-8.43l388.73 -34.64c-1.02,3.07 -2.08,6.11 -3.21,9.11l-380.93 33.96z"/>
  <path class="fil11" d="M12151.56 1399.44c0,84.03 -63.36,152.22 -141.53,152.22 -78.21,0 -141.61,-68.19 -141.61,-152.22 0,-84.11 63.4,-152.28 141.61,-152.28 78.17,0 141.53,68.17 141.53,152.28z"/>
  <path class="fil16" d="M13936.47 561.63c-118.11,0 -213.82,-102.97 -213.82,-229.91 0,-126.98 95.71,-229.95 213.82,-229.95 118.04,0 213.74,102.97 213.74,229.95 0,126.94 -95.7,229.91 -213.74,229.91z"/>
  <path class="fil11" d="M14078 331.72c0,84.08 -63.39,152.22 -141.53,152.22 -78.21,0 -141.61,-68.14 -141.61,-152.22 0,-84.07 63.4,-152.25 141.61,-152.25 78.14,0 141.53,68.18 141.53,152.25z"/>
  <path class="fil11" d="M15880.52 4264.5c0,59.45 -44.84,107.66 -100.12,107.66 -55.24,0 -100.08,-48.21 -100.08,-107.66 0,-59.46 44.84,-107.64 100.08,-107.64 55.28,0 100.12,48.18 100.12,107.64z"/>
  <path class="fil11" d="M9076.5 10388.41c0,59.42 -44.8,107.64 -100.08,107.64 -55.28,0 -100.08,-48.22 -100.08,-107.64 0,-59.48 44.8,-107.67 100.08,-107.67 55.28,0 100.08,48.19 100.08,107.67z"/>
  <path class="fil11" d="M8976.42 1399.44c0,59.42 -44.84,107.64 -100.08,107.64 -55.32,0 -100.12,-48.22 -100.12,-107.64 0,-59.49 44.8,-107.68 100.12,-107.68 55.24,0 100.08,48.19 100.08,107.68z"/>
  <path class="fil11" d="M7644.29 5402.55c0,59.45 -44.82,107.68 -100.11,107.68 -55.28,0 -100.11,-48.23 -100.11,-107.68 0,-59.45 44.83,-107.67 100.11,-107.67 55.29,0 100.11,48.22 100.11,107.67z"/>
  <path class="fil11" d="M18322.73 6461.21c0,59.45 -44.77,107.67 -100.05,107.67 -55.31,0 -100.12,-48.22 -100.12,-107.67 0,-59.45 44.81,-107.63 100.12,-107.63 55.28,0 100.05,48.18 100.05,107.63z"/>
  <path class="fil11" d="M9945.57 7020.59c0,59.45 -44.84,107.63 -100.12,107.63 -55.28,0 -100.08,-48.18 -100.08,-107.63 0,-59.45 44.8,-107.67 100.08,-107.67 55.28,0 100.12,48.22 100.12,107.67z"/>
  <path class="fil11" d="M6387.97 7475.36c0,59.45 -44.83,107.67 -100.12,107.67 -55.28,0 -100.1,-48.22 -100.1,-107.67 0,-59.45 44.82,-107.63 100.1,-107.63 55.29,0 100.12,48.18 100.12,107.63z"/>
  <path class="fil11" d="M15980.64 11460.5c0,59.49 -44.84,107.67 -100.12,107.67 -55.28,0 -100.12,-48.18 -100.12,-107.67 0,-59.41 44.84,-107.6 100.12,-107.6 55.28,0 100.12,48.19 100.12,107.6z"/>
  <path class="fil11" d="M12359.06 8824.56c0,59.41 -44.84,107.64 -100.11,107.64 -55.28,0 -100.12,-48.23 -100.12,-107.64 0,-59.45 44.84,-107.68 100.12,-107.68 55.27,0 100.11,48.23 100.11,107.68z"/>
  <path class="fil11" d="M12157.7 12826.19c0,59.42 -44.84,107.6 -100.12,107.6 -55.28,0 -100.12,-48.18 -100.12,-107.6 0,-59.48 44.84,-107.66 100.12,-107.66 55.28,0 100.12,48.18 100.12,107.66z"/>
  <path class="fil11" d="M11189.29 3345.99c0,59.49 -44.84,107.63 -100.12,107.63 -55.28,0 -100.12,-48.14 -100.12,-107.63 0,-59.45 44.84,-107.63 100.12,-107.63 55.28,0 100.12,48.18 100.12,107.63z"/>
  <path class="fil11" d="M11221.15 51.53c0,59.45 -44.84,107.64 -100.12,107.64 -55.28,0 -100.09,-48.19 -100.09,-107.64 0,-59.48 44.81,-107.66 100.09,-107.66 55.28,0 100.12,48.18 100.12,107.66z"/>
  <path class="fil11" d="M15831.24 1736.99c0,59.45 -44.84,107.67 -100.12,107.67 -55.32,0 -100.12,-48.22 -100.12,-107.67 0,-59.45 44.8,-107.63 100.12,-107.63 55.28,0 100.12,48.18 100.12,107.63z"/>
  <path class="fil11" d="M6292.55 7473.74l2687.01 2911.34 1364.58 1562.98 2772.72 -1877.5 3828.66 -727.1 1272.4 -2882.48 -1004.18 -3004.81 -1483.54 -1713.23 -2222.11 1322.71 -2.33 -2.58 -1498.91 -1660.36 -887.13 -1344.95 -2241.27 1345.82 -976.13 952.27 -1095.68 1493.17 -514.09 3624.72zm4050.14 4486.53l-2.5 -2.84 -1366.98 -1565.75 -2690.04 -2914.64 0.31 -2.4 514.8 -3629.53 0.71 -0.98 1096.91 -1494.73 977.44 -953.49 2248.99 -1350.59 2.3 3.48 889 1347.87 1496.12 1657.18 2222.25 -1322.82 2.33 2.73 1487.41 1718.27 1005.67 3009.45 -0.74 1.78 -1275.15 2888.69 -2.23 0.42 -3830.03 727.37 -2776.57 1880.53z"/>
  <path class="fil11" d="M11689.53 2087.35l4063.53 1000.72 -26.28 -1346.72 -3714.18 -336.94 -323.07 682.94zm-4.13 8.73l-588.61 1244.25 2411.65 -285.26 2248.61 238.72 -3.81 -195.93 -4067.84 -1001.78zm4080.5 1198.65l1382.96 146.82 -1386.73 -341.48 3.77 194.66zm-2645.37 6776.7l2758.08 1382.88 1065.36 -2107.48 -262.01 -2101.3 -2611.97 307.04 4.17 -8 1701.8 -3281.25 -18.7 -960.02 -2248.78 -238.82 -2426.96 287.2 3.7 -7.85 591.33 -1249.92 -2797.43 -688.93 -1330.4 3997.99 437.61 2714.25 989.03 2257.61 867.48 -3361.94 5.12 3.83 2414.51 1805.03 858.06 1249.68zm2761.89 1395.29l-3.77 -1.9 -2763.91 -1385.84 -0.67 -0.95 -858.26 -1250.02 -2407.78 -1799.72 -870.55 3373.67 -5.05 -11.54 -994.67 -2270.92 -438.14 -2717.37 0.4 -1.17 1333.46 -4007.09 3.81 0.9 2803.38 690.42 326.75 -690.75 2.96 0.25 3725.08 337.93 0.07 4.25 26.38 1353.41 1456.69 358.71 -1.44 9.34 -1451.08 -154.08 18.77 961.42 -0.6 1.14 -1698.21 3274.35 2603.5 -306.06 0.57 4.59 262.96 2108.89 -0.67 1.39 -1069.98 2116.75z"/>
  <polygon class="fil11" points="15728.51,1740.82 13933.82,335.55 13939.01,327.89 15733.69,1733.16 "/>
  <path class="fil11" d="M11125.37 56.74l-17.01 1761.32 899.9 -422.98 1912.72 -1060.14 -2795.61 -278.2zm-2242.54 1354.54l231.7 1343.88 844.69 -397 -1076.39 -946.88zm1093.12 949.36l1108.92 975.41 14.53 -1503.46 -1123.45 528.05zm5812.35 1904.76l1333.08 1199.08 91.44 -2002.82 -1424.52 803.74zm1341.02 1218.58l-71.3 1562.41 1156.51 -586.28 -1085.21 -976.13zm-10320.8 -1634.58l740.75 1553.42 -1.41 2.36 -1251.17 2064.31 3543.58 -453 -732.37 -4247.86 -2299.38 1080.77zm8410.61 6185.8l-4843.59 1911.34 5498.17 -490.17 -654.58 -1421.17zm-7571.52 349.76l2696.14 1564 4871.46 -1922.34 -1138.97 -2472.87 -1816.31 1275.77 -1.65 -0.25 -4276.86 -705.9 -1684.73 -639.58 1350.92 2901.17zm2712.55 1572.47l1697.7 863.65 3786.29 -1352.57 -5483.99 488.92zm1697.1 873.85l-1.55 -0.8 -1713.09 -871.5 -31.32 2.81 21.41 -8.42 -2691.75 -1561.54 -0.61 -1.33 -1355.65 -2911.3 -16.18 -6.15 16.76 -2.12 1253.79 -2068.63 -742.66 -1557.57 4.28 -2.01 2305.55 -1083.66 -236.46 -1371.5 9.31 8.2 1089.24 958.12 1131.18 -531.69 17.14 -1775.88 4.8 0.48 2830.4 281.7 -13.41 7.44 -1926.4 1067.72 -903.78 424.8 -14.79 1527.47 -7.09 -6.25 -1119.5 -984.75 -850.69 399.83 734.45 4259.94 -4.69 0.6 -3538.78 452.39 1676.39 636.5 4274.36 705.41 1821.84 -1279.62 2.23 4.79 1141.55 2478.6 1720.71 -679.03 104.21 -2282.65 -360.82 182.93 -3.81 -8.6 365.12 -185.07 71.9 -1574.59 -1348.35 -1212.76 5.85 -3.31 1444.03 -814.71 -92.5 2026.53 1100.91 990.25 -6.24 3.19 -1167.06 591.55 -104.7 2293.99 -2.76 1.07 -1722.57 679.75 659.87 1432.77 -5.93 0.49 -3824.14 1366.12z"/>
  <polygon class="fil11" points="14146.37,4297.24 13504.56,3057.38 13512.29,3052.76 14154.09,4292.61 "/>
  <polygon class="fil11" points="16947.49,9356.01 16177.56,8764.92 16182.64,8757.21 16952.61,9348.31 "/>
  <polygon class="fil11" points="10379.88,11947.37 10371.2,11945.7 10672.86,10157.63 10681.54,10159.34 "/>
  <polygon class="fil11" points="9622.36,10163.2 11739.27,10163.2 11739.27,10153.72 9622.36,10153.72 "/>
  <path class="fil11" d="M14971.13 4633.3c0,282.35 -159.6,525.39 -387.42,629.52l-248.53 -629.52 635.95 0z"/>
  <path class="fil11" d="M14253.9 4586.34l248.53 629.52 -1.24 0.64c-19.47,8.54 -38.98,16.39 -58.49,22.95 -61.52,20.31 -124.85,30.77 -188.8,30.77 -65.8,0 -129.16,-11.11 -188.85,-30.77 -199.17,-66.8 -356.34,-235.82 -417.86,-450.03 -18.28,-64.19 -28.61,-132.33 -28.61,-203.08 0,-70.77 10.33,-138.91 28.61,-203.1 61.52,-214.2 218.69,-383.22 417.86,-449.38 59.69,-19.65 123.05,-30.77 188.85,-30.77 65.79,0 129.11,11.12 188.8,30.77 199.82,66.16 356.38,235.18 418.47,449.38 18.31,64.19 28.64,132.33 28.64,203.1l-635.91 0z"/>
  <path class="fil9" d="M14253.9 4586.34l248.53 629.52 -1.24 0.64c-19.47,8.54 -38.98,16.39 -58.49,22.95 -61.52,20.31 -124.85,30.77 -188.8,30.77 -65.8,0 -129.16,-11.11 -188.85,-30.77 -197.94,-67.45 -355.1,-237.15 -417.86,-450.03 -18.28,-64.19 -28.61,-132.33 -28.61,-203.08 0,-70.77 10.33,-138.91 28.61,-203.1 62.76,-212.87 219.92,-381.89 417.86,-449.38 59.69,-19.65 123.05,-30.77 188.85,-30.77 65.79,0 129.11,11.12 188.8,30.77 197.98,67.49 355.74,236.51 418.47,449.38 18.31,64.19 28.64,132.33 28.64,203.1l-635.91 0z"/>
  <path class="fil12" d="M14254.07 4586.44l-414.27 518.34c-140.37,-129.8 -221.22,-319.27 -221.22,-518.34 0,-374.91 286.88,-683.47 635.49,-683.47 348.65,0 635.57,308.56 635.57,683.47l-635.57 0z"/>
  <polygon class="fil11" points="15154.96,8864.73 15293.96,8864.73 15293.96,8105.05 15154.96,8105.05 "/>
  <polygon class="fil11" points="15393.86,8864.73 15532.85,8864.73 15532.85,8231.3 15393.86,8231.3 "/>
  <polygon class="fil11" points="15632.8,8864.73 15771.79,8864.73 15771.79,8461.61 15632.8,8461.61 "/>
  <polygon class="fil11" points="15871.7,8864.73 16010.69,8864.73 16010.69,8220.18 15871.7,8220.18 "/>
  <polygon class="fil11" points="16110.6,8864.73 16249.63,8864.73 16249.63,8326.05 16110.6,8326.05 "/>
  <polygon class="fil11" points="16349.54,8864.73 16488.54,8864.73 16488.54,7999.17 16349.54,7999.17 "/>
  <path class="fil9" d="M15074.35 7946.41l1.62 229.58 0.78 229.56 1.13 459.18 -3.53 -3.79c337.64,-1.1 675.29,0.46 1012.93,0.69l281.66 0.87 249.8 2.23 -249.8 2.21 -281.66 0.83c-337.64,0.23 -675.29,1.78 -1012.93,0.72l-3.53 0 0 -3.76 1.13 -459.18 0.81 -229.56 1.59 -229.58z"/>
  <path class="fil9" d="M15043.66 7999.15c10.23,-3.3 20.46,-4.06 30.69,-4.24 10.2,0.15 20.46,0.9 30.69,4.24 -10.23,3.34 -20.49,4.06 -30.69,4.21 -10.23,-0.15 -20.46,-0.9 -30.69,-4.21z"/>
  <path class="fil9" d="M15043.66 8090.29c10.23,-3.3 20.46,-4.07 30.69,-4.25 10.2,0.15 20.46,0.95 30.69,4.25 -10.23,3.3 -20.49,4.09 -30.69,4.25 -10.23,-0.2 -20.46,-0.95 -30.69,-4.25z"/>
  <path class="fil9" d="M15043.66 8181.41c10.23,-3.3 20.46,-4.1 30.69,-4.25 10.2,0.15 20.46,0.92 30.69,4.25 -10.23,3.34 -20.49,4.1 -30.69,4.25 -10.23,-0.19 -20.46,-0.95 -30.69,-4.25z"/>
  <path class="fil9" d="M15043.66 8272.54c10.23,-3.3 20.46,-4.05 30.69,-4.25 10.2,0.16 20.46,0.92 30.69,4.25 -10.23,3.35 -20.49,4.1 -30.69,4.22 -10.23,-0.12 -20.46,-0.92 -30.69,-4.22z"/>
  <path class="fil9" d="M15043.66 8363.63c10.23,-3.26 20.46,-4.05 30.69,-4.2 10.2,0.15 20.46,0.94 30.69,4.2 -10.23,3.35 -20.49,4.14 -30.69,4.29 -10.23,-0.19 -20.46,-0.94 -30.69,-4.29z"/>
  <path class="fil9" d="M15043.66 8454.81c10.23,-3.3 20.46,-4.1 30.69,-4.26 10.2,0.16 20.46,0.91 30.69,4.26 -10.23,3.33 -20.49,4.05 -30.69,4.2 -10.23,-0.15 -20.46,-0.91 -30.69,-4.2z"/>
  <path class="fil9" d="M15043.66 8545.93c10.23,-3.33 20.46,-4.05 30.69,-4.25 10.2,0.15 20.46,0.92 30.69,4.25 -10.23,3.3 -20.49,4.1 -30.69,4.22 -10.23,-0.12 -20.46,-0.92 -30.69,-4.22z"/>
  <path class="fil9" d="M15043.66 8637.06c10.23,-3.3 20.46,-4.09 30.69,-4.24 10.2,0.15 20.46,0.91 30.69,4.24 -10.23,3.31 -20.49,4.1 -30.69,4.25 -10.23,-0.19 -20.46,-0.99 -30.69,-4.25z"/>
  <path class="fil9" d="M15043.66 8728.2c10.23,-3.31 20.46,-4.1 30.69,-4.25 10.2,0.11 20.46,0.9 30.69,4.25 -10.23,3.33 -20.49,4.05 -30.69,4.2 -10.23,-0.15 -20.46,-0.9 -30.69,-4.2z"/>
  <path class="fil1" d="M9999.33 10158.46c0,223.88 -168.76,405.42 -376.97,405.42 -208.18,0 -376.95,-181.54 -376.95,-405.42 0,-223.88 168.77,-405.38 376.95,-405.38 139.98,0 262.11,82.03 327.16,203.85 31.68,59.33 49.81,128.19 49.81,201.53z"/>
  <path class="fil11" d="M9949.52 9956.93l-327.16 201.53 0 -405.38c139.98,0 262.11,82.03 327.16,203.85z"/>
  <path class="fil5" d="M9883.09 10158.46c0,154.83 -116.73,280.38 -260.73,280.38 -143.97,0 -260.67,-125.55 -260.67,-280.38 0,-154.87 116.7,-280.4 260.67,-280.4 144,0 260.73,125.53 260.73,280.4z"/>
  <polygon class="fil10" points="9513.84,10129.13 9730.91,10129.13 9730.91,10096.18 9513.84,10096.18 "/>
  <polygon class="fil9" points="9460.08,10220.72 9784.66,10220.72 9784.66,10187.76 9460.08,10187.76 "/>
  <path class="fil1" d="M11054.18 10158.46c0,20.15 -1.38,40.07 -4.17,59.42 -26.53,195.73 -183.37,346 -372.78,346 -208.17,0 -376.98,-181.58 -376.98,-405.42 0,-223.83 168.81,-405.38 376.98,-405.38 139.84,0 261.98,81.99 327.13,203.85 31.72,59.38 49.82,128.19 49.82,201.53z"/>
  <path class="fil11" d="M11054.18 10158.46c0,20.15 -1.38,40.07 -4.17,59.42l-372.78 -59.42 0 -405.38c139.84,0 261.98,81.99 327.13,203.85 31.72,59.38 49.82,128.19 49.82,201.53z"/>
  <path class="fil5" d="M10937.9 10158.46c0,154.83 -116.73,280.38 -260.74,280.38 -143.97,0 -260.67,-125.55 -260.67,-280.38 0,-154.87 116.7,-280.4 260.67,-280.4 144.01,0 260.74,125.53 260.74,280.4z"/>
  <polygon class="fil10" points="10568.68,10129.13 10785.71,10129.13 10785.71,10096.18 10568.68,10096.18 "/>
  <polygon class="fil9" points="10514.88,10220.72 10839.44,10220.72 10839.44,10187.76 10514.88,10187.76 "/>
  <path class="fil1" d="M12116.21 10158.46c0,172.63 -100.36,320.21 -241.86,378.48 -41.98,17.45 -87.53,26.94 -135.08,26.94 -208.17,0 -376.94,-181.58 -376.94,-405.42 0,-223.83 168.77,-405.38 376.94,-405.38 139.98,0 262.11,81.99 327.13,203.85 31.72,59.38 49.81,128.19 49.81,201.53z"/>
  <path class="fil11" d="M12116.21 10158.46c0,172.63 -100.36,320.21 -241.86,378.48l-135.08 -378.48 0 -405.38c139.98,0 262.11,81.99 327.13,203.85 31.72,59.38 49.81,128.19 49.81,201.53z"/>
  <path class="fil5" d="M11999.97 10158.46c0,154.83 -116.73,280.38 -260.7,280.38 -143.97,0 -260.7,-125.55 -260.7,-280.38 0,-154.87 116.73,-280.4 260.7,-280.4 143.97,0 260.7,125.53 260.7,280.4z"/>
  <polygon class="fil10" points="11630.76,10129.13 11847.78,10129.13 11847.78,10096.18 11630.76,10096.18 "/>
  <polygon class="fil9" points="11576.99,10220.72 11901.55,10220.72 11901.55,10187.76 11576.99,10187.76 "/>
  <polygon class="fil0" points="8809.98,4684.68 8957.47,4684.68 8957.47,3656 8809.98,3656 "/>
  <polygon class="fil11" points="8809.98,4684.68 8957.47,4684.68 8957.47,3903.15 8809.98,3903.15 "/>
  <polygon class="fil0" points="8588.12,4684.68 8735.61,4684.68 8735.61,3656 8588.12,3656 "/>
  <polygon class="fil12" points="8588.12,4684.68 8735.61,4684.68 8735.61,4007.34 8588.12,4007.34 "/>
  <polygon class="fil0" points="8366.22,4684.68 8513.75,4684.68 8513.75,3656 8366.22,3656 "/>
  <polygon class="fil11" points="8366.22,4684.68 8513.75,4684.68 8513.75,4371.7 8366.22,4371.7 "/>
  <polygon class="fil0" points="8144.36,4684.68 8291.89,4684.68 8291.89,3656 8144.36,3656 "/>
  <polygon class="fil12" points="8144.36,4684.68 8291.89,4684.68 8291.89,3825.99 8144.36,3825.99 "/>
  <polygon class="fil0" points="7922.48,4684.68 8070,4684.68 8070,3656 7922.48,3656 "/>
  <polygon class="fil11" points="7922.48,4684.68 8070,4684.68 8070,3758.01 7922.48,3758.01 "/>
  <polygon class="fil0" points="7700.62,4684.68 7848.14,4684.68 7848.14,3656 7700.62,3656 "/>
  <polygon class="fil12" points="7700.62,4684.68 7848.14,4684.68 7848.14,4097.56 7700.62,4097.56 "/>
  <polygon class="fil0" points="7602.35,3655.98 7604.51,3913.18 7606.03,4170.37 7607.56,4684.71 7602.35,4679.09 7965.7,4678.83 8329.04,4679.51 8692.4,4681.37 9055.76,4684.71 8692.4,4688.08 8329.04,4689.9 7965.7,4690.59 7602.35,4690.32 7597.1,4690.32 7597.13,4684.71 7598.66,4170.37 7600.17,3913.18 "/>
  <path class="fil0" d="M7581.02 3655.98c7.31,-2.34 14.66,-2.88 21.98,-3.03 7.33,0.15 14.66,0.69 21.99,3.03 -7.33,2.4 -14.66,2.97 -21.99,3.08 -7.32,-0.15 -14.67,-0.68 -21.98,-3.08z"/>
  <path class="fil0" d="M7581.02 3758.01c7.31,-2.35 14.66,-2.92 21.98,-3.04 7.33,0.12 14.66,0.64 21.99,3.04 -7.33,2.39 -14.66,2.91 -21.99,3.03 -7.32,-0.12 -14.67,-0.69 -21.98,-3.03z"/>
  <path class="fil0" d="M7581.02 3860.03c7.31,-2.39 14.66,-2.93 21.98,-3.04 7.33,0.11 14.66,0.65 21.99,3.04 -7.33,2.35 -14.66,2.92 -21.99,3.03 -7.32,-0.11 -14.67,-0.68 -21.98,-3.03z"/>
  <path class="fil0" d="M7581.02 3962.01c7.31,-2.35 14.66,-2.89 21.98,-3.04 7.33,0.12 14.66,0.64 21.99,3.04 -7.33,2.39 -14.66,2.96 -21.99,3.03 -7.32,-0.11 -14.67,-0.68 -21.98,-3.03z"/>
  <path class="fil0" d="M7581.02 4064.03c7.31,-2.4 14.66,-2.93 21.98,-3.04 7.33,0.11 14.66,0.64 21.99,3.04 -7.33,2.34 -14.66,2.91 -21.99,3.03 -7.32,-0.12 -14.67,-0.69 -21.98,-3.03z"/>
  <path class="fil0" d="M7581.02 4166c7.31,-2.34 14.66,-2.88 21.98,-3.03 7.33,0.12 14.66,0.69 21.99,3.03 -7.33,2.4 -14.66,2.97 -21.99,3.04 -7.32,-0.11 -14.67,-0.64 -21.98,-3.04z"/>
  <path class="fil0" d="M7581.02 4268.03c7.31,-2.36 14.66,-2.93 21.98,-3.05 7.33,0.12 14.66,0.65 21.99,3.05 -7.33,2.39 -14.66,2.91 -21.99,3.03 -7.32,-0.12 -14.67,-0.69 -21.98,-3.03z"/>
  <path class="fil0" d="M7581.02 4370.04c7.31,-2.38 14.66,-2.92 21.98,-3.03 7.33,0.11 14.66,0.65 21.99,3.03 -7.33,2.36 -14.66,2.89 -21.99,2.99 -7.32,-0.1 -14.67,-0.63 -21.98,-2.99z"/>
  <path class="fil0" d="M7581.02 4472.02c7.31,-2.35 14.66,-2.88 21.98,-3.04 7.33,0.12 14.66,0.65 21.99,3.04 -7.33,2.4 -14.66,2.92 -21.99,3.04 -7.32,-0.12 -14.67,-0.69 -21.98,-3.04z"/>
  <path class="fil0" d="M7581.02 4574.04c7.31,-2.39 14.66,-2.92 21.98,-3.04 7.33,0.12 14.66,0.65 21.99,3.04 -7.33,2.35 -14.66,2.92 -21.99,3.04 -7.32,-0.15 -14.67,-0.69 -21.98,-3.04z"/>
  <polygon class="fil11" points="17348.64,5801.76 18334.33,5801.76 18334.33,5253.43 17348.64,5253.43 "/>
  <polygon class="fil5" points="17462.16,5401.68 18220.81,5401.68 18220.81,5379.45 17462.16,5379.45 "/>
  <polygon class="fil5" points="17462.16,5493 18220.81,5493 18220.81,5470.8 17462.16,5470.8 "/>
  <polygon class="fil5" points="17462.16,5584.36 18220.81,5584.36 18220.81,5562.13 17462.16,5562.13 "/>
  <polygon class="fil5" points="17462.16,5675.68 18220.81,5675.68 18220.81,5653.45 17462.16,5653.45 "/>
  <polygon class="fil11" points="6769.38,9587.17 7755.06,9587.17 7755.06,9038.88 6769.38,9038.88 "/>
  <polygon class="fil5" points="6882.92,9187.18 7641.53,9187.18 7641.53,9164.95 6882.92,9164.95 "/>
  <polygon class="fil5" points="6882.92,9278.5 7641.53,9278.5 7641.53,9256.3 6882.92,9256.3 "/>
  <polygon class="fil5" points="6882.92,9369.82 7641.53,9369.82 7641.53,9347.62 6882.92,9347.62 "/>
  <polygon class="fil5" points="6882.92,9461.14 7641.53,9461.14 7641.53,9438.96 6882.92,9438.96 "/>
  <polygon class="fil11" points="10593.27,2274.28 11578.97,2274.28 11578.97,1725.97 10593.27,1725.97 "/>
  <polygon class="fil5" points="10706.83,1874.21 11465.44,1874.21 11465.44,1852.02 10706.83,1852.02 "/>
  <polygon class="fil5" points="10706.83,1965.53 11465.44,1965.53 11465.44,1943.32 10706.83,1943.32 "/>
  <polygon class="fil5" points="10706.83,2056.89 11465.44,2056.89 11465.44,2034.68 10706.83,2034.68 "/>
  <polygon class="fil5" points="10706.83,2148.21 11465.44,2148.21 11465.44,2126 10706.83,2126 "/>
  <polygon class="fil11" points="12536.5,12116.46 13522.16,12116.46 13522.16,11568.17 12536.5,11568.17 "/>
  <polygon class="fil5" points="12650.03,11716.47 13408.68,11716.47 13408.68,11694.24 12650.03,11694.24 "/>
  <polygon class="fil5" points="12650.03,11807.79 13408.68,11807.79 13408.68,11785.56 12650.03,11785.56 "/>
  <polygon class="fil5" points="12650.03,11899.11 13408.68,11899.11 13408.68,11876.89 12650.03,11876.89 "/>
  <polygon class="fil5" points="12650.03,11990.43 13408.68,11990.43 13408.68,11968.23 12650.03,11968.23 "/>
 </g>
</svg>
