<?xml version="1.0" encoding="UTF-8"?>
<!DOCTYPE svg PUBLIC "-//W3C//DTD SVG 1.1//EN" "http://www.w3.org/Graphics/SVG/1.1/DTD/svg11.dtd">
<!-- Creator: CorelDRAW -->
<svg xmlns="http://www.w3.org/2000/svg" xml:space="preserve" width="246.38mm" height="162.56mm" version="1.1" style="shape-rendering:geometricPrecision; text-rendering:geometricPrecision; image-rendering:optimizeQuality; fill-rule:evenodd; clip-rule:evenodd"
viewBox="0 0 24638 16256"
 xmlns:xlink="http://www.w3.org/1999/xlink"
 xmlns:xodm="http://www.corel.com/coreldraw/odm/2003">
 <defs>
  <style type="text/css">
   <![CDATA[
    .fil17 {fill:#112335;fill-rule:nonzero}
    .fil8 {fill:#203651;fill-rule:nonzero}
    .fil9 {fill:#2355A5;fill-rule:nonzero}
    .fil10 {fill:#2C63C6;fill-rule:nonzero}
    .fil13 {fill:#331A15;fill-rule:nonzero}
    .fil19 {fill:#3B577F;fill-rule:nonzero}
    .fil12 {fill:#44261F;fill-rule:nonzero}
    .fil16 {fill:#543229;fill-rule:nonzero}
    .fil5 {fill:#841F39;fill-rule:nonzero}
    .fil18 {fill:#8C2C45;fill-rule:nonzero}
    .fil14 {fill:#BA365C;fill-rule:nonzero}
    .fil1 {fill:#DD5750;fill-rule:nonzero}
    .fil7 {fill:#DDDBD7;fill-rule:nonzero}
    .fil15 {fill:#E0A08C;fill-rule:nonzero}
    .fil11 {fill:#E2AA8F;fill-rule:nonzero}
    .fil3 {fill:#EF9D75;fill-rule:nonzero}
    .fil0 {fill:#F2815A;fill-rule:nonzero}
    .fil4 {fill:#F4CFA2;fill-rule:nonzero}
    .fil2 {fill:#FFD48F;fill-rule:nonzero}
    .fil6 {fill:white;fill-rule:nonzero}
   ]]>
  </style>
 </defs>
 <g id="Layer_x0020_1">
  <metadata id="CorelCorpID_0Corel-Layer"/>
  <path class="fil0" d="M17866.8 9176.93c-588.39,-888.87 -843.01,-1929.19 -655.62,-2948.86 82.23,-447.45 62.33,-914.47 -76.05,-1377.11 -541.09,-1809.42 -2899.04,-2806.73 -5007.18,-2300.63 -1073.82,257.83 -1875.69,855.98 -2332.48,1620.13 -188.98,316.01 -561.95,503.83 -962.14,502.41 -2.4,0 -4.79,0 -7.21,0 -1163.54,0 -2106.89,991.79 -2106.89,2215.29 0,246.19 38.28,482.97 108.83,704.18 195.19,611.76 77.88,1269.5 -323.93,1794.08 -316.44,413.1 -497.63,866.72 -497.63,1297.16 0,1286.37 827.73,2141.3 2836.54,2141.3 383.99,0 784.11,-38.11 1180.13,-108.69 1447.94,-258.27 2936.46,-242.04 4385.53,10.83 364.71,63.67 732.08,97.86 1085.37,97.86 1950.93,0 2734.43,-1042.8 2734.43,-2329.1 0,-489.6 -113.52,-943.93 -361.7,-1318.85z"/>
  <path class="fil1" d="M18086.7 9622.76c-92.25,-166.34 -294.31,-445.86 -528.85,-327.72 -228.22,114.89 -325.04,430.41 -318.67,658.88 7.93,283.36 121.53,551.26 145.28,832.95 1.14,13.68 -19.23,17.5 -25.94,6.72 -167.82,-270.25 -329.75,-703.06 -746.45,-626.32 -352.49,64.87 -543.8,435.17 -647.74,729.52 -4.9,13.98 -27.33,11.99 -27.33,-3.49 -0.03,-217.42 0.16,-448.24 -80.28,-654.69 -39.67,-101.83 -102.83,-205.81 -208.74,-255.66 -100.35,-47.27 -221.88,-49.99 -320.58,3.41 -192.6,104.22 -286.05,332.34 -348.2,524.04 -58.01,178.78 -93.48,362.18 -128.3,546.04 -2.7,14.28 -22.41,10.97 -26.84,0 -80.86,-201.12 -279.22,-323.79 -503.54,-253.13 -199.95,63.04 -344.3,234.48 -359.86,435.81 -1.2,15.44 -21.69,17.59 -27.34,3.55 -100.69,-249.44 -344.13,-463.39 -640.72,-432.54 -303.16,31.57 -460.11,291.41 -473.21,562.01 -0.59,12.4 -19.37,19.25 -25.95,6.75 -106.91,-204.45 -215.44,-410.56 -357.07,-595.57 -146.17,-190.88 -336.76,-378.24 -584.58,-438.6 -260.13,-63.4 -524.96,27.46 -682.09,236.66 -137.6,183.13 -198.61,408.71 -215.31,631.15 -0.89,11.77 -14.39,17.34 -23.77,9.4 -240.81,-204.32 -513.69,-444.18 -832.05,-527.4 -133.94,-35.01 -282.95,-34.3 -395.35,54.06 -152.76,119.95 -213.22,316.28 -252.47,494.08 -2.48,11.25 -19.9,13.02 -25.44,3.17 -89.16,-158.55 -197.27,-343.2 -367.93,-433.63 -206.6,-109.49 -416.23,-12.65 -584.45,117.07 -8.15,6.28 -25.35,3.53 -23.76,-9.39 22.18,-181.27 24.91,-492.34 -200.51,-567.83 -223.19,-74.7 -445.82,112.77 -582.98,257.99 -8.61,9.12 -23.15,1.48 -23.75,-9.39 -11.93,-217.47 5.36,-435.96 1.28,-653.59 -4.33,-231.26 -10.61,-491.98 -121.04,-703.42 -94.67,-181.24 -268.32,-255.42 -474.94,-206.63 -216.14,51 -393.04,174.8 -532.05,334.58 -3.71,4.91 -7.29,9.91 -11.05,14.82 -75.99,99.22 -143.95,200.76 -203.71,303.81 -130.11,238.6 -218.98,501.45 -277.55,768.43 -10.6,75.44 -16.37,150.55 -16.37,224.92 0,1286.37 827.73,2141.3 2836.54,2141.3 383.99,0 784.11,-38.11 1180.13,-108.69 1447.94,-258.27 2936.46,-242.04 4385.53,10.83 364.71,63.67 732.08,97.86 1085.37,97.86 1950.93,0 2734.43,-1042.8 2734.43,-2329.1 0,-306.26 -44.4,-598.73 -138.43,-866.55 -1.15,-2.16 -2.2,-4.34 -3.37,-6.47z"/>
  <path class="fil0" d="M9613.71 2842.36c0,-145.22 124.78,-262.95 278.66,-262.95 153.91,0 278.66,117.73 278.66,262.95 0,145.26 -124.75,262.96 -278.66,262.96 -153.88,0 -278.66,-117.7 -278.66,-262.96z"/>
  <path class="fil0" d="M10106.65 2173.89c0,-72.63 62.38,-131.49 139.37,-131.49 76.94,0 139.32,58.86 139.32,131.49 0,72.61 -62.38,131.5 -139.32,131.5 -76.99,0 -139.37,-58.89 -139.37,-131.5z"/>
  <path class="fil0" d="M10664.17 2419.03c0,-103.76 89.11,-187.83 199.05,-187.83 109.93,0 199.03,84.07 199.03,187.83 0,103.74 -89.1,187.84 -199.03,187.84 -109.94,0 -199.05,-84.1 -199.05,-187.84z"/>
  <path class="fil1" d="M5926.87 8936.71c0,-103.75 89.1,-187.82 199.05,-187.82 109.94,0 199.04,84.07 199.04,187.82 0,103.72 -89.1,187.84 -199.04,187.84 -109.95,0 -199.05,-84.12 -199.05,-187.84z"/>
  <path class="fil1" d="M17495.74 7926.1c0,-145.26 124.77,-262.96 278.67,-262.96 153.94,0 278.69,117.7 278.69,262.96 0,145.2 -124.75,262.93 -278.69,262.93 -153.9,0 -278.67,-117.73 -278.67,-262.93z"/>
  <path class="fil1" d="M18291.96 8977.93c0,-93.32 80.14,-169.03 179.1,-169.03 98.95,0 179.18,75.71 179.18,169.03 0,93.41 -80.23,169.07 -179.18,169.07 -98.96,0 -179.1,-75.66 -179.1,-169.07z"/>
  <path class="fil2" d="M324.23 14214.46c0,-1022.86 5363.7,-1852.08 11980.19,-1852.08 6616.44,0 11980.2,829.22 11980.2,1852.08 0,1022.86 -5363.76,1852.07 -11980.2,1852.07 -6616.49,0 -11980.19,-829.21 -11980.19,-1852.07z"/>
  <path class="fil3" d="M10699.19 13008.19c0,206.28 -1050.47,373.48 -2346.31,373.48 -1295.82,0 -2346.29,-167.2 -2346.29,-373.48 0,-206.23 1050.47,-373.42 2346.29,-373.42 1295.84,0 2346.31,167.19 2346.31,373.42z"/>
  <path class="fil3" d="M15356.7 13160.39c0,206.24 -1329.9,373.45 -2970.49,373.45 -1640.54,0 -2970.48,-167.21 -2970.48,-373.45 0,-206.26 1329.94,-373.47 2970.48,-373.47 1640.59,0 2970.49,167.21 2970.49,373.47z"/>
  <path class="fil3" d="M18152.17 13030.03c0,206.28 -1050.47,373.48 -2346.3,373.48 -1295.82,0 -2346.29,-167.2 -2346.29,-373.48 0,-206.24 1050.47,-373.45 2346.29,-373.45 1295.83,0 2346.3,167.21 2346.3,373.45z"/>
  <path class="fil4" d="M17529.81 5847.16l35.39 -196.67 299.6 -27.76 -33.05 275.35c0,0 -252.38,11.58 -301.94,-50.92z"/>
  <path class="fil5" d="M16383.35 12640.58c0,0 -9.42,332.03 4.73,373.67 14.16,41.67 504.18,126.75 781.98,126.75 277.76,0 235.31,-60.78 235.31,-149.28 0,-88.51 -214.03,-176.99 -385.7,-249.88 -171.61,-72.9 -231.76,-83.29 -251.25,-123.24 -19.4,-39.89 -324.31,-148.67 -385.07,21.98z"/>
  <path class="fil6" d="M17054.47 12756.56c-51.34,30.5 -97.18,77.52 -103.78,150.12 -6.85,75.58 7.02,156.61 25,224.38 69.84,6.17 136.73,9.9 194.37,9.9 277.76,0 235.31,-60.74 235.31,-149.25 0,-82.65 -186.5,-165.23 -350.9,-235.15z"/>
  <path class="fil7" d="M17407.68 13045.74c-82.84,28.21 -290.73,31.72 -587.9,-15.86 -257.84,-41.29 -356.54,-69.03 -438.77,-105.76 1,43.78 3.12,78.42 7.07,90.13 14.16,41.67 504.22,126.71 781.98,126.71 216.65,0 238.5,-36.98 237.62,-95.22z"/>
  <path class="fil5" d="M15326.56 12589.66c0,0 23.58,4.64 23.58,37.05 0,32.35 -7.07,372.5 -9.42,388.73 -2.36,16.19 -523.67,141.12 -863.35,134.18 -339.74,-6.92 -200.56,-143.48 -146.28,-201.3 54.26,-57.83 360.89,-222.14 575.56,-279.97 214.67,-57.86 419.91,-78.69 419.91,-78.69z"/>
  <path class="fil6" d="M14776.91 12966.85c17.09,-102.71 -31.18,-174.06 -85.67,-220.53 -164.85,71.38 -322.68,162.05 -360.15,202 -54.28,57.82 -193.46,194.38 146.28,201.3 80.9,1.67 172.11,-4.23 264.19,-14.28 11.17,-42.23 23.52,-97.33 35.35,-168.49z"/>
  <path class="fil7" d="M14640.1 13084.84c-207.13,25.65 -320.47,13.04 -381.99,-5.75 9.24,37.28 64.44,67.37 219.26,70.53 339.68,6.94 860.99,-117.99 863.35,-134.18 0.73,-5.1 1.93,-41.95 3.21,-91.18 -139.15,44.62 -415.54,124.8 -703.83,160.58z"/>
  <path class="fil8" d="M15118.96 8674.68l-212.31 3993.67c0,0 273.63,64.76 443.49,-41.64l320.83 -3392.09 429.31 0 283.07 3405.96c0,0 212.3,87.89 434.1,18.48l-155.69 -4007.51 -1542.8 23.13z"/>
  <path class="fil4" d="M14878.96 8993.39c0,0 155.68,3.47 187.55,29.51 31.83,26.05 169.81,177.01 155.67,317.57 -14.14,140.58 -123.84,121.47 -153.94,45.13 -30.06,-76.37 -189.28,-392.21 -189.28,-392.21z"/>
  <path class="fil4" d="M14760.4 8956.94c0,0 -90.26,50.34 -100.87,166.61 -10.6,116.31 -3.53,201.3 56.67,267.24 60.1,65.94 148.56,79.86 187.5,114.54 38.92,34.73 77.83,105.85 162.81,95.45 84.87,-10.38 44.18,-192.6 33.6,-262.03 -10.6,-69.43 3.54,-281.14 -104.35,-328 -107.95,-46.85 -235.36,-53.81 -235.36,-53.81z"/>
  <path class="fil9" d="M15048.2 9012.5c0,0 -193.46,55.51 -325.54,-32.41 0,0 61.32,-1226.33 108.5,-1647.43 47.21,-421.13 118,-703.42 297.26,-856.13 179.27,-152.71 202.87,245.27 202.87,490.54 0,245.29 -179.29,1036.57 -179.29,1036.57l-103.8 1008.86z"/>
  <path class="fil10" d="M15854.99 6282.15c177.51,-4.88 613.28,32.42 707.67,60.19 94.33,27.76 783.13,434.97 783.13,434.97l174.6 -994.94c0,0 188.72,60.18 339.67,32.41 0,0 -94.34,1041.22 -141.51,1175.41 -47.19,134.22 -127.38,296.22 -509.57,134.22 -382.13,-161.96 -608.58,-300.8 -608.58,-300.8 0,0 108.48,1892.73 108.48,1929.7 0,37.05 -113.23,97.2 -641.59,101.87 -528.43,4.61 -919.99,13.87 -990.76,-92.58 -28.33,-60.16 42.43,-2249.07 51.89,-2286.07 9.41,-37.02 391.6,-185.12 726.57,-194.38z"/>
  <path class="fil9" d="M16263.37 8584.85c-117.66,36.07 -247.88,44.36 -365.07,1.04 -51.6,-19.12 -212.8,-78.85 -187.75,-159.18 22.38,-71.7 119.03,-86.94 156.66,-147.69 67.75,-109.37 -210.41,-149.92 -274.54,-168.29 -43.79,-12.54 -97.63,-23.76 -134.09,-52.62 -60.85,-48.22 -113.71,-105.88 -155.43,-170.95 -92.41,-144.19 -138.57,-302.79 -167.1,-469.5 -12.78,-74.57 -25.08,-151.32 -35.3,-229.06 -20.65,656.93 -42.02,1536.18 -24.22,1574 70.77,106.45 462.33,97.19 990.76,92.58 528.36,-4.67 641.59,-64.82 641.59,-101.87 0,-11.58 -10.63,-205.63 -25.3,-466.51 -109.56,139.66 -261.35,249.37 -420.21,298.05z"/>
  <path class="fil9" d="M17738.06 5981.63c53.02,75.93 72.4,165.11 80.97,255.23 23.61,-229.84 41.03,-422.08 41.03,-422.08 -138.54,25.47 -308.42,-22.96 -335.56,-31.13 40.64,92.64 155.55,114.92 213.56,197.98z"/>
  <path class="fil9" d="M17714.48 6907.22c-140.57,159.5 -375.78,164.83 -574.06,141.56 -50.66,-5.95 -103.91,-14 -157.22,-25.33 67.62,31.83 142.77,65.77 225.78,100.96 382.19,162 462.38,0 509.57,-134.22 7.32,-20.8 15.75,-63.48 24.83,-120.6 -8.86,12.91 -18.27,25.58 -28.9,37.63z"/>
  <path class="fil6" d="M15897.44 6721.8c292.19,0 342.46,-264.6 346.62,-421.46 -144.08,-12.37 -299.52,-20.64 -389.07,-18.15 -133.42,3.66 -274.21,29.4 -396.08,61.32 32.3,131.24 133.53,378.29 438.53,378.29z"/>
  <path class="fil4" d="M16043.66 6286.5l0 -291.22 -363.28 0 0 303.1c-40.39,5.93 -80.53,12.88 -119.55,21.1 48.65,123.6 154.23,310.75 343.68,293.59 198.56,-18.01 237.69,-209.52 243.71,-320.18 -35.6,-2.52 -70.73,-4.64 -104.56,-6.39z"/>
  <path class="fil11" d="M16098.7 6289.64c-18.6,-1.15 -37.03,-2.21 -55.04,-3.14l0 -291.22 -363.28 0 0 243.57c103.86,83.67 270.01,88.52 418.32,50.79z"/>
  <path class="fil12" d="M16154.56 5316.13c300.74,-65.93 491.81,-305.41 367.97,-704.53 -123.85,-399.15 -619.19,-520.62 -919.98,-482.45 -300.77,38.19 -555.55,159.67 -509.51,381.78 0,0 -184.02,62.47 -173.42,354.02 10.64,291.54 100.3,829.5 444.68,797.1 201.87,-18.98 790.26,-345.92 790.26,-345.92z"/>
  <path class="fil4" d="M16411.79 4927.31c-731.07,111.56 -1085.23,-218.57 -1085.23,-218.57 1.81,157.82 -50.85,263.76 -102.83,329.89l44.4 547.86c19.9,370.98 314.29,600.35 692.5,580.86 300.9,-15.48 503.72,-239.57 487.91,-534.77l-36.75 -705.27z"/>
  <path class="fil11" d="M15314.17 5040.27c26.73,-22.26 50.66,-57.21 80.97,-74.22 64.22,-35.96 192.38,8.96 257.32,22.31 242.39,49.82 521.31,69.19 762.12,-7.43l-2.79 -53.62c-731.07,111.56 -1085.23,-218.57 -1085.23,-218.57 1.81,157.82 -50.85,263.76 -102.83,329.89l5.82 71.72c29.98,-22.58 58.68,-48.46 84.62,-70.08z"/>
  <path class="fil4" d="M15269.94 5287.22c0,0 -51.88,-101.81 -174.56,-97.17 -122.67,4.61 -103.77,314.67 -9.43,402.62 94.33,87.91 198.16,92.53 217.03,64.76l-33.04 -370.21z"/>
  <path class="fil13" d="M15478.71 5059.29c-2.29,-2.07 12.92,-22.63 39.47,-44.06 13.41,-10.52 29.42,-21.71 48.77,-28.37 9.32,-3.42 20.29,-5.82 31.78,-4.51 11.33,1.09 21.41,6.2 28.79,12.01 15.08,11.77 21.24,23.95 25.8,32.69 4.35,9.04 6.07,15.58 6.79,20.28 1.34,9.34 -1.44,11.15 -4.45,11.96 -3.17,0.87 -5.99,0.91 -10.96,-6.14 -2.51,-3.52 -5.58,-8.77 -10.25,-15.97 -4.79,-6.94 -10.91,-16.82 -21.29,-24.74 -18.71,-19.08 -58.57,-0.74 -85.35,15.89 -27.53,17.01 -46.76,33.26 -49.1,30.96z"/>
  <path class="fil13" d="M16262.46 5073.19c-2.57,2.11 -20.99,-17.53 -47.77,-39.18 -13.12,-10.21 -30.07,-22.5 -44.54,-24.44 -12.86,-1.36 -30.31,9.83 -43.14,18.68 -26.45,19.24 -39.53,31.56 -47.77,36.29 -8.1,5.13 -10.77,3.87 -13.14,1.72 -2.4,-2.13 -3.9,-4.87 1.42,-13.11 5.62,-7.97 16.98,-22.47 45.9,-43.49 7.32,-5.17 15.62,-10.3 25.14,-14.78 9.44,-4.06 21.34,-8.46 34.73,-6.17 24.83,5.79 39.23,21.02 52.51,33.37 25.32,25.99 39.1,49.28 36.66,51.11z"/>
  <path class="fil13" d="M15924.55 5616.37c-1.78,-2.41 9.72,-13.28 27.59,-30.61 8.63,-8.63 19.93,-19.28 27.44,-31.21 6.72,-5.57 -4.08,-24.35 -11.21,-40.69 -33.96,-67.32 -65.25,-121.6 -59.74,-124.83 4.59,-2.75 43.87,46.15 79.09,115.86 4.25,8.9 8.26,17.53 11.24,27 1.56,4.61 2.81,9.39 3.23,15.84 0.14,8.27 -3.28,13.13 -5.93,17.14 -11.49,15.51 -23.86,24.27 -34.27,32.16 -21.07,15.07 -35.79,21.63 -37.44,19.34z"/>
  <path class="fil5" d="M16086.45 5737.84l-405.18 0c-15.11,0 -27.39,12.03 -27.39,26.92 0,124.09 103.44,205.62 229.98,205.62l1.75 0c126.54,0 228.25,-81.53 228.25,-205.62 0,-14.89 -12.27,-26.92 -27.41,-26.92z"/>
  <path class="fil14" d="M15883.86 5970.38l1.72 0c79.97,0 149.93,-32.6 190.65,-87.83 -48.18,-38.96 -116.57,-61.41 -192.37,-61.41l-2.01 0c-75.32,0 -142.71,22.11 -190.36,60.62 41.19,55.69 112.06,88.62 192.37,88.62z"/>
  <path class="fil13" d="M15108.38 5393.84c-1.2,1.15 -11.35,-13.73 -8.18,-40.76 0.8,-6.67 2.55,-14.25 7.57,-21.71 4.56,-7.5 14.69,-13.84 25.44,-13.76 21.12,0.22 39.5,12.45 54.92,27.39 30.15,30.68 52.89,72.84 64.05,118.74 4.54,22.8 8.43,48.38 -5.84,73.2 -8.33,12.23 -22.1,19.58 -36.58,19.99 -14.25,0.13 -26.55,-5.41 -35.6,-12.18 -18.46,-13.71 -28.79,-30.53 -34.94,-46.74 -6.04,-15.95 -6.32,-34.24 2.62,-47.63 16.92,-23.53 41.81,-26.09 54.34,-20.96 12.69,4.8 16.64,10.86 18.62,13.98 1.75,3.39 0.97,4.96 -0.25,5.98 -2.5,3.08 -5.29,-0.06 -22.63,-4.32 -4.29,-0.6 -9.33,-0.43 -14.89,1.97 -4.99,1.94 -13.23,8.14 -16.87,14.41 -8.33,11.55 0.78,44.34 27.77,64.79 13.59,10.44 30.13,10.99 39.37,-1.68 8.38,-13.3 7.98,-35.99 3.84,-56.5 -8.85,-41.74 -29.26,-83.13 -54.98,-111.83 -12.52,-14.03 -28.67,-24.85 -42.95,-25.81 -13.97,-1.23 -21.74,12.78 -24.08,24.22 -5.48,23.98 0.76,38.72 -0.75,39.21z"/>
  <path class="fil13" d="M15542.98 5248.86c-5.54,-44.83 9.24,-83.44 33.01,-86.25 23.75,-2.84 47.46,31.21 53.06,76.01 5.51,44.83 -9.27,83.47 -33.02,86.31 -23.74,2.81 -47.48,-31.24 -53.05,-76.07z"/>
  <path class="fil13" d="M16140.98 5261.04c-5.55,-44.86 9.24,-83.47 33.01,-86.28 23.72,-2.84 47.51,31.21 53.05,76.01 5.52,44.86 -9.24,83.47 -33.03,86.28 -23.72,2.81 -47.49,-31.23 -53.03,-76.01z"/>
  <path class="fil11" d="M17699.09 5723.97c0,0 178.65,50.32 245.9,-109.35 67.25,-159.65 45.98,-426.86 45.98,-426.86l-569.71 0c0,0 88.51,350.52 141.57,416.46 53.03,65.96 136.26,119.75 136.26,119.75z"/>
  <path class="fil14" d="M16619.86 5175.58l898.74 -128.41 31.85 369.66 -893.48 39.89c0,0 -166.26,-109.35 -37.11,-281.14z"/>
  <path class="fil8" d="M16648.15 5328.32c-13.86,-65.34 10.94,-122.4 37.77,-162.16l-66.06 9.42c-129.15,171.79 37.11,281.14 37.11,281.14l86.13 -3.87c-42.54,-29.17 -83.43,-70.31 -94.95,-124.53z"/>
  <path class="fil8" d="M17518.6 5047.17l-162.31 23.18c-37.97,78.58 -62.88,198.88 2.62,355.03l191.54 -8.55 -31.85 -369.66z"/>
  <path class="fil14" d="M17484.97 5005.53l1084.54 -229.07 60.16 671.6 -1111.1 24.25c0,0 -153.9,-215.15 -33.6,-466.78z"/>
  <path class="fil8" d="M18878.66 5094.62c-11.66,-186.07 -138.93,-329.77 -284.23,-321.03 -8.47,0.54 -16.73,1.63 -24.89,3.14l-0.03 -0.27 -172.42 36.39c-75.4,66.81 -121.63,186.62 -113.23,320.52 9.16,145.88 80.56,267.35 175.29,318.38l170.52 -3.71 -0.06 -0.66c2.34,-0.05 4.68,0.16 7.02,0.03 145.32,-8.79 253.69,-166.71 242.03,-352.79z"/>
  <path class="fil6" d="M18445.17 5120.78c-8.54,-136.6 60.74,-251.98 154.85,-257.63 94.06,-5.68 177.26,100.45 185.86,237.1 8.55,136.6 -60.76,251.93 -154.88,257.63 -94.02,5.68 -177.26,-100.5 -185.83,-237.1z"/>
  <path class="fil4" d="M17532.77 5453.26c0,0 56.62,-79.84 65.47,-128.44 8.82,-48.6 -30.06,-119.76 -120.34,-38.17 -90.21,81.53 -139.73,175.26 -130.91,225.6 8.86,50.33 70.76,164.87 352.1,211.72 0,0 72.51,-194.38 -166.32,-270.71z"/>
  <path class="fil4" d="M17534.55 5015.93c19.93,-58.1 -33.6,-111.07 -88.46,-90.26 -54.86,20.86 -86.71,105.86 -81.42,156.2 5.31,50.33 116.77,88.49 169.88,-65.94z"/>
  <path class="fil4" d="M17505.05 4999.15c8.9,-65.37 49.52,-122.63 89.66,-122.63 40.1,0 87.26,21.98 88.42,64.8 1.18,42.8 -50.71,148.09 -110.87,141.13 -60.14,-6.94 -71.92,-48.61 -67.21,-83.3z"/>
  <path class="fil4" d="M17650.13 4947.11c13.21,-50.35 49.54,-104.14 102.57,-85.63 53.11,18.51 66.11,68.26 64.91,90.26 -1.2,21.96 -80.19,114.52 -127.4,89.07 -47.16,-25.45 -50.69,-53.22 -40.08,-93.7z"/>
  <path class="fil4" d="M17816.28 4888.83c42.95,-83.05 120.19,-40.92 147.19,-18.04 26.97,22.88 -1.23,99.91 -45.4,146.87 -44.14,46.9 -129.49,15.59 -127.54,-32.52 1.19,-30.09 15.53,-76.59 25.75,-96.31z"/>
  <path class="fil5" d="M7818.23 12546.68c0,0 62.63,4.53 69.59,91 6.96,86.47 2.3,334.48 -6.96,350.39 -9.27,15.94 -257.48,106.95 -663.42,113.78 -405.95,6.82 -440.75,-2.28 -424.5,-136.52 16.24,-134.26 148.46,-145.62 364.19,-250.3 215.72,-104.64 361.86,-154.7 361.86,-154.7l299.24 -13.65z"/>
  <path class="fil6" d="M7217.43 13101.85c7.76,-0.14 15.09,-0.5 22.77,-0.69 83.09,-222.27 23.95,-339.08 -54.05,-400.05 -9.58,4.59 -19.16,9.15 -29.05,13.92 -215.72,104.68 -347.94,116.04 -364.16,250.3 -16.23,134.24 18.57,143.34 424.49,136.52z"/>
  <path class="fil7" d="M7889 12891.8c-111.21,37.11 -137.96,68.96 -416.4,103.09 -296.71,36.4 -498.74,54.61 -682.65,7.79 -2.17,98.54 63.17,105.3 427.48,99.17 405.96,-6.83 654.14,-97.84 663.44,-113.78 3.48,-6.01 6.35,-45.22 8.13,-96.27z"/>
  <path class="fil5" d="M8982.7 12498.9c0,0 -18.57,56.88 -23.22,91.01 -4.62,34.13 0,359.49 9.3,386.8 9.27,27.3 225,91.01 642.53,129.69 417.54,38.66 549.76,43.22 559.03,-45.51 9.29,-88.73 -136.85,-197.95 -375.78,-309.44 -238.92,-111.5 -433.78,-113.77 -487.13,-141.06 -53.34,-27.31 -324.73,-111.49 -324.73,-111.49z"/>
  <path class="fil7" d="M9435.03 13001.72c-265.47,-40.05 -402.73,-82.73 -473.35,-117.97 1.84,47.78 4.2,84.52 7.1,92.96 9.27,27.3 225,91.01 642.53,129.69 417.54,38.66 549.76,43.22 559.03,-45.51 1.28,-12.28 -0.67,-24.98 -5.21,-38.03 -135.12,19.66 -373.33,32.73 -730.1,-21.14z"/>
  <path class="fil8" d="M9205.38 8257.75l259.8 4386.76c0,0 -501.05,0 -510.32,-63.7l-343.33 -3613.17 -417.53 0 -315.48 3613.17c0,0 -343.3,100.09 -473.21,18.18l167.01 -4250.2 1633.06 -91.04z"/>
  <path class="fil10" d="M7741.68 5948.35c0,0 -271.4,36.39 -394.35,334.46 -122.93,298.08 -334.04,755.41 -334.04,755.41l-512.62 -866.89 -354.9 150.17c0,0 273.71,605.21 473.2,962.45 199.48,357.21 338.66,436.86 593.83,273.03 255.16,-163.82 519.61,-910.13 519.61,-910.13l9.27 -698.5z"/>
  <path class="fil9" d="M7496.67 7139.1c-75.41,62.53 -140.65,136.74 -220.03,194.73 -159.23,116.37 -343.43,125.74 -466.8,-41.8 -60.04,-81.5 -104.49,-173 -159.19,-257.91 -59.45,-92.34 -118.68,-186.78 -159.55,-288.78 -37.9,-94.59 -74.45,-212.29 -33.22,-311.59 16.86,-40.63 54.94,-67.14 81.76,-100.67 11.97,-14.99 21.26,-30.66 29.02,-46.77l-67.99 -114.98 -354.9 150.17c0,0 273.71,605.21 473.2,962.45 199.48,357.21 338.66,436.86 593.83,273.03 113.7,-73 229.2,-261.65 322.35,-448.4 -13.4,10.43 -26.46,20.58 -38.48,30.52z"/>
  <path class="fil10" d="M8456.13 5787.94c0,0 671.53,136.52 852.47,255.97 180.93,119.45 -66.12,962.44 -59.16,1563.12 6.96,600.67 27.84,819.11 13.92,860.06 -13.92,40.95 -215.72,88.74 -904.66,88.74 -688.94,0 -848.99,-102.4 -842.04,-129.69 6.96,-27.31 62.64,-1146.75 48.72,-1283.27 -13.92,-136.52 -139.18,-266.21 -13.92,-566.54 76.55,-170.65 118.3,-293.52 118.3,-293.52 0,0 46.41,-106.94 71.89,-334.46 0,0 559.07,-152.44 714.48,-160.41z"/>
  <path class="fil9" d="M9308.6 6043.91c-70.82,-46.74 -216.85,-96.11 -368.3,-138.86 109.28,446.89 266.61,1027.64 -112.45,1384.01 -183.78,172.74 -473.66,188.96 -713.9,205.04 -127.4,8.57 -254.93,24.03 -382.51,28.78 -56.03,2.08 -113.97,2.13 -170.57,-4.56 -12.71,375.29 -39.52,889.41 -44.21,907.82 -6.95,27.29 153.1,129.69 842.04,129.69 688.94,0 890.74,-47.79 904.66,-88.74 13.92,-40.95 -6.96,-259.39 -13.92,-860.06 -6.96,-600.68 240.09,-1443.67 59.16,-1563.12z"/>
  <path class="fil4" d="M6345.24 6362.46c133.23,-39.62 164.7,-97.86 192.54,-182.03 27.84,-84.18 -273.73,-714.45 -331.72,-769.06 -57.98,-54.6 -162.36,-4.54 -106.7,129.69 55.68,134.25 -71.92,398.19 -97.42,391.37 -25.53,-6.83 -132.22,-364.06 -236.6,-302.63 -120.09,70.66 271.4,684.88 352.57,732.66 81.19,47.78 150.78,22.74 227.33,0z"/>
  <path class="fil15" d="M6288.62 5909.77c-26.79,1.2 -52.84,8.18 -78.04,18.26 -91.37,45.46 -181.76,123.33 -141.43,229.05 25.86,67.77 86.46,84.07 154.22,72.22 43.12,-7.56 114.23,-15.59 137.09,-57.88 32.78,-60.62 25.94,-266.07 -71.84,-261.65z"/>
  <path class="fil4" d="M6261.73 5827.75c0,0 -139.18,-348.12 -199.5,-427.73 -60.29,-79.65 -187.89,-9.13 -129.88,109.21 57.98,118.3 162.37,377.68 162.37,377.68l167.01 -59.16z"/>
  <path class="fil4" d="M6127.2 5866.44c0,0 -134.53,-352.68 -187.89,-402.73 -53.37,-50.05 -139.18,-2.27 -120.62,70.53 18.54,72.82 185.55,407.28 185.55,407.28l122.96 -75.08z"/>
  <path class="fil4" d="M6345.24 6362.46c0,0 207.29,-22.96 211.08,-268.5 4.64,-300.34 46.4,-418.65 -69.59,-420.92 -115.97,-2.29 -64.95,227.52 -97.42,275.31 -32.46,47.77 -197.17,168.38 -44.07,420.94l0 -6.83z"/>
  <path class="fil6" d="M9926.78 12799.24c-43.6,-20.36 -217.96,-84.77 -258.05,-98.67 -63.4,68.69 -116.99,191.56 -66.55,404.93 3.15,0.3 6.01,0.6 9.13,0.9 417.54,38.66 549.76,43.22 559.03,-45.51 9.29,-88.73 -4.63,-150.17 -243.56,-261.65z"/>
  <path class="fil10" d="M9214.65 6362.46l-2.31 1026.14 -832.77 -236.61 -171.66 354.95c0,0 630.96,313.99 1060.1,402.72 429.12,88.74 396.66,-284.44 354.91,-778.14 -41.75,-493.76 -48.71,-1037.56 -450.02,-1151.31 0,0 41.75,77.35 41.75,382.25z"/>
  <polygon class="fil14" points="6639.84,6521.72 7795.02,6542.2 7989.87,8057.54 6883.4,8078.02 "/>
  <path class="fil4" d="M8456.13 7399.99c59.07,-158.63 -57.99,-336.74 -192.55,-418.64 -134.53,-81.92 -129.88,-95.56 -378.09,-95.56 -248.22,0 -238.91,72.79 -224.99,120.56 13.92,47.79 120.61,54.61 139.18,141.08 18.53,86.44 41.75,172.92 -4.66,193.4 -46.41,20.47 -55.67,118.29 48.72,127.42 104.38,9.09 171.67,-2.3 213.42,13.65 41.75,15.91 301.54,179.74 398.97,-81.91z"/>
  <path class="fil15" d="M8461.14 7235.84c1.39,37.76 -3.51,75.14 -19.55,109.78 -37.41,80.88 -120.58,153.26 -215.56,147.36 -52.19,-3.21 -96.03,-39.58 -141.12,-60.72 -73.68,-34.54 -117.31,-7.7 -188.76,10.46 -35.61,9.04 -73,15.45 -105.53,8.11 12.79,8.87 30.04,15.4 53.12,17.42 104.38,9.09 171.67,-2.3 213.42,13.65 41.75,15.91 301.54,179.74 398.97,-81.91 20.09,-54.01 19.45,-110.17 5.01,-164.15z"/>
  <path class="fil4" d="M8001.46 7033.66c0,0 -250.52,-6.83 -313.15,2.27 -62.63,9.11 -124.08,136.51 40.59,161.55 164.7,25.04 283.59,17.07 283.59,17.07l-11.03 -180.89z"/>
  <path class="fil4" d="M8026.41 7197.48c0,0 -231.39,-6.83 -297.51,0 -66.1,6.83 -86.98,138.24 66.12,143.35 153.09,5.13 240.08,6.81 240.08,6.81l-8.69 -150.16z"/>
  <path class="fil12" d="M7711.52 4526.31c0,0 -329.38,-364.07 185.58,-682.59 514.96,-318.55 1294.36,-136.52 1438.16,309.42 143.83,445.96 106.73,1260.52 -13.91,1424.34 -120.62,163.83 -222.69,177.48 -681.98,177.48 -459.29,0 -821.16,40.95 -927.85,-95.57 -106.7,-136.51 -185.59,-209.33 0,-1133.08z"/>
  <path class="fil6" d="M8868.88 5885.41c-211.7,-56.55 -412.75,-97.47 -412.75,-97.47 -78.56,4.01 -260.18,44.94 -420.63,84.45 7.63,205.08 141.65,381.15 332.44,415.26 207.44,37.05 437.69,-173.58 500.94,-402.24z"/>
  <path class="fil4" d="M8630.1 5826.19l0 -331.76 -396.67 64.84 0 266.84c-27.05,5.9 -54.83,12.15 -83,18.73 -17.23,153.85 80.95,294.63 227.31,319.56 152.73,25.99 323.48,-134.11 352.09,-295.7 1.11,-6.22 1.59,-12.21 2.23,-18.23 -36.19,-8.88 -70.48,-16.98 -101.96,-24.28z"/>
  <path class="fil11" d="M8451.39 5786.65c62.52,-15.99 126.82,-34.83 178.71,-72.04l0 -220.18 -396.67 64.84 0 248.16c69.51,18.02 151.63,-3.79 217.96,-20.78z"/>
  <path class="fil4" d="M8108.65 4030.25c-142.14,69.81 -244.53,208.76 -256.88,375.57l-54.58 737.76c-20.46,276.31 191.34,516.58 473.05,536.65l72.42 5.16c371.7,26.45 694.92,-247.64 721.87,-612.25l41.08 -555.14c2.82,-37.35 0.68,-73.88 -4.97,-109.37 -630.82,2.29 -889.84,-226.32 -991.99,-378.38z"/>
  <path class="fil11" d="M7894.05 4311.59c24.09,-30.42 50.85,-45.93 88.96,-28.17 62.69,29.18 117.83,69.04 181.9,96.86 291.55,126.55 625.3,204.43 940.43,141.76l0.27 -4.04c2.82,-37.35 0.68,-73.88 -4.97,-109.37 -630.82,2.29 -889.84,-226.32 -991.99,-378.38 -138.17,67.88 -238.53,201.15 -255.39,361.74 9.91,-29.02 22.41,-57.19 40.79,-80.4z"/>
  <path class="fil4" d="M9033.72 5131.51c0,0 32.48,81.91 148.45,36.42 115.99,-45.51 208.54,-311.12 95.11,-445.97 -76.55,-91 -208.77,-34.13 -222.68,52.34l-20.88 357.21z"/>
  <path class="fil13" d="M9133.34 4934.19c8.38,-5.9 22.41,-12.32 44.82,-7.18 10.46,2.53 19.35,7.39 22.99,20.51 3.76,12.53 1.9,30.43 -7.49,46.43 -9.35,15.9 -26.81,27.04 -45.9,20.84 -19.32,-4.01 -30.31,-24.54 -33.68,-47.02 -0.78,-6.03 -1.11,-12.12 -1.2,-18.23 3.34,1.33 4.76,-2.3 20.46,-15.35zm118.61 -119.94c-1.17,-7.81 -6.18,-20.37 -19.62,-28.92 -13.08,-8.87 -34.13,-11.36 -53.7,-3.17 -19.76,7.65 -36.6,24.55 -49.08,44.48 -23.65,39.81 -41.5,90.27 -36.46,143.92 1.98,13.32 5.6,26.91 13.31,39.31 7.43,12.56 21.02,22.36 35.1,26.13 13.92,4.02 30.23,3.74 43.17,-3.25 12.95,-6.55 22.27,-16.79 28.81,-27.41 12.47,-21.68 15.17,-44.53 9.19,-64.27 -5.07,-20.67 -26.11,-32.9 -40.37,-34.4 -28.66,-5.68 -50.65,5.65 -59.7,15.58 -4.65,4.89 -7.46,9.1 -9.27,12.65 2.42,-35.8 14.69,-71.54 30.25,-100.26 10.36,-18.4 24.25,-33.67 40.23,-40.96 15.84,-7.75 32.56,-6.98 43.89,-0.84 11.64,5.84 17.37,15.8 19.79,22.63 2.57,6.94 3.29,11.22 4.26,11.17 0.59,0 1.51,-4.37 0.2,-12.39z"/>
  <path class="fil13" d="M8374.93 5097.38c-1.5,2.29 -17.17,-3.9 -39.42,-19.44 -10.96,-8.16 -24.13,-17.56 -35.18,-34.73 -2.51,-4.56 -5.15,-9.91 -5.32,-17.06 0.11,-8.36 2.37,-11.8 3.92,-16.85 3.4,-9.28 7.41,-18.24 11.55,-27.47 34.05,-72.95 68.71,-128.05 73.74,-125.62 5.37,2.65 -20.96,62.06 -54.53,134.06 -4.03,8.95 -8.15,17.83 -11.46,26.1 -3.79,9.8 -4.18,10.48 -0.81,17.83 6.93,12.64 18.54,23.78 27.61,32.52 18.9,17.66 31.57,28.23 29.9,30.66z"/>
  <path class="fil13" d="M8031.86 4708.15c4.23,-43.8 30.39,-77.17 58.47,-74.57 28.04,2.62 47.35,40.22 43.12,84.01 -4.23,43.8 -30.38,77.16 -58.45,74.57 -28.05,-2.62 -47.37,-40.22 -43.14,-84.01z"/>
  <path class="fil13" d="M8674.39 4708.15c4.22,-43.8 30.42,-77.17 58.48,-74.57 28.06,2.62 47.41,40.22 43.11,84.01 -4.19,43.8 -30.39,77.16 -58.45,74.57 -28.06,-2.62 -47.37,-40.22 -43.14,-84.01z"/>
  <path class="fil5" d="M8597.7 5231.63l-390.29 0c-27.75,0 -50.32,18.95 -50.52,42.43 -1,114.54 62.63,207.86 243.92,207.86l3.51 0c188.68,0 243.92,-92.37 243.92,-206.33l0 -1.2c0,-23.62 -22.63,-42.76 -50.54,-42.76z"/>
  <path class="fil14" d="M8404.32 5313.54l-3.47 0c-111.74,0 -176.4,32.52 -210.81,82.6 35.44,51.85 101.71,85.78 210.81,85.78l3.47 0c111.7,0 176.4,-32.52 210.78,-82.59 -35.44,-51.87 -101.69,-85.79 -210.78,-85.79z"/>
  <path class="fil13" d="M8098.59 4419.71c-9.15,-5.79 -20.08,-11.03 -32.53,-14.75 -6.2,-1.88 -13.07,-2.91 -20.14,-3.38 -7.66,0 -14.93,0.99 -21.46,2.97 -26,8.28 -45.17,23.52 -61.16,37.46 -31.62,28.51 -49.37,54.83 -46.32,57.48 3.16,2.89 26.58,-18.13 59.79,-40.87 16.37,-11.09 36.21,-22.91 54.83,-27.28 16.4,-4.64 35.24,4.59 50.76,13.85 30.88,20.07 45.62,35.19 55.13,40.57 9.32,5.97 12.77,4.45 16.09,1.77 3.22,-2.59 5.53,-6.01 -0.19,-16.16 -6.25,-9.72 -18.6,-28.04 -54.8,-51.66z"/>
  <path class="fil13" d="M8661.72 4419.71c9.38,-5.79 20.63,-11.03 33.38,-14.75 6.4,-1.88 13.44,-2.91 20.7,-3.38 7.85,0 15.34,0.99 22.05,2.97 26.69,8.28 46.38,23.52 62.77,37.46 32.48,28.51 50.72,54.83 47.57,57.48 -3.25,2.89 -27.3,-18.13 -61.37,-40.87 -16.82,-11.09 -37.19,-22.91 -56.32,-27.28 -16.84,-4.64 -36.18,4.59 -52.11,13.85 -31.73,20.07 -46.84,35.19 -56.62,40.57 -9.57,5.97 -13.14,4.45 -16.53,1.77 -3.28,-2.59 -5.68,-6.01 0.22,-16.16 6.41,-9.72 19.1,-28.04 56.26,-51.66z"/>
  <path class="fil12" d="M11810.34 12589.91c0,0 13.92,208.18 3.48,341.29 -10.44,133.1 10.44,126.28 -59.16,153.58 -69.58,27.31 -1005.56,191.12 -1308.27,105.8 -302.72,-85.32 -90.47,-262.8 -6.96,-310.58 83.5,-47.78 716.77,-255.96 828.11,-286.68 111.34,-30.72 542.8,-3.41 542.8,-3.41z"/>
  <path class="fil16" d="M10912.63 12897.07c-14.83,-57.01 -70.14,-105.31 -136.45,-143.99 -157.71,54.17 -300.13,105.95 -336.75,126.92 -83.51,47.78 -295.76,225.26 6.96,310.58 104.02,29.32 282.77,29.21 475.52,15.37 8.23,-106.4 11.13,-230.47 -9.28,-308.88z"/>
  <path class="fil13" d="M11117.92 13095.02c-558.52,43.09 -760.44,19.51 -794.71,-115.66 -54.25,70.72 -63.77,158.52 123.18,211.22 302.71,85.32 1238.69,-78.49 1308.27,-105.8 65.28,-25.61 50.98,-21.19 57.54,-130.41 -108.97,46.89 -320.36,111.79 -694.28,140.65z"/>
  <path class="fil12" d="M12962.05 12617.21c0,0 27.83,392.48 27.83,457.33 0,64.84 274.88,143.35 744.61,228.67 469.73,85.32 591.51,44.37 629.79,-34.13 38.27,-78.5 34.79,-208.19 -173.98,-324.23 -208.76,-116.04 -695.9,-201.36 -702.85,-296.93 -6.96,-95.56 -525.4,-30.71 -525.4,-30.71z"/>
  <path class="fil16" d="M13734.49 13303.21c469.73,85.32 591.51,44.37 629.79,-34.13 38.27,-78.5 34.79,-208.19 -173.98,-324.23 -62.63,-34.81 -150.34,-66.84 -242.59,-97.25 -99.04,72.1 -219.1,209.3 -226.77,453.12 4.53,0.82 8.95,1.67 13.55,2.49z"/>
  <path class="fil13" d="M14364.28 13269.08c7.82,-16.06 13.72,-34.38 16.67,-54.15 -89.22,41.83 -281.82,58.6 -764.77,-34.59 -326.61,-63.04 -519.36,-134.99 -629.84,-190.19 2.15,39.09 3.54,69.92 3.54,84.39 0,64.84 274.88,143.35 744.61,228.67 469.73,85.32 591.51,44.37 629.79,-34.13z"/>
  <path class="fil8" d="M11458.91 8173.58l-229.64 4419.74c0,0 299.23,167.23 605.43,17.07l375.78 -3924.87 427.97 -3.41 313.16 3982.88c0,0 295.75,170.65 577.59,10.24l-132.22 -4515.3 -1938.07 13.65z"/>
  <path class="fil17" d="M11743.56 8171.58l-284.65 2 -16.98 326.85c190.29,-98.79 269.35,-239.98 301.63,-328.85z"/>
  <path class="fil17" d="M13405.39 8446.42l-8.41 -286.49 -282.37 1.98c48.35,92.35 147.09,243.39 290.78,284.51z"/>
  <path class="fil17" d="M12304.42 8050.71c0,0 -3.47,378.84 10.44,419.79 13.92,40.96 194.85,30.72 194.85,30.72l13.92 -464.16 -219.21 13.65z"/>
  <path class="fil10" d="M12488.83 5228.22c212.26,-3.41 549.76,6.83 803.77,64.84 254,58.03 354.9,375.43 480.16,952.21 125.26,576.79 160.06,686 160.06,686l414.06 -839.58 382.74 201.36c0,0 -215.73,651.87 -480.17,1071.66 -264.43,419.79 -567.15,279.86 -671.54,-64.84 -104.38,-344.71 -260.96,-948.79 -260.96,-948.79l-1729.29 0c0,0 -501.05,662.1 -706.34,795.2 -205.29,133.11 -514.97,143.35 -508.01,-498.28 6.96,-641.64 13.92,-969.27 13.92,-969.27l483.65 -58.02 13.92 726.95c0,0 574.11,-863.47 755.04,-986.33 180.94,-122.87 448.86,-126.67 848.99,-133.11z"/>
  <path class="fil9" d="M11528.5 6419.38c-146.89,101.55 -272.73,229.71 -419.37,331.88 -100.49,70 -269.2,182.14 -395.3,104.24 -66.36,-41 -101.26,-115.36 -120.81,-187.4 -40.5,-149.28 -54.69,-312.68 -48.32,-466.65 5.23,-126.75 14.36,-290.13 106.48,-388.78 53.88,-57.69 152.9,-118 212.55,-191.12l-476.5 57.18c0,0 -6.96,327.63 -13.92,969.27 -6.96,641.63 302.72,631.39 508.01,498.28 167.96,-108.91 533.78,-571.76 661.3,-736.53 -5.1,3.44 -9.91,6.74 -14.12,9.63z"/>
  <path class="fil9" d="M14346.88 6091.69l-39.26 79.59c47.81,115.19 161.29,228.12 187.99,336.54 33.42,135.67 -50.56,291.38 -122.62,402.24 -66.59,102.44 -146.78,215.72 -256.73,277.75 -131,73.92 -255.2,24.63 -345.28,-84.67 -110.84,-134.44 -177.17,-298.97 -251.66,-453.97 -25.86,-53.73 -102.52,-255.2 -192.46,-260.06 35.91,137.47 162.34,617.74 251.05,910.76 104.39,344.7 407.11,484.63 671.54,64.84 264.44,-419.79 480.17,-1071.66 480.17,-1071.66l-382.74 -201.36z"/>
  <path class="fil6" d="M12071.66 5402.79c27.59,66.73 71.54,122.51 139.99,152.82 101.63,45.03 222.43,49.31 330.1,23.27 171.84,-41.61 376.7,-161.75 346.86,-340.29 -147.47,-10.18 -290.3,-12.12 -399.78,-10.37 -156.24,2.51 -292.1,4.72 -410.71,13.68 -15.92,53.7 -27.84,109.13 -6.46,160.89z"/>
  <path class="fil4" d="M12473.19 5508.08c166.21,0 300.96,-105.42 300.96,-235.5 0,-13.89 -1.84,-27.41 -4.79,-40.64 -103.76,-4.35 -200.97,-5 -280.55,-3.72 -102.69,1.67 -196.58,3.17 -282.7,6.53 -17.15,38.28 -26.95,77.45 -26.95,112.92 0,130.07 127.77,160.41 294.03,160.41z"/>
  <path class="fil4" d="M12276.59 5276l0 -296.92 410.58 0 0 293.5c0,0 -167.02,98.99 -410.58,3.42z"/>
  <path class="fil11" d="M12348.15 5273.81c52.53,11.58 107.37,5.44 158.89,-8.38 58.49,-15.62 133.76,-41.77 180.13,-88.35l0 -198 -410.58 0 0 259.6c22.55,15.62 46.13,29.54 71.56,35.13z"/>
  <polygon class="fil10" points="11580.7,5781.11 11410.2,8293.03 13417.86,8293.03 13376.1,5661.66 "/>
  <path class="fil9" d="M13319.96 6615.54c-41.61,226.2 -128.3,443.59 -340.38,564 -108.95,61.84 -231.06,102.06 -353.9,127.7 -48.36,10.1 -290.44,40.6 -283.09,113.03 10.05,99.56 194.9,82.08 261.04,85.55 52.84,2.78 159.75,-2.35 188.73,54 33.82,65.83 -86.21,134.99 -132.05,151.57 -139.88,50.61 -298.62,71.12 -444.54,101.07 -186.23,38.25 -390.2,66.3 -577.29,18.38 -67.62,-17.31 -131.5,-42.24 -191.93,-73.32l-36.35 535.51 2007.66 0 -35.55 -2241.58c-13.83,188.69 -28.06,377.69 -62.35,564.09z"/>
  <path class="fil17" d="M13570.96 3161.13c0,0 120.61,-423.23 -287.64,-614.35 -408.26,-191.13 -862.91,-31.84 -1238.69,-327.64 0,0 18.54,227.54 97.43,313.98 0,0 -375.79,-13.65 -552.1,-213.83 0,0 -120.61,427.73 41.76,732.6 0,0 -162.37,27.33 -227.31,-22.72 0,0 -4.65,500.56 695.9,609.77 700.51,109.22 1006.7,932.85 1192.29,700.77 185.58,-232.08 487.12,-919.19 487.12,-960.15 0,-40.96 -78.86,-172.94 -208.76,-218.43z"/>
  <path class="fil4" d="M13205.39 3888.3c11.99,-152.37 44.57,-291 89.43,-400.19 4.96,-128.81 -69.48,-245.09 -183.41,-299.38 -137.87,83.28 -344.24,136.22 -575.03,136.22 -246.68,0 -465.58,-60.45 -602.62,-153.8 -50.49,51.88 -85.2,119.34 -94.64,196.04l-133.16 1054.95c-42.2,342.85 206.96,627.03 556.49,668.39 451.74,53.48 862.16,-235.05 916.69,-678.17l30.34 -239.44c-10.13,-87.02 -12.08,-183.52 -4.09,-284.62z"/>
  <path class="fil11" d="M13111.41 3188.73c-137.87,83.28 -344.24,136.22 -575.03,136.22 -246.68,0 -465.58,-60.45 -602.62,-153.8 -39.33,40.41 -68.92,90.4 -84.59,146.76 55.92,74.13 218.87,87.2 295.62,98.67 192.2,28.78 388.44,48.66 581.07,9.48 111.34,-22.64 270.65,-81.07 381.38,-30.75 94.08,42.73 123.17,153.8 136.64,251.93 14.23,-57.71 31.32,-111.37 50.94,-159.13 4.96,-128.81 -69.48,-245.09 -183.41,-299.38z"/>
  <path class="fil4" d="M13171.98 4112.19c0,0 68.42,-249.14 259.8,-232.08 206.65,18.43 190.19,436.86 -4.65,546.07 -194.86,109.21 -273.71,-45.52 -273.71,-45.52l18.56 -268.47z"/>
  <path class="fil13" d="M13468.96 4072.14c-3.45,-6.91 -10.66,-16 -22.48,-24.87 -11.75,-9.1 -31.27,-14.5 -51.76,-10.6 -20.45,3.93 -40.49,16.05 -56.5,32.55 -16.29,16.43 -29.95,36.67 -40.67,58.92 -10.22,22.46 -17.2,46.93 -20.9,71.94 -2.42,24.99 -3.93,50.67 6.2,77 4.18,12.94 16.4,26.51 31.57,31.89 15.76,5.92 30.7,2.32 42.56,-1.86 23.78,-9.72 39.14,-25.03 49.55,-41.01 5.06,-8.13 8.88,-16.6 10.58,-25.53 1.95,-8.3 1.44,-18.73 -0.22,-24.92 -2.84,-13.85 -9.55,-26.27 -18.66,-33.83 -9.07,-7.68 -18.71,-10.19 -25.78,-10.95 -14.44,-1.13 -21.28,2.48 -24.76,4.66 -3.46,2.49 -3.51,4.68 -2.9,6.64 0.81,4.78 5.12,4.73 23.38,9.5 8.55,3.31 18.01,8.93 20.99,29.05 1.31,9.28 -0.42,18 -7.99,29.62 -7.26,10.9 -19.76,22.56 -35.21,28.76 -16.26,6.03 -28.57,3.3 -35.52,-13.63 -7.02,-16.7 -7.49,-40.11 -5.73,-62.31 2.55,-22.33 7.93,-44.52 16.14,-65.14 8.71,-20.37 19.9,-39.1 33.18,-54.31 13.08,-15.39 29.08,-26.29 44.64,-30.69 15.51,-4.25 30.57,-2.12 41.54,4.18 10.86,6.12 19.04,13.14 23.85,18.62 5.23,5.22 8.58,7.92 9.47,7.37 0.89,-0.54 -0.7,-4.34 -4.57,-11.05z"/>
  <path class="fil13" d="M12141.56 3546.08c-9.13,-5.79 -20.08,-11.03 -32.52,-14.74 -6.2,-1.89 -13.08,-2.93 -20.15,-3.39 -7.65,0 -14.92,0.98 -21.46,2.98 -25.99,8.27 -45.15,23.5 -61.13,37.46 -31.65,28.48 -49.38,54.83 -46.34,57.47 3.17,2.87 26.61,-18.12 59.78,-40.87 16.38,-11.08 36.22,-22.91 54.84,-27.27 16.42,-4.68 35.24,4.58 50.75,13.83 30.9,20.07 45.65,35.2 55.14,40.58 9.33,5.98 12.78,4.45 16.09,1.77 3.23,-2.59 5.54,-6 -0.19,-16.16 -6.21,-9.72 -18.59,-28.04 -54.81,-51.66z"/>
  <path class="fil13" d="M12902.31 3594.25c-14.95,-14.34 -39.75,-23.35 -63.83,-20.64 -23.83,2.91 -44.14,13.37 -59.48,24.05 -30.54,21.95 -41.25,38.28 -46.12,47.26 -4.55,9.34 -2.07,12.56 1.28,15.07 3.39,2.51 6.79,4.1 15.03,-1.09 8.4,-4.8 21.01,-17.72 47.43,-36.7 13.19,-9.25 29.31,-17.88 45.71,-21.16 16.25,-2.95 33.37,0.74 46.23,9.65 26.39,18.53 36.24,46.02 40.44,44.17 2.01,-0.49 2.31,-7.86 -1.11,-19.28 -3.42,-11.3 -10.49,-27.16 -25.58,-41.33z"/>
  <path class="fil13" d="M12346.46 4144.03c-18.96,13.13 -44.24,34.13 -71.85,52.5 -3.34,2.02 -6.68,3.91 -8.88,4.84 -5.56,2.34 -15.22,6.55 -18.37,13.4 -3.73,6.85 -3.09,15.16 0.64,21.9 3.09,6.72 6.68,10.15 9.44,13.29 11.75,12.37 22.96,20.48 32.62,27.53 19.38,13.59 32.71,20.12 35.24,17.31 2.56,-2.89 -6.29,-14.77 -21.99,-31.81 -7.6,-8.52 -17.56,-18.46 -26.05,-29.22 -2.12,-2.7 -3.84,-5.43 -3.9,-5.92 0.02,-0.19 0.17,-0.28 0.33,-0.3 0.62,-0.25 -0.89,0.49 1.48,-0.46 5.95,-2.25 10.18,-4.79 14.53,-7.38 31.67,-21.13 53.89,-43.98 70.09,-61.3 15.75,-17.41 23.86,-29.81 21.18,-32.56 -2.7,-2.77 -15.53,4.58 -34.51,18.18z"/>
  <path class="fil5" d="M12708.1 4476.93l-557.78 16.53c-18.62,0.54 -33.92,14.6 -35.76,32.81l-3.45 34.16c-12.84,127.15 90.85,236.64 221.12,233.42l104.86 -2.54c157.61,-3.9 288.8,-119.97 308.89,-273.36 2.93,-22.2 -15.08,-41.67 -37.88,-41.02z"/>
  <path class="fil14" d="M12678.06 4674.15c-56.41,-63.83 -148.73,-104.13 -251.91,-101.13 -117.66,3.47 -217.56,62.39 -264.83,145.17 40.69,47.35 101.99,77.35 170.91,75.66l104.86 -2.54c96.92,-2.4 183.72,-47.31 240.97,-117.16z"/>
  <path class="fil13" d="M12007.36 3915.82c11.72,-59.22 42.37,-103.17 68.48,-98.2 26.11,4.94 37.77,56.98 26.05,116.2 -11.69,59.22 -42.36,103.18 -68.47,98.21 -26.09,-4.97 -37.75,-57.01 -26.06,-116.21z"/>
  <path class="fil13" d="M12738.05 3936.3c11.72,-59.22 42.34,-103.18 68.48,-98.21 26.08,4.94 37.77,56.99 26.05,116.21 -11.72,59.21 -42.39,103.17 -68.47,98.21 -26.11,-4.97 -37.78,-57.01 -26.06,-116.21z"/>
  <path class="fil11" d="M14482.58 6323.77c0,0 178.62,116.04 375.78,15.92 197.16,-100.09 211.08,-254.82 211.08,-293.51 0,-38.66 -264.44,-263.92 -459.29,-266.21 -194.85,-2.27 -301.55,13.65 -306.19,172.94 -4.63,159.26 58.01,282.13 178.62,370.86z"/>
  <path class="fil9" d="M13689.26 2856.23c0,0 250.52,-317.4 974.25,-317.4 723.73,0 995.13,317.4 2456.51,-208.19l-361.87 1064.84 800.28 784.97c0,0 -981.21,354.94 -1962.42,245.73 -981.21,-109.21 -1315.24,245.73 -1315.24,245.73l-591.51 -1815.68z"/>
  <path class="fil6" d="M14491.13 3257.73c3.61,20.73 2.8,40.16 -2.37,58.29 -5.23,18.16 -13.67,34.71 -25.31,49.97 -11.69,15.23 -26,28.75 -42.89,40.87 -16.92,12.12 -35.24,22.53 -55,31.46 -21.44,9.66 -41.48,16.62 -60.24,20.69 -18.71,4.04 -35.44,5.38 -50.1,3.72 -14.7,-1.64 -26.95,-6.53 -36.72,-14.92 -9.8,-8.38 -16.32,-20.36 -19.6,-36.17 -0.5,-2.68 0.14,-5.68 1.95,-8.99 1.73,-3.24 4.15,-5.89 7.1,-7.74 25.3,-16.03 37.96,-23.54 63.27,-37.63 6.26,-3.49 10.55,-4.83 12.83,-4.1 2.31,0.77 4.95,3.14 7.85,7.24 5.79,8.24 13.42,12.78 22.77,13.81 9.33,1.07 21.96,-2.26 37.77,-9.61 18.77,-8.76 32.07,-19.14 39.9,-31.92 7.84,-12.8 10.32,-27.49 7.31,-44.2 -9.13,-51.79 -13.72,-77.62 -22.88,-129.2 -67.58,29.71 -101.4,47.4 -169.05,90.24 -3.61,2.29 -6.98,3.11 -10.02,2.46 -3.08,-0.65 -4.92,-2.62 -5.56,-5.87 -3.48,-18.87 -5.21,-28.27 -8.66,-47.07 -0.64,-3.28 0.19,-6.97 2.43,-11.09 2.17,-4.1 5.06,-7.34 8.71,-9.72 98.68,-64.11 148.02,-88 246.7,-124.86 3.57,-1.34 6.94,-1.23 10.02,0.3 3.06,1.56 4.9,4.07 5.49,7.49 13.69,78.38 20.54,117.7 34.3,196.55z"/>
  <path class="fil6" d="M14762.11 3194.91c-0.54,-5.77 -1.42,-12.45 -2.29,-19.64 -0.86,-7.23 -1.95,-14.58 -3.2,-22.05 -1.25,-7.51 -2.62,-14.75 -4.15,-21.71 -1.5,-6.96 -2.81,-13.27 -4.12,-18.7 -1.92,-7.98 -5.04,-15.35 -8.99,-21.82 -3.95,-6.47 -8.91,-11.9 -14.87,-16.25 -5.92,-4.31 -12.94,-7.39 -21.01,-9.17 -8.07,-1.78 -17.26,-1.83 -27.47,-0.11 -10.22,1.78 -18.88,4.83 -25.92,9.18 -7.07,4.34 -12.78,9.55 -17.06,15.53 -4.26,6.04 -7.21,12.69 -8.86,20.01 -1.66,7.32 -1.91,15.24 -1.42,23.21 0.37,5.49 0.9,11.85 1.93,18.79 1.03,6.93 2.17,14.08 3.42,21.45 1.23,7.4 2.56,14.58 3.93,21.63 1.36,7.02 2.87,13.38 4.51,19.01 4.06,15.78 11.99,28 23.85,36.8 11.83,8.79 28.03,11.47 48.46,8.46 20.43,-3 34.68,-10.15 42.76,-22.06 8.08,-11.9 11.91,-26.46 10.5,-42.56zm-231.21 -41.1c-2.15,-17.93 -0.92,-35.85 3.45,-53.54 4.4,-17.69 12.11,-34.16 23.1,-49.2 11.06,-15.07 25.28,-28.34 42.73,-39.48 17.43,-11.14 38.36,-19.14 62.72,-23.51 24.05,-4.34 46.1,-4.09 66.05,0.41 19.96,4.48 37.41,12.18 52.44,22.83 15.01,10.65 27.42,23.91 37.19,39.62 9.8,15.72 16.81,32.81 20.77,51.11 3.06,14.03 5.81,28.88 8.38,44.31 2.58,15.48 4.7,30.04 6.26,43.46 2.12,18.46 0.89,36.1 -3.48,52.79 -4.37,16.68 -12.08,31.51 -23.05,44.58 -11.02,13.05 -25.3,23.76 -42.95,32.46 -17.62,8.66 -38.47,14.42 -62.52,17.75 -24.38,3.36 -46.48,3.47 -66.25,0.2 -19.73,-3.31 -37.16,-9.26 -52.22,-18.14 -15.03,-8.87 -27.47,-20.14 -37.24,-34.07 -9.8,-13.93 -16.84,-29.57 -20.8,-47.02 -2.92,-12.72 -5.62,-26.62 -8.2,-41.55 -2.57,-14.86 -4.74,-29.22 -6.38,-43.01z"/>
  <path class="fil6" d="M14946.57 3316.98c-3.62,0.03 -6.98,-1.26 -10.04,-3.88 -3.13,-2.62 -4.94,-5.73 -5.54,-9.37 -21.17,-128.4 -31.77,-192.49 -52.98,-320.32 -0.61,-3.6 0.2,-6.8 2.4,-9.53 2.17,-2.73 5.12,-4.2 8.71,-4.34 25.91,-0.95 38.86,-1.2 64.77,-1.34 3.65,-0.02 6.99,1.29 10.08,3.96 3.06,2.65 4.9,5.79 5.51,9.45 21.18,128.77 31.79,193.25 52.97,322.48 0.59,3.66 -0.19,6.8 -2.4,9.4 -2.19,2.59 -5.12,3.87 -8.76,3.82 -25.89,-0.5 -38.83,-0.57 -64.72,-0.33z"/>
  <path class="fil6" d="M15318.71 3335.88c-5.6,-0.44 -10.39,-2.38 -14.34,-5.71 -3.95,-3.33 -6.56,-5.87 -7.82,-7.62 -56.48,-72.93 -84.73,-109.32 -141.21,-181.02 11.07,68.04 16.65,102.08 27.72,170.21 0.62,3.68 -0.19,6.79 -2.39,9.31 -2.2,2.51 -5.09,3.63 -8.74,3.38 -25.91,-1.69 -38.86,-2.48 -64.75,-3.76 -3.61,-0.19 -6.98,-1.67 -10.04,-4.48 -3.1,-2.81 -4.93,-6.06 -5.52,-9.75 -21.21,-129.69 -31.81,-194.45 -53,-323.79 -0.61,-3.69 0.2,-6.8 2.42,-9.39 2.2,-2.6 5.1,-3.85 8.72,-3.74 20.57,0.68 30.84,1.09 51.44,2.09 5.59,0.28 10.38,2.02 14.31,5.2 3.95,3.22 6.57,5.67 7.85,7.4 56.48,71.23 84.7,107.49 141.18,180.25 -11.11,-68.25 -16.65,-102.39 -27.73,-170.59 -0.6,-3.74 0.22,-6.82 2.43,-9.28 2.17,-2.46 5.06,-3.63 8.71,-3.31 25.92,2.05 38.86,3.14 64.75,5.38 3.62,0.28 6.96,1.91 10.04,4.84 3.07,2.92 4.88,6.22 5.52,9.94 21.18,130.58 31.76,195.87 52.94,326.46 0.61,3.69 -0.2,6.8 -2.4,9.25 -2.19,2.49 -5.09,3.53 -8.71,3.23 -20.54,-1.8 -30.84,-2.71 -51.38,-4.5z"/>
  <path class="fil6" d="M15741.15 3231.66c-0.54,-5.87 -1.4,-12.7 -2.26,-19.96 -0.87,-7.32 -1.95,-14.83 -3.2,-22.5 -1.26,-7.64 -2.62,-15.1 -4.15,-22.25 -1.53,-7.16 -2.83,-13.68 -4.14,-19.25 -1.95,-8.28 -5.02,-16.09 -9,-23.13 -3.95,-7.07 -8.91,-13.29 -14.83,-18.59 -5.96,-5.32 -12.98,-9.61 -21.05,-12.92 -8.07,-3.27 -17.2,-5.13 -27.42,-5.62 -10.22,-0.47 -18.87,0.57 -25.96,3.22 -7.05,2.6 -12.76,6.37 -16.98,11.25 -4.27,4.88 -7.24,10.81 -8.86,17.66 -1.67,6.86 -1.98,14.67 -1.42,22.8 0.36,5.58 0.86,12.1 1.9,19.34 1,7.2 2.14,14.65 3.39,22.36 1.25,7.72 2.59,15.26 3.95,22.66 1.37,7.37 2.87,14.08 4.51,20.17 4.07,16.82 12.03,31.08 23.89,42.66 11.8,11.51 27.94,17.77 48.4,18.48 20.44,0.73 34.65,-4.45 42.76,-15.24 8.07,-10.78 11.88,-24.9 10.47,-41.14zm-231.15 -98.16c-2.12,-18.67 -0.89,-36.2 3.45,-52.32 4.37,-16.05 12.11,-29.78 23.1,-41.09 11.02,-11.3 25.25,-19.9 42.7,-25.91 17.42,-6 38.33,-8.27 62.72,-7.06 24.08,1.2 46.07,5.56 65.99,13.29 19.96,7.73 37.44,17.64 52.47,29.89 14.98,12.21 27.42,26.49 37.19,42.87 9.8,16.33 16.82,33.8 20.77,52.29 3.06,14.2 5.81,29.13 8.4,44.67 2.6,15.59 4.68,30.16 6.24,43.71 2.12,18.49 0.89,36.1 -3.45,52.64 -4.37,16.52 -12.11,31.12 -23.05,43.5 -11.02,12.39 -25.36,22.11 -42.95,28.96 -17.65,6.86 -38.5,10 -62.58,9.26 -24.38,-0.74 -46.43,-5.24 -66.19,-13.25 -19.7,-7.97 -37.13,-18.64 -52.19,-31.94 -15.03,-13.24 -27.45,-28.45 -37.24,-45.62 -9.8,-17.14 -16.76,-35.19 -20.75,-54.09 -2.92,-13.82 -5.67,-28.62 -8.23,-44.47 -2.59,-15.79 -4.73,-30.97 -6.4,-45.33z"/>
  <path class="fil6" d="M16138.56 2979.97c3.61,-0.79 6.96,-0.24 10.04,1.72 3.1,1.94 4.9,4.67 5.52,8.2 13.11,76.42 19.65,114.56 32.76,190.6 3.76,21.93 3.5,42.27 -0.89,61.03 -4.34,18.75 -12.19,35.57 -23.58,50.29 -11.38,14.69 -25.78,27.08 -43.23,36.85 -17.45,9.76 -37.24,16.55 -59.31,20.13 -22.39,3.6 -43.34,3.41 -62.83,-0.44 -19.43,-3.85 -36.74,-11.22 -51.88,-21.87 -15.15,-10.65 -27.79,-24.63 -37.92,-41.53 -10.16,-16.96 -17.17,-36.86 -20.93,-59.6 -13.11,-78.83 -19.66,-118.31 -32.76,-197.38 -0.62,-3.6 0.19,-6.8 2.42,-9.52 2.19,-2.74 5.09,-4.18 8.71,-4.32 25.91,-1.04 38.89,-1.77 64.77,-3.74 3.63,-0.27 6.96,0.79 10.05,3.2 3.09,2.43 4.93,5.4 5.51,9.01 12.98,77.59 19.43,116.34 32.4,193.71 3.29,19.55 10.75,34.38 22.33,44.32 11.55,9.88 27.19,13.51 47.01,10.48 19.79,-3 33.57,-11.14 41.48,-23.89 7.85,-12.7 10.16,-28.78 6.88,-48.09 -12.98,-76.25 -19.49,-114.48 -32.43,-191.06 -0.62,-3.58 0.16,-6.85 2.39,-9.89 2.22,-3 5.1,-4.8 8.74,-5.46 25.91,-4.45 38.86,-6.99 64.75,-12.75z"/>
  <path class="fil6" d="M16333.97 3070.65c22.32,-8.99 33.51,-13.76 55.86,-24.03 13.83,-6.39 24.83,-14.39 33.02,-23.78 8.2,-9.36 11.13,-20.53 8.85,-33.31 -2.31,-12.78 -8.44,-19.3 -18.38,-19.8 -9.88,-0.48 -21.79,2.43 -35.62,8.63 -22.36,10 -33.52,14.66 -55.88,23.35 4.85,27.6 7.3,41.39 12.15,68.94zm31.01 -163.91c21.73,-9.42 41.58,-16.43 59.45,-20.69 17.9,-4.26 33.62,-5.62 47.18,-3.8 13.55,1.81 24.77,7.16 33.54,16.41 8.83,9.26 14.81,22.42 18.01,39.73 4.09,22.41 2.4,44.18 -5.15,65.17 -7.49,21 -19.93,41.02 -37.32,59.41 32.31,29.27 48.49,43.14 80.83,69.19 1.34,1.12 2.15,2.43 2.4,3.94 0.5,2.64 -0.17,5.65 -1.98,9 -1.75,3.36 -4.12,5.96 -7.1,7.89 -26.89,17.56 -40.31,25.75 -67.22,41.07 -6.6,3.8 -11.53,5 -14.81,3.85 -3.28,-1.15 -6.01,-2.68 -8.15,-4.48 -28.95,-26.92 -43.43,-40.98 -72.44,-70.22 -18.17,8.4 -27.28,12.39 -45.45,19.93 7.04,39.73 10.54,59.58 17.56,99.19 0.58,3.39 -0.22,6.88 -2.39,10.49 -2.23,3.63 -5.12,6.16 -8.77,7.7 -25.89,10.92 -38.83,15.92 -64.75,25.14 -3.61,1.31 -6.96,1.15 -10.02,-0.46 -3.11,-1.59 -4.92,-4.13 -5.54,-7.56 -21.18,-121.51 -31.79,-182.53 -53.02,-305.1 -0.58,-3.46 0.19,-6.82 2.42,-10.12 2.2,-3.3 5.12,-5.52 8.74,-6.61 53.58,-16.19 80.39,-25.83 133.98,-49.07z"/>
  <path class="fil6" d="M15014.18 3510.7c4.26,-0.61 8.11,0.43 11.56,3.09 3.48,2.67 5.42,6.08 5.93,10.26 2.83,24.14 4.25,36.2 7.09,60.37 0.51,4.2 -0.61,7.97 -3.37,11.35 -2.72,3.36 -6.2,5.33 -10.49,5.84 -40.87,5.11 -61.32,8.9 -102.18,19.96 13.77,114.74 20.68,172.26 34.46,287.7 0.47,4.12 -0.64,8 -3.37,11.69 -2.76,3.71 -6.24,6.03 -10.52,7.04 -30.43,7.29 -45.66,11.77 -76.08,22.78 -4.23,1.55 -8.13,1.47 -11.58,-0.31 -3.42,-1.74 -5.4,-4.61 -5.9,-8.68 -13.78,-113.01 -20.68,-169.33 -34.46,-281.49 -40.89,18.59 -61.32,29.72 -102.21,56.65 -4.26,2.81 -8.13,3.9 -11.61,3.19 -3.45,-0.74 -5.4,-3 -5.9,-6.88 -2.84,-22.49 -4.26,-33.72 -7.1,-56.16 -0.5,-3.91 0.62,-8.38 3.34,-13.35 2.73,-5.02 6.26,-9.04 10.55,-11.94 124.73,-85.07 187.09,-103.83 311.84,-121.11z"/>
  <path class="fil6" d="M15409.28 3843.14c4.24,0.74 8.11,2.98 11.56,6.67 3.47,3.68 5.42,7.7 5.93,12.01 2.84,24.98 4.26,37.46 7.12,62.47 0.48,4.31 -0.64,7.76 -3.37,10.35 -2.75,2.56 -6.26,3.49 -10.49,2.76 -110.06,-19.42 -165.09,-29.28 -275.19,-30.51 -4.28,-0.05 -8.12,-1.58 -11.6,-4.69 -3.45,-3.05 -5.43,-6.69 -5.93,-10.92 -17.37,-149.02 -26.03,-223.37 -43.4,-371.6 -0.49,-4.21 0.64,-7.94 3.37,-11.14 2.7,-3.22 6.27,-4.94 10.55,-5.08 108.23,-4.04 162.37,3.77 270.54,21.16 4.25,0.68 8.07,2.84 11.52,6.47 3.51,3.72 5.45,7.65 5.93,11.99 2.87,24.93 4.29,37.41 7.13,62.36 0.5,4.32 -0.59,7.81 -3.37,10.4 -2.76,2.62 -6.24,3.58 -10.47,2.89 -71.51,-11.76 -107.28,-17.08 -178.79,-21.46 2.9,25.13 4.35,37.69 7.27,62.8 66.41,4.45 99.59,9.29 166.01,20.07 4.23,0.71 8.1,2.87 11.58,6.56 3.45,3.6 5.4,7.64 5.9,11.93 2.84,24.95 4.26,37.43 7.13,62.39 0.47,4.31 -0.64,7.8 -3.37,10.4 -2.73,2.59 -6.26,3.55 -10.5,2.86 -66.41,-11.06 -99.59,-16.08 -166.01,-21.07 2.98,26.07 4.51,39.09 7.52,65.2 73.4,5.95 110.06,12.01 183.43,24.73z"/>
  <path class="fil6" d="M15605.56 3819.36c37.63,6.5 56.45,9.59 94.08,14.67 -25.3,-58.82 -37.91,-88.47 -63.18,-147.99 -12.37,53.38 -18.54,80.06 -30.9,133.32zm64.72 -241.75c7.71,1.16 13.88,4.16 18.45,9.02 4.54,4.88 7.82,9.55 9.88,14.09 67.53,154.59 101.3,230.84 168.88,376.92 2,3.88 3.12,6.74 3.34,8.68 0.42,3.47 -0.5,6.44 -2.72,8.9 -2.26,2.51 -5.1,3.72 -8.58,3.67 -29.26,-0.5 -43.9,-1.29 -73.15,-3.61 -7.77,-0.63 -13.5,-2.79 -17.15,-6.42 -3.68,-3.55 -6.07,-6.96 -7.18,-10.18 -8.74,-20.02 -13.08,-30.04 -21.79,-50.19 -61.8,-6.88 -92.67,-12.15 -154.44,-23.1 -4.31,18.41 -6.46,27.61 -10.72,45.98 -0.42,3.04 -2.11,5.88 -5.01,8.63 -2.86,2.7 -8.21,3.42 -15.98,2 -29.25,-5.36 -43.86,-8.14 -73.12,-13.55 -3.48,-0.65 -6.65,-2.46 -9.49,-5.48 -2.75,-3.04 -4.37,-6.31 -4.79,-9.83 -0.2,-1.97 0.22,-4.75 1.33,-8.41 33.72,-139.25 50.56,-208.76 84.27,-348.04 1.05,-4.04 3.37,-7.89 6.92,-11.44 3.57,-3.58 9.25,-4.67 16.98,-3.28 37.64,6.74 56.43,10.03 94.07,15.64z"/>
  <path class="fil6" d="M16077.31 3873.37c-3.64,-2.33 -6.62,-4.78 -8.9,-7.32 -26.28,-31.75 -39.39,-48.3 -65.69,-82.51 8.91,75.11 13.36,112.6 22.24,187.44 0.5,4.15 -0.67,8.02 -3.4,11.54 -2.72,3.53 -6.23,5.69 -10.46,6.37 -30.43,4.83 -45.66,6.41 -76.05,8.36 -4.32,0.24 -8.16,-1.07 -11.61,-3.97 -3.45,-2.89 -5.46,-6.49 -5.92,-10.7 -17.38,-148.39 -26.06,-222.82 -43.43,-372.01 -0.48,-4.23 0.67,-7.89 3.37,-10.94 2.75,-3.09 6.28,-4.65 10.55,-4.7 26.94,-0.33 40.39,-0.9 67.33,-3.25 7.77,-0.68 13.81,0.82 18.17,4.56 4.38,3.74 7.22,6.5 8.61,8.25 45.09,58.53 67.64,86.28 112.73,137.5 30.18,-72.47 45.26,-109.6 75.44,-185.92 0.92,-2.29 3.09,-6.27 6.48,-11.93 3.37,-5.65 8.94,-10.12 16.71,-13.64 26.94,-12.19 40.39,-19.07 67.33,-34.79 4.26,-2.51 8.1,-3.25 11.56,-2.29 3.5,0.98 5.42,3.43 5.92,7.36 17.37,138.38 26.03,207.18 43.4,343.97 0.5,3.88 -0.58,8.33 -3.37,13.35 -2.73,5.03 -6.21,8.96 -10.53,11.91 -30.39,20.75 -45.62,29.84 -76.04,45.81 -4.23,2.22 -8.13,2.65 -11.55,1.31 -3.42,-1.33 -5.43,-4.01 -5.9,-8.02 -8.88,-72.06 -13.37,-108.18 -22.24,-180.59 -17.43,45.93 -26.11,68.53 -43.53,113.1 -1.57,3.65 -3.82,7.69 -6.74,11.98 -2.9,4.34 -7.24,7.51 -13.06,9.47 -14.87,5.03 -22.32,7.32 -37.16,11.42 -5.79,1.64 -10.58,1.17 -14.26,-1.12z"/>
  <path class="fil8" d="M15880.83 9606.29l-2185.56 -6996.34c-8.85,-28.31 -39.41,-44.28 -68.28,-35.57l-28.56 8.58c-28.87,8.62 -45.09,38.66 -36.24,66.94l2185.55 6996.34c8.88,28.32 39.42,44.26 68.28,35.58l28.56 -8.58c28.87,-8.68 45.1,-38.63 36.25,-66.95z"/>
  <path class="fil4" d="M14807.34 5709.44c-136.87,63.7 -201.81,72.82 -236.61,-2.26 -34.79,-75.09 23.19,-143.35 134.53,-188.86 111.35,-45.51 229.65,-25.04 234.3,77.35 4.62,102.39 -132.22,113.77 -132.22,113.77z"/>
  <path class="fil4" d="M14779.5 5668.49c122.87,-45.47 206.43,0 227.31,70.52 20.87,70.55 -32.46,91.03 -111.35,136.52 -78.85,45.51 -211.07,65.99 -241.22,-20.48 -30.18,-86.44 -16.26,-134.22 125.26,-186.56z"/>
  <path class="fil4" d="M14823.57 5820.92c122.22,-52.75 206.45,6.83 213.41,79.64 6.96,72.83 -48.71,81.92 -122.95,106.96 -74.23,25 -176.28,15.91 -201.81,-36.43 -25.52,-52.31 -4.64,-100.09 111.35,-150.17z"/>
  <path class="fil4" d="M14482.58 6323.77c-194.86,-129.69 -245.87,-316.25 -204.13,-505.11 41.76,-188.86 160.06,-186.57 241.23,-163.83 81.2,22.75 208.77,102.39 169.35,202.52 -39.44,100.09 -227.33,-9.12 -238.94,-29.6 0,0 296.92,273.03 32.49,496.02z"/>
  <path class="fil4" d="M14920.99 6096.25c0,0 -78.86,36.39 -143.83,27.31 -64.94,-9.13 -83.5,-100.13 18.57,-141.08 102.07,-40.96 243.56,-59.17 287.63,-4.57 44.09,54.61 -23.19,275.34 -225,361.78 0,0 266.75,-236.61 62.63,-243.44z"/>
  <path class="fil11" d="M10833.78 5752.66c0,0 -190.23,104.69 -447.72,6.83 -257.48,-97.83 -143.79,-368.6 -53.33,-407.26 90.47,-38.69 141.49,-334.46 245.88,-291.25 104.38,43.23 426.8,113.78 454.64,220.7 27.84,106.94 -199.47,470.98 -199.47,470.98z"/>
  <path class="fil8" d="M10648.19 4644.6c0,0 3.48,631.4 -302.71,1197.95 0,0 146.13,109.21 236.61,150.17 27.83,17.06 358.38,-378.84 403.61,-1354.93l-337.51 6.81z"/>
  <path class="fil17" d="M10714.25 4919.91c83.45,-2.08 166.62,-7.67 250.07,-9.15 9.53,-85.48 16.91,-176.27 21.38,-272.97l-337.51 6.81c0,0 0.53,108.62 -20.57,275.88 30.12,0.77 59.74,0.09 86.63,-0.57z"/>
  <path class="fil14" d="M11608.53 4043.93c0,0 -1336.12,-348.12 -2219.91,-784.97l-285.31 1645.03c0,0 1259.56,-184.3 2338.21,-204.78 0,0 334.02,-177.47 167.01,-655.28z"/>
  <path class="fil8" d="M10561.01 4744.46c179.96,-14.01 365.76,-26.02 550.54,-34.43 216.31,-317.95 198.91,-587.49 138.57,-766.47 -140.75,-41.14 -314.16,-93.7 -504.42,-155.38 173.48,315.96 -39.13,732.12 -184.69,956.28z"/>
  <path class="fil8" d="M9387.2 3267.1l-283.89 1636.89c0,0 102.02,-14.93 272.73,-36.75 117.05,-135.29 223.86,-387.24 289.91,-688.94 71.43,-326.28 62.74,-625.26 -9.55,-795.22 -89.88,-39.29 -177.25,-79.59 -260.68,-120.65 -2.84,1.58 -5.65,2.97 -8.52,4.67z"/>
  <path class="fil18" d="M8854.29 4007.4c99.51,-454.54 339.65,-789.45 536.37,-748.01 196.68,41.43 275.49,443.52 175.97,898.07 -99.54,454.55 -308.36,787.95 -505.08,746.53 -196.71,-41.45 -306.78,-442.04 -207.26,-896.59z"/>
  <path class="fil5" d="M9197.06 3706.46c-77.91,202.07 -108.95,425.82 -95.64,641.19 10.99,177.8 53,351.32 125.53,508.53 139.68,-106.98 268,-371.4 339.68,-698.72 81.9,-374.06 42.96,-712.4 -83,-843.65 -142.91,68.34 -235.05,259.01 -286.57,392.65z"/>
  <path class="fil19" d="M9160.73 4328.92l338.15 72.66c26,-75.9 48.82,-157.81 67.78,-244.12 26.61,-121.63 40.36,-239.45 42.59,-347.71l-338.93 -9.82 -109.59 528.99z"/>
  <path class="fil8" d="M9091.14 4035.42c32.15,-146.95 114.66,-250.22 184.41,-235.49 69.73,14.68 98.26,122.67 66.12,269.61 -32.21,146.92 -110.27,275.03 -180.02,260.34 -69.78,-14.69 -102.72,-147.54 -70.51,-294.46z"/>
  <path class="fil6" d="M10100.74 3707.09l-267.14 -70.72c-13.69,-3.63 -28.13,5.22 -32.31,19.75 -3.98,13.97 3.06,28.17 15.86,32.4 0.48,0.16 0.95,0.3 1.46,0.44l267.1 70.72c13.73,3.63 28.17,-5.22 32.35,-19.74 4.12,-14.5 -3.48,-28.76 -17.32,-32.85z"/>
  <path class="fil6" d="M10376.02 3772.32l-163.07 -38.85c-13.8,-3.28 -28.11,5.89 -31.93,20.47 -3.61,13.87 3.51,27.66 16.04,31.81 0.67,0.22 1.34,0.44 2.03,0.58l163.09 38.85c13.78,3.27 28.06,-5.93 31.9,-20.48 3.81,-14.58 -4.15,-29 -18.06,-32.38z"/>
  <path class="fil4" d="M10961.35 5320.37c0,0 -171.67,-66 -208.77,-159.27 -37.11,-93.29 53.56,-137.44 187.89,-59.16 160.06,93.3 236.6,216.16 125.26,391.34 -111.34,175.21 -231.95,259.38 -231.95,259.38 0,0 -44.1,-300.33 127.57,-432.29z"/>
  <path class="fil4" d="M10527.58 4835.73c-127.6,-11.38 -194.85,50.05 -199.5,134.25 -4.64,84.18 111.35,91 204.12,91 92.81,0 192.55,-22.74 194.85,-116.03 2.34,-93.3 -199.47,-109.22 -199.47,-109.22z"/>
  <path class="fil4" d="M10481.18 5004.11c-115.99,0 -187.89,34.13 -187.89,131.96 0,97.83 164.7,86.47 231.95,86.47 67.29,0 132.22,-15.94 143.83,-97.86 11.61,-81.91 -92.78,-120.57 -187.89,-120.57z"/>
  <path class="fil4" d="M10432.47 5188.41c-106.44,-7.15 -197.16,38.67 -194.86,141.05 2.31,102.39 294.59,88.74 343.31,52.34 48.71,-36.39 157.74,-172.91 -148.45,-193.39z"/>
  <path class="fil4" d="M10318.81 5543.35c0,0 176.28,29.58 250.53,-4.56 74.21,-34.13 85.81,-134.25 -55.68,-170.64 -141.52,-36.4 -308.52,-4.56 -310.84,161.55 -2.31,166.09 183.24,229.79 183.24,229.79 0,0 -197.16,-177.47 -67.25,-216.14z"/>
 </g>
</svg>
