<?xml version="1.0" encoding="UTF-8"?>
<!DOCTYPE svg PUBLIC "-//W3C//DTD SVG 1.1//EN" "http://www.w3.org/Graphics/SVG/1.1/DTD/svg11.dtd">
<!-- Creator: CorelDRAW -->
<svg xmlns="http://www.w3.org/2000/svg" xml:space="preserve" width="246.38mm" height="162.56mm" version="1.1" style="shape-rendering:geometricPrecision; text-rendering:geometricPrecision; image-rendering:optimizeQuality; fill-rule:evenodd; clip-rule:evenodd"
viewBox="0 0 24638 16256"
 xmlns:xlink="http://www.w3.org/1999/xlink"
 xmlns:xodm="http://www.corel.com/coreldraw/odm/2003">
 <defs>
  <style type="text/css">
   <![CDATA[
    .fil4 {fill:#FEFEFE;fill-rule:nonzero}
    .fil15 {fill:#F8B8B8;fill-rule:nonzero}
    .fil18 {fill:#F48684;fill-rule:nonzero}
    .fil6 {fill:#F9F8F8;fill-rule:nonzero}
    .fil1 {fill:#EFEFEF;fill-rule:nonzero}
    .fil5 {fill:#EAEAE9;fill-rule:nonzero}
    .fil0 {fill:#E5E6E5;fill-rule:nonzero}
    .fil7 {fill:#E2E3E3;fill-rule:nonzero}
    .fil3 {fill:#E0E1E0;fill-rule:nonzero}
    .fil17 {fill:#D79995;fill-rule:nonzero}
    .fil24 {fill:#D9DAD9;fill-rule:nonzero}
    .fil22 {fill:#CBDDF1;fill-rule:nonzero}
    .fil16 {fill:#C2C4C4;fill-rule:nonzero}
    .fil21 {fill:#8E494A;fill-rule:nonzero}
    .fil23 {fill:#742C2D;fill-rule:nonzero}
    .fil10 {fill:#9B9D9E;fill-rule:nonzero}
    .fil19 {fill:#8EB6E1;fill-rule:nonzero}
    .fil11 {fill:#84A9D8;fill-rule:nonzero}
    .fil20 {fill:#6C9CD2;fill-rule:nonzero}
    .fil8 {fill:#3F79BC;fill-rule:nonzero}
    .fil14 {fill:#346FB5;fill-rule:nonzero}
    .fil13 {fill:#2C3C43;fill-rule:nonzero}
    .fil9 {fill:#2867B0;fill-rule:nonzero}
    .fil12 {fill:#8EB6E1;fill-rule:nonzero}
    .fil2 {fill:#FEFEFE;fill-rule:nonzero}
   ]]>
  </style>
 </defs>
 <g id="Layer_x0020_1">
  <metadata id="CorelCorpID_0Corel-Layer"/>
  <polygon class="fil0" points="32.74,14071.28 24138.88,14071.28 24138.88,14060.14 32.74,14060.14 "/>
  <polygon class="fil0" points="20126.61,14787.95 21723.51,14787.95 21723.51,14776.82 20126.61,14776.82 "/>
  <polygon class="fil0" points="16105.81,14787.95 19519.53,14787.95 19519.53,14776.82 16105.81,14776.82 "/>
  <polygon class="fil0" points="13297.92,14374.45 14223.23,14374.45 14223.23,14363.31 13297.92,14363.31 "/>
  <polygon class="fil0" points="2561.91,14449.29 4215.1,14449.29 4215.1,14438.16 2561.91,14438.16 "/>
  <polygon class="fil0" points="4644.37,14449.29 7650.28,14449.29 7650.28,14438.16 4644.37,14438.16 "/>
  <polygon class="fil0" points="9112.7,14637.28 10887.6,14637.28 10887.6,14626.14 9112.7,14626.14 "/>
  <polygon class="fil1" points="3024.43,12910.21 7686.25,12910.21 7686.25,1035.19 3024.43,1035.19 "/>
  <polygon class="fil0" points="7686.25,12910.21 7733.44,12910.21 7733.44,1035.19 7686.25,1035.19 "/>
  <polygon class="fil2" points="3474.27,12457.21 7236.38,12457.21 7236.38,1488.17 3474.27,1488.17 "/>
  <polygon class="fil3" points="9683.93,8064.26 20680.81,8064.26 20680.81,518.39 9683.93,518.39 "/>
  <polygon class="fil1" points="9513.75,8064.26 20510.62,8064.26 20510.62,518.39 9513.75,518.39 "/>
  <polygon class="fil4" points="9819.26,7747.28 20205.15,7747.28 20205.15,835.33 9819.26,835.33 "/>
  <polygon class="fil3" points="9819.26,7747.28 9947.89,7747.28 9947.89,835.33 9819.26,835.33 "/>
  <polygon class="fil1" points="9640.11,6270.75 20384.26,6270.75 20384.26,5845.3 9640.11,5845.3 "/>
  <polygon class="fil1" points="9513.75,2610.04 9172.74,2610.04 9172.74,184.93 10210.98,184.93 10210.98,518.39 9513.75,518.39 "/>
  <polygon class="fil5" points="9819.26,2610.04 9513.75,2610.04 9513.75,518.39 10210.98,518.39 10210.98,835.33 9819.26,835.33 "/>
  <polygon class="fil1" points="10211,7003.06 9947.9,7003.06 9947.9,761.77 9819.27,761.77 9819.27,7003.06 9819.27,761.77 10211,761.77 "/>
  <polygon class="fil3" points="9819.27,7003.06 9947.9,7003.06 9947.9,761.73 9819.27,761.73 "/>
  <polygon class="fil6" points="10210.98,518.39 10725.65,518.39 10725.65,184.93 10210.98,184.93 "/>
  <polygon class="fil1" points="10210.98,835.33 10725.65,835.33 10725.65,518.38 10210.98,518.38 "/>
  <polygon class="fil6" points="10211,6317.68 10725.66,6317.68 10725.66,761.73 10211,761.73 "/>
  <path class="fil1" d="M11763.9 518.39l-29.02 0 0 -333.46 29.02 0 0 333.46zm-41.08 0l-997.17 0 0 -333.46 997.17 0 0 333.46z"/>
  <polygon class="fil7" points="11722.82,518.39 11734.88,518.39 11734.88,184.93 11722.82,184.93 "/>
  <polygon class="fil5" points="10725.65,835.33 11763.92,835.33 11763.92,518.38 10725.65,518.38 "/>
  <polygon class="fil1" points="10725.66,7003.06 11763.93,7003.06 11763.93,761.73 10725.66,761.73 "/>
  <polygon class="fil6" points="11763.9,518.39 12278.57,518.39 12278.57,184.93 11763.9,184.93 "/>
  <polygon class="fil1" points="11763.9,835.33 12278.57,835.33 12278.57,518.38 11763.9,518.38 "/>
  <polygon class="fil6" points="11763.92,6317.68 12278.58,6317.68 12278.58,761.73 11763.92,761.73 "/>
  <path class="fil1" d="M13316.82 518.39l-1001.75 0 0 -333.46 1001.75 0 0 333.46zm-1013.8 0l-24.45 0 0 -333.46 24.45 0 0 333.46z"/>
  <polygon class="fil7" points="12303.02,518.39 12315.07,518.39 12315.07,184.93 12303.02,184.93 "/>
  <polygon class="fil5" points="12278.57,835.33 13316.81,835.33 13316.81,518.38 12278.57,518.38 "/>
  <polygon class="fil1" points="12278.58,7003.06 13316.82,7003.06 13316.82,761.73 12278.58,761.73 "/>
  <polygon class="fil6" points="13316.82,518.39 13831.5,518.39 13831.5,184.93 13316.82,184.93 "/>
  <polygon class="fil1" points="13316.82,835.33 13831.5,835.33 13831.5,518.38 13316.82,518.38 "/>
  <polygon class="fil6" points="13316.84,6317.68 13831.52,6317.68 13831.52,761.73 13316.84,761.73 "/>
  <polygon class="fil1" points="13831.49,518.39 14869.73,518.39 14869.73,184.93 13831.49,184.93 "/>
  <polygon class="fil5" points="13831.49,835.33 14869.73,835.33 14869.73,518.38 13831.49,518.38 "/>
  <polygon class="fil1" points="13831.5,7003.06 14869.75,7003.06 14869.75,761.73 13831.5,761.73 "/>
  <polygon class="fil6" points="14869.73,518.39 15384.4,518.39 15384.4,184.93 14869.73,184.93 "/>
  <polygon class="fil1" points="14869.73,835.33 15384.4,835.33 15384.4,518.38 14869.73,518.38 "/>
  <polygon class="fil6" points="14869.75,6317.68 15384.41,6317.68 15384.41,761.73 14869.75,761.73 "/>
  <polygon class="fil1" points="15384.4,518.39 16422.61,518.39 16422.61,184.93 15384.4,184.93 "/>
  <polygon class="fil5" points="15384.4,835.33 16422.61,835.33 16422.61,518.38 15384.4,518.38 "/>
  <polygon class="fil1" points="15384.41,7003.06 16422.63,7003.06 16422.63,761.73 15384.41,761.73 "/>
  <polygon class="fil6" points="16422.61,518.39 16937.33,518.39 16937.33,184.93 16422.61,184.93 "/>
  <polygon class="fil1" points="16422.61,835.33 16937.33,835.33 16937.33,518.38 16422.61,518.38 "/>
  <polygon class="fil6" points="16422.63,6317.68 16937.35,6317.68 16937.35,761.73 16422.63,761.73 "/>
  <polygon class="fil1" points="16937.32,518.39 17975.52,518.39 17975.52,184.93 16937.32,184.93 "/>
  <polygon class="fil5" points="16937.32,835.33 17975.52,835.33 17975.52,518.38 16937.32,518.38 "/>
  <polygon class="fil1" points="16937.33,7003.06 17975.53,7003.06 17975.53,761.73 16937.33,761.73 "/>
  <polygon class="fil6" points="17975.52,518.39 18490.19,518.39 18490.19,184.93 17975.52,184.93 "/>
  <polygon class="fil1" points="17975.52,835.33 18490.19,835.33 18490.19,518.38 17975.52,518.38 "/>
  <polygon class="fil6" points="17975.53,6317.68 18490.2,6317.68 18490.2,761.73 17975.53,761.73 "/>
  <polygon class="fil1" points="18490.19,518.39 19528.43,518.39 19528.43,184.93 18490.19,184.93 "/>
  <polygon class="fil5" points="18490.19,835.33 19528.43,835.33 19528.43,518.38 18490.19,518.38 "/>
  <polygon class="fil1" points="18490.2,7003.06 19528.44,7003.06 19528.44,761.73 18490.2,761.73 "/>
  <polygon class="fil6" points="19528.44,518.39 20043.11,518.39 20043.11,184.93 19528.44,184.93 "/>
  <polygon class="fil1" points="19528.44,835.33 20043.11,835.33 20043.11,518.38 19528.44,518.38 "/>
  <polygon class="fil6" points="19528.46,6317.68 20043.12,6317.68 20043.12,761.73 19528.46,761.73 "/>
  <polygon class="fil1" points="21081.36,2610.04 20680.81,2610.04 20680.81,518.39 20043.11,518.39 20043.11,184.93 21081.36,184.93 "/>
  <polygon class="fil3" points="20680.81,2610.04 20510.62,2610.04 20510.62,518.39 20043.11,518.39 20680.81,518.39 "/>
  <polygon class="fil5" points="20510.62,2610.04 20205.15,2610.04 20205.15,835.33 20043.11,835.33 20043.11,518.39 20510.62,518.39 "/>
  <polygon class="fil1" points="20043.12,7003.06 20205.18,7003.06 20205.18,761.73 20043.12,761.73 "/>
  <polygon class="fil3" points="9854.45,14060.14 11141.14,14060.14 11141.14,9634.29 9854.45,9634.29 "/>
  <polygon class="fil5" points="10068.62,14060.14 9854.45,14060.14 9854.45,13661.84 10293.14,13661.84 "/>
  <polygon class="fil3" points="19112.9,14060.14 20399.64,14060.14 20399.64,9634.29 19112.9,9634.29 "/>
  <polygon class="fil5" points="9854.45,13907.2 19299.81,13907.2 19299.81,9634.29 9854.45,9634.29 "/>
  <polygon class="fil3" points="10020.59,10995.5 19133.73,10995.5 19133.73,9823.67 10020.59,9823.67 "/>
  <path class="fil5" d="M12325.81 10187.84l4502.64 0c208.91,0 408.66,-144.57 552.37,-399.8l-5607.38 0c143.68,255.23 343.47,399.8 552.37,399.8z"/>
  <polygon class="fil5" points="19085.66,14060.14 19299.81,14060.14 19299.81,13661.84 18861.19,13661.84 "/>
  <polygon class="fil3" points="10020.59,12356.65 19133.73,12356.65 19133.73,11184.88 10020.59,11184.88 "/>
  <path class="fil5" d="M12325.81 11549l4502.64 0c208.91,0 408.66,-144.57 552.37,-399.75l-5607.38 0c143.68,255.18 343.47,399.75 552.37,399.75z"/>
  <polygon class="fil3" points="10020.59,13717.81 19133.73,13717.81 19133.73,12546.02 10020.59,12546.02 "/>
  <path class="fil5" d="M12325.81 12910.21l4502.64 0c208.91,0 408.66,-144.57 552.37,-399.8l-5607.38 0c143.68,255.23 343.47,399.8 552.37,399.8z"/>
  <path class="fil1" d="M21433.64 15566.89c0,278.47 -4185.11,504.18 -9347.82,504.18 -5162.68,0 -9347.84,-225.71 -9347.84,-504.18 0,-278.45 4185.16,-504.2 9347.84,-504.2 5162.71,0 9347.82,225.75 9347.82,504.2z"/>
  <path class="fil8" d="M17865.55 15312.92l-51.64 0c-20.19,0 -37.46,-16.38 -40.93,-38.78l-317.47 -2040.54 241.06 0 210.25 2027.04c2.9,27.83 -16.44,52.28 -41.27,52.28z"/>
  <path class="fil9" d="M17865.55 15312.92l-51.64 0c-20.19,0 -37.46,-16.38 -40.93,-38.78l-317.47 -2040.54 241.06 0.05 210.25 2026.99c0.19,1.82 0.29,3.65 0.29,5.48 0,25.48 -18.37,46.8 -41.56,46.8z"/>
  <path class="fil8" d="M18526.98 15312.92l-51.69 0c-20.15,0 -37.41,-16.38 -40.88,-38.78l-317.48 -2040.54 241.06 0 210.26 2027.04c2.9,27.83 -16.4,52.28 -41.27,52.28z"/>
  <path class="fil9" d="M18526.98 15312.92l-51.69 0c-20.15,0 -37.41,-16.38 -40.88,-38.78l-317.48 -2040.54 241.06 0 210.26 2027.04c0.19,1.82 0.29,3.65 0.29,5.48 0,25.48 -18.37,46.8 -41.56,46.8z"/>
  <path class="fil8" d="M14841.54 15312.92l51.67 0c20.16,0 37.42,-16.38 40.95,-38.78l317.47 -2040.54 -241.06 0 -210.26 2027.04c-2.89,27.83 16.4,52.28 41.23,52.28z"/>
  <path class="fil9" d="M14893.21 15312.92l-51.67 0c-23.19,0 -41.56,-21.32 -41.52,-46.8 0,-1.83 0.1,-3.66 0.29,-5.48l126.03 -1215.02c49.57,139.2 96.66,268.58 139.19,383.94l-131.37 844.58c-3.53,22.4 -20.79,38.78 -40.95,38.78z"/>
  <path class="fil8" d="M14180.11 15312.92l51.68 0c20.15,0 37.41,-16.38 40.88,-38.78l317.49 -2040.54 -241.07 0 -210.25 2027.04c-2.85,27.83 16.44,52.28 41.27,52.28z"/>
  <polygon class="fil10" points="14514.84,13717.81 14514.84,13717.81 14590.16,13233.6 14590.16,13233.65 "/>
  <path class="fil9" d="M14231.79 15312.92l-51.68 0c-23.19,0 -41.56,-21.32 -41.51,-46.8 0,-1.83 0.04,-3.66 0.24,-5.48l210.25 -2027.04 241.07 0.05 -75.32 484.16 -29.45 189.39 -23.82 152.94 -1.74 11.14 -187.16 1202.86c-3.47,22.4 -20.73,38.78 -40.88,38.78z"/>
  <path class="fil8" d="M13322.95 10814.81l1623.78 0c288.12,-924.01 1324.73,-1652.94 2386.32,-1652.94l527.44 0c1111.19,0 1828.35,798.53 1601.75,1783.58 -41.6,180.77 -112.38,355.23 -206.64,519.75l-256.09 1433.47c-33.03,184.96 -192.85,334.93 -356.97,334.93l-4887.47 0.05c-164.16,0 -323.98,-150.02 -357.01,-334.98l-312.42 -1748.89c-33.07,-185.01 73.19,-334.97 237.31,-334.97z"/>
  <polygon class="fil11" points="17455.51,13233.6 17455.51,13233.6 17696.57,13233.65 17696.57,13233.6 17455.51,13233.65 "/>
  <polygon class="fil11" points="18116.93,13233.6 18357.99,13233.6 18357.99,13233.6 "/>
  <polygon class="fil11" points="14349.09,13233.6 14349.09,13233.6 14590.16,13233.65 14590.16,13233.6 14349.09,13233.65 "/>
  <path class="fil12" d="M13827.53 13233.65c145.08,-568.88 267.24,-1160.53 277.85,-1570.63 36.01,-8.28 74.92,-15.75 116.29,-22.52 73.77,440.81 244.38,1031.35 427.21,1593.15l-821.35 0zm1629.15 0c-98.21,-609.3 -197.77,-1246.1 -255.67,-1669.38 69.96,-3.65 140.34,-7.47 210.68,-11.66 159.24,2.94 344.29,7.39 538.14,7.39 21.84,0 43.78,-0.05 65.82,-0.17l14.08 78.93 115.03 1594.89 -688.08 0zm906.77 0l-6.03 -125.61c68.13,76.57 160.56,125.56 254.38,125.56l352.76 0 0 0.05 -601.11 0zm819.8 0l0 -0.05 1189.6 0 309.9 -2418.79 -998.91 0c55.3,-323.61 -2.07,-582.58 -2.07,-582.58l0 0c-4.59,-364.98 17.65,-721.01 55.68,-1070.36l123.04 0c972.3,0 1642.89,611.35 1643.56,1424.13 0.09,116.08 -13.51,236.3 -41.81,359.45 -41.6,180.77 -112.38,355.23 -206.64,519.75l-121.87 682.32 -37.37 209.13 -96.85 542.02c-33.03,184.96 -192.85,334.93 -356.97,334.93l-525.61 0 -420.36 0.05 -513.32 0zm-4039.32 -1757.63l-58.29 -326.24c-4.1,-22.8 -6.02,-45.01 -6.02,-66.48 0,-153.16 99.41,-268.49 243.33,-268.49l26.51 0c-114.84,106.91 -185.86,233.31 -192.22,382.97 -3.76,89.18 -8.24,182.2 -13.31,278.24zm2076.93 -1212.97c89.49,-128.37 193.67,-249.12 309.73,-360.31l196.41 0c11.71,106.5 25.31,216.35 40.88,329.49 -7.04,0.09 -231.89,3.03 -547.02,30.82zm494.23 -473.71l-58.05 0c17.74,-14.88 35.59,-29.49 53.77,-43.95 1.39,14.55 2.84,29.24 4.28,43.95z"/>
  <path class="fil13" d="M12916.42 14784.92l402.18 170.46c14.67,6.22 21.02,20.26 15.34,33.84l-126.56 302.16c-13.12,31.28 -58.43,47.06 -91.85,32.22 -138.89,-61.57 -202.06,-97.55 -378.9,-172.49 -108.81,-46.12 -406.72,-200.28 -540.93,-289.46 -131.24,-87.18 -34.91,-209.14 30.65,-182.51 293.76,119.73 480.83,130.46 618.33,99.97 24.77,-5.5 50.33,-3.26 71.74,5.81z"/>
  <path class="fil8" d="M15768.08 10232.23c0,0 -2571.11,29.48 -2610.84,965.55 -57.08,1345.4 -272.21,3579.18 -272.21,3579.18l433.57 178.42c0,0 759.68,-2241.63 786.78,-3292.36 721.36,-165.99 2582.59,1.35 2801.29,-546.24 178.9,-447.92 82.14,-884.55 82.14,-884.55l-1220.73 0z"/>
  <path class="fil14" d="M13318.6 14955.38l-433.57 -178.42c0,0 215.13,-2233.78 272.21,-3579.18 39.54,-931.66 2586.74,-965.24 2610.64,-965.55 0.78,5.56 1.54,11.13 2.32,16.7l159.19 -1.38 3.87 53.48c-684.34,115.27 -1786.61,401.79 -1746.97,1048.32 5.34,86.56 17.49,184.51 35.38,291.15 -41.37,6.77 -80.28,14.24 -116.29,22.52 -10.61,410.1 -132.77,1001.75 -277.85,1570.63 -42.08,165 -86.01,327.97 -129.78,484.16 -18.04,64.44 -36.07,127.67 -53.86,189.39 -15.05,52.13 -29.94,103.2 -44.65,152.94 -1.05,3.69 -2.16,7.42 -3.26,11.14 -30.63,103.69 -60.27,201.74 -88,292.03 -1.15,3.75 -2.26,7.44 -3.42,11.14 -107.47,349.3 -185.96,580.93 -185.96,580.93l0 0zm1882.41 -3391.11c-0.63,-4.76 -1.3,-9.43 -1.93,-14.15 63.44,0 134.98,1.06 212.61,2.49 -70.34,4.19 -140.72,8.01 -210.68,11.66zm1019.39 -1305.81l-0.63 -13.45 122.18 -1.07c-34.33,3.79 -75.22,8.56 -121.55,14.52z"/>
  <path class="fil13" d="M16315.29 7769.64c-22.37,86.42 -44.94,164.38 -70.83,245.19 -25.35,80.06 -51.87,159.72 -79.69,239.16 -56.46,158.6 -118.6,316.13 -190.39,472.06 -71.22,156.11 -150.81,310.93 -247.81,463.6 -48.99,76.28 -101.25,152.68 -163.29,227.26 -62.01,74.55 -132.21,148.86 -224.01,218.49l-7.13 5.43c-5.02,3.79 -10.36,7.4 -15.66,10.65 -61.28,37.26 -118.37,48.71 -161.76,53.61 -44.21,4.54 -80.03,2.67 -109.78,-0.71 -60.98,-6.95 -105.73,-19.64 -147.67,-33.09 -82.59,-27.11 -150.33,-58.33 -215.75,-90.61 -129.83,-64.51 -245.01,-136.73 -358.08,-210.08 -112.09,-74.4 -219.99,-151.47 -324.85,-231.53 -104.14,-81.43 -206.25,-161.8 -305.66,-250.37 -58.54,-52.14 -60.27,-138.15 -3.82,-192.21 47.3,-45.33 120.39,-53.75 177.28,-24.68l2.37 1.3c113.77,58.2 228.61,120 343.7,177.39 114.64,58.6 229.01,116.53 343.42,170.71 113.58,54.86 228.9,105.84 338.83,147.7 54.48,20.61 109.1,38.33 153.6,47.55 21.61,4.45 41.66,6.76 46.92,5.74 3.28,0 0.91,-1.82 -10.32,-1.06 -10.6,1.02 -34.77,3.82 -68.41,23.68l-22.81 16.08c41.02,-35.76 84.62,-85.72 124.87,-141.99 40.2,-56.46 79.65,-117.86 116.15,-182.42 72.75,-129.84 137.78,-269.84 197.9,-412.99 59.36,-143.55 114.94,-290.44 166.39,-439.07 52.36,-147.15 99.99,-301.67 143.47,-445.79l1.64 -5.44c43.74,-144.97 206.41,-229.7 363.38,-189.36 153.27,39.44 244.25,184.11 207.8,325.8z"/>
  <path class="fil13" d="M15273.08 14978.21l482.36 0c17.55,0 30.77,11.22 31.83,27.04l23.39 352.47c2.44,36.61 -34.72,71.19 -75.13,70.52 -167.97,-2.63 -248.2,-11.76 -460.33,-11.76 -130.51,0 -393.7,12.52 -573.92,12.52 -176.26,0 -175.11,-164.57 -98.69,-179.49 342.46,-66.83 475.28,-159.04 596.53,-246.93 21.84,-15.86 48.27,-24.37 73.96,-24.37z"/>
  <path class="fil8" d="M16461.08 10232.23c0,0 -2332.17,181.89 -2274.79,1117.12 62.86,1024.17 1086.79,3628.86 1086.79,3628.86l471.62 0c0,0 -403.69,-2385.28 -545.62,-3428.09 657.32,0 2181.84,114.25 2400.53,-433.34 178.92,-447.92 82.16,-884.55 82.16,-884.55l-1220.69 0z"/>
  <path class="fil8" d="M13902.36 8717.1c0,0 -67.07,-100.49 -131.14,-148.63 -95.4,82.55 -149.02,323.44 -149.02,323.44l131.91 11c0,0 151.23,-45.46 148.25,-185.81z"/>
  <path class="fil15" d="M13418.35 8500.66l-149.93 -60.15c-40.3,-16.12 -87.26,-2.27 -109.98,32.41l-71.01 108.69c-20.5,31.35 -15.67,71.42 11.76,97.86l205.87 198.36 343.37 -12.82c39.48,-1.46 75.01,-22.48 93,-54.94l39.67 -71.55c24.83,-44.8 11.24,-100.9 -34.18,-128.64 -111.37,-68.03 -328.57,-109.22 -328.57,-109.22z"/>
  <path class="fil13" d="M15746.29 7678.13c-68.86,399.57 -157.76,1266 23.91,2570.8l1911.57 -16.7c-11.42,-904.1 142.02,-1753.07 291.78,-2582.33 24.88,-137.81 -77.38,-265.6 -227.08,-285.5 -459.18,-61.09 -1200.53,-58.77 -1650.31,-1.24 -178.96,22.92 -321.47,150.18 -349.87,314.97z"/>
  <path class="fil13" d="M17991 7537.16c56.08,128.55 101.25,252.1 147.48,379.4 45.75,126.6 85.96,255.05 123.91,384.8 36.49,130.15 71.45,261.45 98.11,396.38 26.8,134.91 50.43,272 58.62,417.43 2.56,36.06 3.28,73.42 3.72,110.78l-0.73 57.12c-1.2,40.2 -7.47,101.34 -47.91,166.71 -19.09,31.65 -49.09,64.12 -80.18,86.47 -16.35,12.42 -32.02,21.63 -47.84,29.61 -16.76,8.86 -31.56,14.69 -46.08,19.68 -58.97,19.85 -104.57,22.53 -141.6,22.7 -72.61,-1.25 -122.37,-12.86 -168.85,-24.36 -90.39,-24.26 -162.96,-53.92 -233.58,-85.08 -69.85,-31.74 -135.48,-65.37 -199.6,-99.82 -254.99,-139.65 -484.38,-295.17 -707.04,-467.44 -62.28,-48.18 -70.43,-133.89 -18.27,-191.42 43.98,-48.44 116.82,-61.44 175.89,-35.44l3.41 1.55c249.31,109.72 502.62,222.05 749.67,316.59 61.6,23.46 123.17,45.46 182.96,63.8 59.01,18.79 118.5,35.09 164.74,41.59 21.89,3.25 41.9,2.89 39.63,0.93 -1.93,-0.53 -12.15,-2.27 -38.33,5.97 -6.22,2.18 -12.92,4.95 -22.28,9.3 -8.09,4.14 -16.24,9.18 -26.13,15.94 -17.26,12.53 -35.57,32.2 -46.58,49.57 -23.08,36.9 -24.14,64.96 -24.87,72.89l-2.79 -40.25c-2.65,-27.48 -5.2,-54.99 -9.59,-83.49 -32.98,-228.38 -102.7,-471.49 -179.99,-710.55 -77.47,-238.88 -166.09,-483.06 -256.38,-714.99l-0.88 -2.33c-55.15,-141.59 24.49,-297.7 177.82,-348.68 149.65,-49.64 314.44,19.68 373.54,154.64z"/>
  <path class="fil15" d="M17226.79 6469.11l-231.28 177.13 -314.82 241.5c9.21,39.32 16.39,79.09 20.01,117.42 15.04,140.39 -18.27,269.56 -203.03,334.98 -69.81,24.66 -130.56,71.76 -152.55,137.76 -24.87,74.62 4.54,157.53 258.23,157.44 372.49,-0.09 567.02,-153.03 640.32,-228.37 20.63,-21.19 20.87,-52.46 3.13,-75.74 -147.59,-193.34 -80.18,-620.78 -20.01,-862.12z"/>
  <path class="fil8" d="M16594.2 7559.65c0,0 24.77,24.75 32.25,60.55 19.38,-30.28 69.86,-60.55 69.86,-60.55 0,0 110.6,45.41 133.65,144.53 -70.88,-4.14 -200.52,-68.84 -200.52,-68.84 0,0 -67.06,35.8 -134.12,38.51 2.94,-77.03 98.88,-114.2 98.88,-114.2z"/>
  <path class="fil8" d="M16696.31 7559.65c107.27,111.54 127.62,259.63 127.62,259.63 0,0 617.2,-142.44 588.23,-513.97 -51.92,-30.31 -171.1,-48.53 -171.1,-48.53 0,0 -132.73,222.59 -544.75,302.87z"/>
  <path class="fil8" d="M16594.2 7559.65c-107.23,111.54 -135.86,259.63 -135.86,259.63 0,0 -316.57,-266.13 -8.2,-510.94 54.24,-20.62 163.15,-31.61 163.15,-31.61 0,0 -204.86,153.52 -19.09,282.92z"/>
  <path class="fil16" d="M16680.69 6887.74c0,-0.04 0,-0.04 0,-0.04l314.82 -241.51 0.06 0.05 -0.06 0 -314.82 241.5z"/>
  <path class="fil17" d="M16700.7 7005.16l0 0c-3.62,-38.33 -10.8,-78.14 -20.01,-117.42l314.82 -241.5c3.09,28.89 2.02,69.1 -4.1,110.78 -16.39,110.83 -173.32,226.33 -290.71,248.14z"/>
  <path class="fil13" d="M16342.72 5702.06c-290.33,190.13 -127.87,636.19 119.81,465.52 247.67,-170.67 116.86,-620.46 -119.81,-465.52z"/>
  <path class="fil15" d="M17322.1 6099.24c-80.36,341.42 -108.62,544.38 -326.92,700.16 -328.43,234.35 -763.73,26.14 -795.6,-326.91 -28.73,-317.82 107.56,-822.75 496.44,-919.45 383.14,-95.21 706.51,204.82 626.08,546.2z"/>
  <path class="fil13" d="M17150.99 5846.2c-204.94,-52.32 -733.35,71.9 -920.94,-112.84 -201.2,-198.18 92.41,-294.53 178.81,-225.7 -109.53,-115.64 -68.6,-239.45 86.46,-228.46 113.05,8.02 149.11,123.83 149.11,123.83 0,0 -18.9,-202.46 175.59,-188.53 176.65,12.65 177.19,232.57 177.19,232.57 0,0 421.61,-110.08 562.1,261.49 265.26,-5.51 259.28,510.14 -274.18,693.68 -216.57,-99.12 -226.51,-450.83 -134.14,-556.04z"/>
  <path class="fil13" d="M17502.66 5782.93c-25.5,0 -48.12,-16.84 -52.74,-40.8 -5.32,-26.84 14.02,-52.54 43.05,-57.52 4.82,-1.33 19.13,-12.2 31.05,-36.12 12.57,-25.19 20.68,-62.72 5.84,-92.74 -12.3,-24.94 -0.4,-54.27 26.55,-65.68 26.86,-11.49 58.78,-0.35 71.07,24.54 32.15,65.19 15.14,138.74 -11.62,185.9 -25.6,45.15 -63.4,74.93 -103.66,81.61l-9.54 0.81z"/>
  <path class="fil15" d="M17382.27 6415.77c-54.24,65.77 -133.49,104.86 -202.97,116.17 -104.52,16.96 -136.3,-71.82 -90.06,-158.02 41.56,-77.61 146.08,-179.97 242.7,-157.85 95.21,21.83 112.38,124.54 50.33,199.7z"/>
  <path class="fil13" d="M16689.03 6130.5c-4.68,27.99 -24.59,48.93 -44.5,46.75 -19.91,-2.23 -32.25,-26.67 -27.58,-54.68 4.67,-28 24.59,-48.93 44.5,-46.8 19.91,2.22 32.25,26.72 27.58,54.73z"/>
  <path class="fil13" d="M16344.89 6092.65c-4.67,28.04 -24.58,48.97 -44.5,46.8 -19.91,-2.24 -32.25,-26.63 -27.58,-54.69 4.68,-28 24.59,-48.93 44.5,-46.75 19.91,2.23 32.26,26.63 27.58,54.64z"/>
  <path class="fil18" d="M16449.75 6103.91c0,0 -72.22,135.89 -143.73,199.71 42.44,41.85 122.52,27.46 122.52,27.46l21.21 -227.17z"/>
  <path class="fil13" d="M16569.42 6474.94c120.77,0 188.31,-69.54 191.4,-72.75l-0.82 -11.75 -12.73 0.76c-0.78,0.79 -77.58,80.09 -211.42,65.26 -4.96,-0.56 -9.4,2.73 -9.97,7.26 -0.58,4.6 2.93,8.74 7.85,9.23 12.4,1.42 24.26,1.99 35.69,1.99z"/>
  <path class="fil13" d="M16827.4 5968.99l7.99 -3.78c7.44,-6.1 8.11,-16.6 1.51,-23.47 -65.42,-67.94 -147.91,-55.56 -151.34,-55.03 -9.41,0.67 -16.39,10.15 -14.66,19.24 1.69,9.04 10.99,15.09 20.78,13.58 3.43,-0.53 66.92,-9.04 118.27,44.3 4.52,4.67 11.27,6.46 17.45,5.16z"/>
  <path class="fil13" d="M16222 5950.74c5.54,1.47 11.71,0.5 16.48,-3.16 62.97,-48.36 127.72,-32.42 128.35,-32.24 9.59,2.54 19.53,-2.66 22.18,-11.52 2.69,-8.78 -2.85,-17.95 -12.34,-20.45l-0.1 -0.04c-3.43,-0.84 -83.75,-20.75 -161.09,38.65 -7.66,5.88 -8.67,16.38 -2.36,23.42l8.88 5.34z"/>
  <path class="fil15" d="M16849.58 8474.03l-210.98 -121.15c-63.31,-36.34 -146.56,-17.86 -185.14,41.09l-24.82 37.98c-30.04,45.99 -24.55,104.56 13.64,145.02l145.6 154.38c0,0 126.7,272.85 273.6,200.81l112.06 -179.31 -123.96 -278.82z"/>
  <path class="fil8" d="M17066.92 8822.85c0,0 -53.08,-120.53 -110.32,-181.53 -105.91,83.84 -191.78,351.08 -191.78,351.08l129.64 25.84c0,0 156.45,-36.11 172.46,-195.39z"/>
  <path class="fil8" d="M18682.75 10814.81l-2503.03 0c-164.16,0 -270.38,149.96 -237.36,334.97l312.47 1748.89c33.02,184.96 192.85,334.93 356.97,334.93l1761.05 0 309.9 -2418.79z"/>
  <path class="fil19" d="M18372.85 13233.6l-1189.6 0 -116.29 -2418.79 1615.79 0 -309.9 2418.79zm-1408.29 0l-352.76 0c-93.82,0 -186.25,-48.99 -254.38,-125.56l-110.26 -2293.23 542.97 0 174.43 2418.79zm-934.83 -1594.84l-14.08 -78.93 -73.29 -410.05c-4.05,-22.8 -6.03,-45.01 -6.03,-66.48 0,-59.66 15.1,-113.53 42,-157.13l51.4 712.59z"/>
  <path class="fil8" d="M7133.59 15462.89l72.27 0c24.55,0 44.99,-19.16 46.77,-43.96l397.8 -5516.19 -298.77 0 -264.93 5510.46c-1.3,27.06 20.06,49.69 46.86,49.69z"/>
  <path class="fil20" d="M7205.86 15462.89l-72.27 0c-26.07,0 -47,-21.42 -46.9,-47.47 0,-0.71 0,-1.46 0.04,-2.22l93.63 -1947.53 213.14 0 -42.86 594.47 -0.82 11.14 -26.45 366.88 -0.78 11.13 -69.96 969.64c-1.78,24.8 -22.22,43.96 -46.77,43.96z"/>
  <path class="fil8" d="M6313.8 15462.89l72.26 0c24.59,0 44.98,-19.16 46.81,-43.96l397.76 -5516.19 -298.77 0 -264.93 5510.46c-1.29,27.06 20.05,49.69 46.87,49.69z"/>
  <path class="fil20" d="M6386.06 15462.89l-72.26 0c-26.09,0 -46.96,-21.42 -46.92,-47.47 0,-0.71 0,-1.46 0.05,-2.22l93.63 -1947.53 213.15 0 -42.86 594.47 -0.82 11.14 -26.47 366.88 -0.77 11.13 -69.92 969.64c-1.83,24.8 -22.22,43.96 -46.81,43.96z"/>
  <path class="fil8" d="M16421.36 15462.89l-72.23 0c-24.59,0 -44.98,-19.16 -46.77,-43.96l-397.84 -5516.19 298.81 0 264.89 5510.46c1.3,27.06 -20.06,49.69 -46.86,49.69z"/>
  <path class="fil20" d="M16421.36 15462.89l-72.23 0c-24.59,0 -44.98,-19.16 -46.77,-43.96l-157.6 -2185.28 -115.03 -1594.89 -100.34 -1391.21 -24.87 -344.81 298.81 0 264.89 5510.46c0.04,0.76 0.09,1.51 0.09,2.22 0.04,26.05 -20.88,47.47 -46.95,47.47z"/>
  <path class="fil8" d="M17241.15 15462.89l-72.21 0c-24.6,0 -44.99,-19.16 -46.82,-43.96l-397.81 -5516.19 298.83 0 264.87 5510.46c1.3,27.06 -20.04,49.69 -46.86,49.69z"/>
  <path class="fil20" d="M17241.15 15462.89l-72.21 0c-24.6,0 -44.99,-19.16 -46.82,-43.96l-157.56 -2185.28 0 -0.05 -215.89 -2993.22 -24.36 -337.64 298.83 0 264.87 5510.46c0.06,0.76 0.06,1.51 0.06,2.22 0.09,26.05 -20.83,47.47 -46.92,47.47z"/>
  <polygon class="fil8" points="5952.21,9902.74 17585.92,9902.74 17585.92,9789.34 5952.21,9789.34 "/>
  <path class="fil21" d="M5758.39 8032.24l-109.88 746.62c-34.66,248.63 -70.87,497.89 -96.81,742.65 -3.66,30.81 -6.07,60.86 -8.77,91.1l-4.01 45.37c0.34,-3.38 0.06,-15.36 -1.68,-22.26 -0.77,-7.26 -3.23,-15.06 -5.59,-21.24 -1.64,-5.39 -4.97,-11.58 -7.23,-15.59l-6.71 -10.01c-8.53,-10.16 -9.5,-8.73 -7.17,-6.6 1.87,2.5 8.67,7.4 16.38,12.7 16.2,10.81 39.01,22.97 63.88,34.45 102.26,46.22 228.78,85.63 353.97,121.39 253.03,70.84 518.39,132.19 780.56,191.86l-29.6 212.75c-280.6,-9.18 -556.03,-33.31 -836.1,-79.92 -140.53,-24.72 -279.63,-51.7 -429.66,-104.78 -37.85,-13.75 -76.76,-29.43 -119.09,-51.61 -21.3,-11.39 -43.05,-24.18 -67.25,-42.11 -23.86,-18.18 -49.8,-39.02 -77,-75.83 -13.4,-18.57 -26.41,-40.89 -36.41,-68.08 -4.9,-13.67 -8.67,-29.39 -11.42,-44.27 -2.26,-14.78 -3.08,-34.72 -2.84,-45.94l1.2 -49.48c0.82,-32.9 1.41,-66.07 3.14,-98.34 11.43,-260.13 36.74,-513.98 66.78,-767.86 29.41,-253.85 64.45,-505.33 107.55,-758.14l463.76 63.17z"/>
  <path class="fil21" d="M7332.43 10167.23l-176.81 149.25c-41.21,34.77 -101.28,42.96 -151.61,20.57l-195.46 -86.91c0,0 -289.76,-11.1 -331.07,-174.55l74.92 -127.03 448.9 -46.05c46.1,-4.75 92.62,4.81 132.25,27.13l184.99 104.37c51.54,29.03 58.48,95.59 13.89,133.22z"/>
  <path class="fil21" d="M6273.82 6498.1c45.81,256.07 84.76,724.13 -113.64,888.7 0,0 484.21,234.12 801.68,642.73 339.56,-248.46 55.21,-619.18 55.21,-619.18 -305.24,-76.27 -290.53,-286.66 -230.61,-483.06l-512.64 -429.19z"/>
  <path class="fil8" d="M7179.88 7567.84c0,0 -25.55,-217.15 -153.9,-324.51 -107.8,-90.16 -673.52,-40.07 -851.76,-21.72 -33.55,3.47 -62.54,22.65 -77.09,50.71l-129.26 249.39 1212.01 46.13z"/>
  <path class="fil22" d="M7144.25 7426.2c-42.57,-5.79 -85.19,-11.13 -127.18,-15.85 -186.49,-20.89 -364.88,-26.76 -557.96,-26.76 -95.17,0 -193.91,1.43 -298.93,3.21 -41.69,0.71 -83.31,2.04 -124.43,3.91l61.38 -118.39c14.55,-28.06 43.54,-47.24 77.09,-50.71 99.75,-10.29 320.85,-30.51 515.2,-30.51 152.83,0 289.13,12.51 336.56,52.23 58.1,48.58 95.14,119.64 118.27,182.87z"/>
  <path class="fil8" d="M5612.35 7453.49c-349.1,104.91 -424.07,537.16 -392.69,873.65l704.63 400.24c0,0 171.1,-491.25 169.65,-753.6 -1.54,-279.18 -244.53,-591.53 -481.59,-520.29z"/>
  <path class="fil4" d="M5748.8 8629.34c-16.88,0 -33.8,-6.23 -46.29,-17.37l-7.76 -9.35 -6.22 -10.68 -3.91 -11.13 -1.39 -11.59c0,-16.03 7.22,-31.56 19.28,-42.69 24.54,-22.75 68.47,-22.75 92.58,0 12.04,11.13 19.28,26.66 19.28,42.69l-1.45 11.59 -3.85 11.13 -5.84 10.68 -8.14 9.35c-12.06,11.14 -28.94,17.37 -46.29,17.37z"/>
  <path class="fil4" d="M5613.32 8588.37l0.48 0c-25.06,-8.9 -40.99,-30.72 -41.94,-54.32 -18.81,15.59 -46.29,20.48 -70.88,9.8 -24.11,-10.24 -38.56,-32.95 -38.09,-56.1 -19.76,14.69 -47.72,17.81 -71.4,5.78 -23.58,-11.52 -36.15,-34.72 -34.22,-57.88 -20.7,13.35 -48.66,15.15 -71.79,2.22 -30.86,-16.91 -40.55,-54.27 -22.18,-82.81 18.8,-28.5 59.29,-37.85 90.11,-20.48 21.75,12.47 32.83,34.73 31.38,56.54 19.28,-12.91 45.8,-15.09 68.47,-3.96 22.17,11.13 35.19,32.46 34.66,54.73 18.37,-13.76 44.88,-17.37 68.03,-7.58 23.14,9.8 37.12,30.77 38.09,52.55 17.83,-14.2 43.39,-19.59 67.5,-11.14 33.21,12.47 50.12,47.65 36.64,78.42 -10.13,23.99 -34.72,38.24 -60.75,38.24 -8.2,0 -15.91,-1.33 -24.11,-4.01z"/>
  <path class="fil4" d="M5219.9 8387.56c-4.33,0 -8.67,-0.4 -13.06,-1.34l-12.05 -3.56 -11.53 -5.33 -9.64 -7.58 -8.19 -8.91 -6.27 -10.64 -3.86 -11.13c-0.48,-4.05 -1.01,-8.05 -1.01,-12.07l1.01 -11.57 3.86 -11.54 6.27 -10.28 8.19 -9.34 9.64 -7.58 11.53 -5.33 12.05 -3.58c21.26,-3.56 43.87,2.73 58.87,16.49l8.19 9.34 6.27 10.28 3.38 11.54 1.39 11.57c0,4.02 -0.43,8.02 -1.39,12.07l-3.38 11.13 -6.27 10.64 -8.19 8.91c-12.05,11.14 -28.98,17.81 -45.81,17.81z"/>
  <path class="fil8" d="M7831.95 8081.72c-29.51,370.31 -118.69,993.99 -338.49,2043.87l-1886.99 -51.83c49.46,-643.3 -25.27,-1122.99 -195.99,-2248.87 -31.14,-205.54 128.88,-393.39 352.39,-414.68 121.16,-11.57 258.76,-21.05 397.31,-23.41 318.02,-5.39 578.51,-7.61 856.89,23.55 91.94,10.32 186.92,23.69 277.61,38.03 329.14,51.87 561.76,325.79 537.27,633.34z"/>
  <path class="fil13" d="M7250.13 6026.61c4.48,34.38 27.81,60.12 52.16,57.4 24.34,-2.67 40.45,-32.72 35.97,-67.14 -4.44,-34.38 -27.77,-60.03 -52.12,-57.35 -24.34,2.71 -40.45,32.76 -36.01,67.09z"/>
  <path class="fil13" d="M7275.63 5962.58l86.34 -33.66c0,0 -37.5,69.56 -86.34,33.66z"/>
  <path class="fil23" d="M7263 6079.95c0,0 82.34,141.02 161.17,204.73 -43.64,47.79 -129.74,37.72 -129.74,37.72l-31.43 -242.45z"/>
  <path class="fil13" d="M7254.65 5725.17c4.2,-5.74 5.07,-13.35 1.64,-20.08 -5.21,-10.15 -18.31,-14.46 -29.3,-9.66 -110.03,48.27 -124.87,141.15 -125.4,145.06 -1.64,11.14 6.79,21.37 18.84,22.89 11.96,1.51 23.1,-6.24 24.74,-17.36 0.53,-3.03 12.82,-75.3 100.67,-113.81l8.81 -7.04z"/>
  <path class="fil21" d="M5965.98 6018.82c82.89,419.13 108.24,598.16 367.29,789.32 389.66,287.54 928.91,101.87 983.34,-331.68 48.93,-390.22 -94.79,-1010.07 -564.13,-1128.56 -462.35,-116.75 -869.37,251.8 -786.5,670.92z"/>
  <path class="fil13" d="M6965.43 6136.15c76.52,230.28 258.8,787.13 -143.87,911.09 -315.07,96.97 -1301.33,174.54 -1414.93,-359.23 -117.44,-551.86 415.41,-944.63 415.41,-944.63 0,0 -422.16,-319.78 -151.69,-668.07 348.63,-449 1183.23,-195.1 1430.99,122.09 240.87,308.4 -135.91,938.75 -135.91,938.75z"/>
  <path class="fil13" d="M6202.03 7123.83c-161.51,0 -361.82,-30.46 -526.81,-96.05 -224,-89.1 -354.74,-226.72 -378.07,-398.11 -79.12,-581.99 507.28,-901.82 513.21,-904.94l23.33 37.31c-5.63,3.03 -565.47,309.01 -490.21,862.25 26.7,196.27 205.18,306.25 350.21,363.91 286.29,113.81 656.12,113.23 745.89,52.4l27.58 34.82c-46.72,31.62 -145.22,48.41 -265.13,48.41z"/>
  <path class="fil8" d="M5640.46 5659.85c-5.26,74.45 -72.17,176.68 207.31,215.15 279.49,38.47 667.8,34.82 747.49,-27.29 79.69,-62.07 158.19,-210.52 -8.44,-197.25 -166.67,13.31 -937.3,-117.91 -946.36,9.39z"/>
  <path class="fil21" d="M6812.94 6201.87c47.77,83.84 133.07,139.5 213.96,161.41 121.74,32.9 184.17,-67.29 151.63,-174.14 -29.26,-96.18 -127.87,-229.18 -250.66,-215.29 -121.01,13.8 -169.56,132.11 -114.93,228.02z"/>
  <polygon class="fil21" points="9754.32,15002.3 10201.73,14994.48 9985.12,13963.02 9537.7,13970.9 "/>
  <path class="fil21" d="M10089.83 14553.22c118.36,411.64 553.29,847.42 553.29,847.42l-620.83 -145.65 -271.35 -356.07 47.49 -94.27 291.4 -251.43z"/>
  <path class="fil13" d="M9648.92 14744.53c-1.87,45.76 1.89,97.85 9.02,144.05 26.19,170.32 107.57,621.63 107.57,621.63l42.13 0.28c0,0 -39.92,-303.85 -34.14,-415.83 5.8,-111.99 84.04,86.03 178.54,198.05 94.49,111.98 264.59,213.94 539.88,221.92 322.3,9.31 450.74,-3.17 347.42,-77.49 -103.28,-74.35 -322.83,-122.84 -322.83,-122.84 0,0 -253.55,-84.11 -434.83,-335.77 -117.49,-163.19 -314.43,-281.23 -399.92,-319.59 -25.9,4.22 -31.34,49.27 -32.84,85.59z"/>
  <polygon class="fil21" points="11338.86,13601.16 11909.98,13617.45 11271.23,12740.38 10875.73,13052.55 "/>
  <path class="fil21" d="M11474.49 13228.74c414.91,178.5 1079.51,143.39 1079.51,143.39l-540.22 400.28 -463.21 -31.71 -48.94 -95.05 -27.14 -416.91z"/>
  <path class="fil13" d="M11386.64 13683.58c35.19,32.64 78.98,65.54 120.1,92 151.54,97.46 560.61,347.2 560.61,347.2l26.23 -30.44c0,0 -266.18,-178.92 -351.67,-259.73 -85.47,-80.81 120.26,-2.18 267.69,5.79 147.42,7.96 333.53,-45.82 509.84,-240.36 206.39,-227.7 275.78,-329.55 152.93,-305.36 -122.85,24.14 -297.04,150.46 -297.04,150.46 0,0 -223.41,126.62 -535.44,86.15 -202.31,-26.26 -417.76,36.03 -501.03,71.87 -12.63,21.72 19.82,56.46 47.78,82.42z"/>
  <path class="fil13" d="M6835.4 10095.18c0,0 3054.93,-417.34 3371.2,305.85 550.29,1258.35 1327.38,2700.15 1327.38,2700.15l-375.24 286.65c0,0 -1331.96,-1138.75 -1805.79,-2402.98 -566.01,169.15 -2366.7,713.36 -3026.24,713.36 -704.42,0 -992.1,-554.67 -737.69,-1475.73 22.66,-82.06 103.7,-138.96 195.45,-138.57 443.5,2.06 1050.93,11.27 1050.93,11.27z"/>
  <path class="fil13" d="M7128.25 10462.61c0,0 2507.32,-69.72 2528.49,750.62 34.96,1356.66 448.96,3300.67 448.96,3300.67l-457.35 39.32c0,0 -747.72,-1546.35 -945.55,-2871.62 -893.13,53.51 -1716.55,16.61 -2376.09,16.61 -739.14,0 -800.23,-749.68 -80.75,-1624.4 439.74,0 882.29,388.8 882.29,388.8z"/>
  <path class="fil4" d="M5581.49 9970.68l-53.27 154.69c-6.98,11.89 8.15,24.67 29.94,25.3l1942.13 53.29c17.03,0.49 31.35,-6.81 32.75,-16.65l22.03 -155.54c1.54,-10.76 -12.92,-20.34 -31.53,-20.84l-1910.9 -52.44c-14.02,-0.4 -26.61,4.53 -31.15,12.19z"/>
  <path class="fil13" d="M5831.77 10175.06l-51.16 -1.38c-10.22,-0.27 -17.79,-5.34 -16.92,-11.26l30.52 -202.02c0.92,-5.92 9.98,-10.55 20.16,-10.24l51.19 1.38c10.17,0.31 17.8,5.35 16.92,11.27l-30.56 202.01c-0.87,5.93 -9.93,10.55 -20.15,10.24z"/>
  <path class="fil13" d="M7355.91 10216.92l-51.16 -1.39c-10.22,-0.3 -17.83,-5.34 -16.92,-11.26l30.52 -202.02c0.92,-5.92 9.98,-10.5 20.14,-10.19l51.21 1.38c10.17,0.27 17.8,5.34 16.87,11.26l-30.52 202.02c-0.86,5.92 -9.98,10.51 -20.14,10.2z"/>
  <path class="fil13" d="M6593.86 10196.03l-51.21 -1.47c-10.16,-0.26 -17.79,-5.33 -16.86,-11.22l30.52 -202.02c0.86,-5.87 9.97,-10.5 20.14,-10.23l51.21 1.42c10.17,0.27 17.78,5.3 16.86,11.22l-30.51 202.01c-0.92,5.93 -9.98,10.55 -20.15,10.29z"/>
  <path class="fil8" d="M8919.47 8236.57l1219.78 0c38.91,0 66.96,34.56 56.07,69.12l-455.8 1444.72c-7.23,23.02 -30.14,38.93 -56.08,38.93l-1219.72 0c-38.95,0 -67.02,-34.6 -56.11,-69.12l455.79 -1444.78c7.28,-23.02 30.13,-38.87 56.07,-38.87z"/>
  <polygon class="fil24" points="8942,8289.61 10127.44,8315.61 9659.33,9678.28 8473.89,9652.33 "/>
  <polygon class="fil4" points="8904.73,8276.2 10090.5,8280.75 9651.34,9651.61 8465.55,9647.12 "/>
  <path class="fil21" d="M7835.57 8304.56c2.41,43.46 6.85,97.48 11.14,146.77 4.77,50.44 10.8,100.98 17.97,151.16 13.5,100.59 31.64,200.14 53.96,297.39 23.19,96.94 50.48,191.99 86.11,280.78 17.74,44.48 37.27,87.5 58.76,128.06 10.42,20.7 22.28,39.85 33.9,59.13l17.64 27.34 -1.93 -0.31c3.32,6.99 37.37,27.11 76.81,41.5 40.4,15.13 88.65,27.83 138.89,38.33 101.11,21.5 211.12,35.49 322.41,46.04 222.68,19.99 455.31,29.96 683.25,34.33l23 213.37c-238.03,42.39 -473.83,69.15 -718.74,75.02 -122.41,2.5 -246.22,0.49 -375.87,-14.25 -64.95,-7.91 -131.23,-18.65 -201.86,-37.66 -70.54,-20.57 -146.66,-44.13 -230.6,-109.94 -20.55,-16.08 -41.51,-37.04 -60.56,-60.41l-31 -40.04c-19.43,-26.49 -38.66,-53.16 -55.5,-80.27 -35.04,-53.97 -64.79,-109.18 -90.92,-164.8 -53.13,-111.19 -93,-223.75 -124.49,-336.8 -31.91,-112.87 -54.91,-226.31 -71.73,-339.95 -8.05,-56.86 -14.65,-113.85 -19.91,-170.98 -5.46,-58.32 -8.74,-112.15 -9.41,-176.73l468.68 -7.08z"/>
  <path class="fil8" d="M7676.94 7647.94c303.61,263.99 230.46,952.02 230.46,952.02l-581.72 93.85c0,0 -359.19,-493.26 -232.92,-700.04 131.47,-215.36 419.93,-488.62 584.18,-345.83z"/>
  <path class="fil4" d="M7907.25 8660.5c-16.92,0 -34.22,-6.67 -46.27,-17.81l-8.2 -9.35 -5.78 -10.23c-1.45,-3.56 -2.9,-7.53 -3.86,-11.58l-1.02 -11.57c0,-15.99 6.8,-31.62 18.86,-42.75l10.12 -7.57 11.09 -5.34 12.49 -3.56c20.77,-4.02 43.43,2.66 58.86,16.47 12.05,11.13 19.24,26.76 19.24,42.75l-1.4 11.57c-0.96,4.05 -1.93,8.02 -3.86,11.58l-5.78 10.23 -8.2 9.35c-12.05,11.14 -28.97,17.81 -46.29,17.81z"/>
  <path class="fil4" d="M7378.85 8692.56c-2.9,-33.38 23.58,-62.78 59.74,-65.44 25.12,-2.24 48.75,9.34 61.28,28.49 7.71,-20.93 27.48,-37.4 52.55,-40.96 25.06,-3.12 49.17,7.12 63.15,25.38 6.27,-21.38 25.08,-38.75 49.66,-43.15 25.07,-4.94 49.67,4.4 64.56,21.77 4.87,-21.77 22.7,-40.07 47.29,-46.31l0 0.49c35.15,-8.95 70.87,10.64 80.04,42.75 9.11,32.01 -11.57,65.41 -46.82,73.86 -25.5,6.24 -52.01,-2.66 -67.93,-20.92 -5.31,22.72 -24.63,41.46 -51.1,46.76 -26.04,4.44 -52.07,-5.79 -66.53,-24.94 -6.75,22.71 -27.01,40.52 -53.57,44.07 -26.46,3.61 -52.02,-8.45 -65.04,-27.99 -8.19,21.77 -29.45,38.69 -56.4,40.92l-5.36 0c-33.7,0 -62.2,-23.6 -65.52,-54.78z"/>
  <path class="fil4" d="M7325.81 8754.51l-13.01 -1.39 -12.05 -3.56 -11.58 -5.34 -9.63 -7.57 -8.2 -9.35 -6.28 -10.24 -3.41 -11.59 -1.4 -11.57c0,-4 0.48,-7.96 1.4,-12.02l3.41 -11.13 6.28 -10.64 8.2 -8.95 9.63 -7.57 11.58 -5.35 12.05 -3.56c21.17,-4 43.87,2.23 58.82,16.48l8.2 8.95 6.26 10.64 3.86 11.13c0.43,4.06 0.97,8.02 0.97,12.02l-0.97 11.57 -3.86 11.59 -6.26 10.24 -8.2 9.35c-12.05,11.13 -28.93,17.86 -45.81,17.86z"/>
  <path class="fil21" d="M9877.7 9332.36l-201.3 -12.56c-50.23,-3.11 -100.13,9.27 -141.94,35.18l-369.88 229.45 -2.79 144.61c118.51,127.3 380.93,13.32 380.93,13.32l243.47 -7.22c39.73,-1.15 74.73,-24.57 88.36,-59.08l88.1 -223.16c22.22,-56.28 -20.26,-116.53 -84.95,-120.54z"/>
  <path class="fil8" d="M5701.93 15663.42l54.63 0c21.31,0 39.58,-17.26 43.24,-40.9l335.57 -2156.85 -254.81 0 -222.21 2142.49c-3.05,29.44 17.3,55.26 43.58,55.26z"/>
  <path class="fil9" d="M5756.56 15663.42l-54.63 0c-24.49,0 -43.92,-22.52 -43.92,-49.4 0,-1.94 0.1,-3.89 0.34,-5.86l222.21 -2142.49 254.81 0 -92.53 594.47 -1.73 11.14 -57.09 366.88 -1.69 11.13 -182.53 1173.23c-3.66,23.64 -21.93,40.9 -43.24,40.9z"/>
  <path class="fil8" d="M5002.81 15663.42l54.63 0c21.3,0 39.52,-17.26 43.24,-40.9l335.55 -2156.85 -254.8 0 -222.21 2142.49c-3.04,29.44 17.31,55.26 43.59,55.26z"/>
  <path class="fil9" d="M5057.44 15663.42l-54.63 0c-24.5,0 -43.92,-22.52 -43.88,-49.4 0,-1.94 0.1,-3.89 0.29,-5.86l222.21 -2142.49 254.8 0 -92.47 594.47 -1.73 11.14 -57.09 366.88 -1.73 11.13 -182.53 1173.23c-3.72,23.64 -21.94,40.9 -43.24,40.9z"/>
  <path class="fil8" d="M8898.26 15663.42l-54.62 0c-21.27,0 -39.54,-17.26 -43.2,-40.9l-335.61 -2156.85 254.81 0 222.26 2142.49c3.03,29.44 -17.36,55.26 -43.64,55.26z"/>
  <path class="fil9" d="M8898.26 15663.42l-54.62 0c-21.27,0 -39.54,-17.26 -43.2,-40.9l-335.61 -2156.85 254.81 0 222.26 2142.49c0.19,1.97 0.29,3.92 0.29,5.86 0,26.88 -19.38,49.4 -43.93,49.4z"/>
  <path class="fil8" d="M9597.38 15663.42l-54.62 0c-21.31,0 -39.54,-17.26 -43.24,-40.9l-335.55 -2156.85 254.79 0 222.26 2142.49c3.04,29.44 -17.35,55.26 -43.64,55.26z"/>
  <path class="fil9" d="M9597.38 15663.42l-54.62 0c-21.31,0 -39.54,-17.26 -43.24,-40.9l-335.55 -2156.85 254.79 0 222.26 2142.49c0.19,1.97 0.29,3.92 0.29,5.86 0,26.88 -19.38,49.4 -43.93,49.4z"/>
  <path class="fil8" d="M10503.44 10908.98l-1716.35 0c-304.52,-976.59 -1400.23,-1747.11 -2522.33,-1747.11l-557.48 0c-1174.53,0 -1932.51,844.04 -1693.03,1885.19 43.98,191.14 118.79,375.58 218.43,549.36l270.66 1515.18c34.94,195.57 203.87,354.07 377.35,354.07l5166.03 0c173.43,0 342.36,-158.5 377.32,-354.07l330.2 -1848.49c34.9,-195.56 -77.33,-354.13 -250.8,-354.13z"/>
  <path class="fil19" d="M10046.72 13465.67l-5166.03 0c-173.48,0 -342.41,-158.5 -377.35,-354.07l-270.66 -1515.18c-99.64,-173.78 -174.45,-358.22 -218.43,-549.36 -29.92,-130.15 -44.27,-257.22 -44.19,-379.94 0.73,-859.04 709.5,-1505.25 1737.22,-1505.25l557.48 0c1122.1,0 2217.81,770.52 2522.33,1747.11l1716.35 0c152.11,0 257.17,121.96 257.17,283.81 0,22.71 -2.08,46.22 -6.37,70.32l-40.97 229.39 -220.49 1234.13 -68.74 384.97c-34.96,195.57 -203.89,354.07 -377.32,354.07z"/>
  <polygon class="fil8" points="8756.91,2982.52 9150.67,2982.52 9150.67,2938.01 8756.91,2938.01 "/>
  <path class="fil8" d="M7268.63 3499.48l-48.21 0 0 -219.08c0,-168.52 148.5,-305.61 331.03,-305.61l878.9 0 0 44.51 -878.9 0c-155.98,0 -282.82,117.15 -282.82,261.1l0 219.08z"/>
  <path class="fil8" d="M11947.05 5022.22l-4395.6 0c-89.63,0 -162.29,-67.1 -162.29,-149.83l0 -1591.99c0,-82.72 72.66,-149.78 162.29,-149.78l4395.6 0c89.62,0 162.29,67.06 162.29,149.78l0 1591.99c0,82.73 -72.67,149.83 -162.29,149.83z"/>
  <path class="fil4" d="M11739.21 4177.08l-3979.92 0c-60.22,0 -109.01,-45.06 -109.01,-100.69 0,-55.56 48.79,-100.66 109.01,-100.66l3979.92 0c60.21,0 109,45.1 109,100.66 0,55.63 -48.79,100.69 -109,100.69z"/>
  <path class="fil4" d="M10887.49 4595.13l-3128.2 0c-60.22,0 -109.01,-45.02 -109.01,-100.63 0,-55.58 48.79,-100.67 109.01,-100.67l3128.2 0c60.17,0 109.01,45.09 109.01,100.67 0,55.61 -48.84,100.63 -109.01,100.63z"/>
  <path class="fil4" d="M9101.42 3758.98l-1342.13 0c-60.22,0 -109.01,-45.06 -109.01,-100.69 0,-55.56 48.79,-100.62 109.01,-100.62l1342.13 0c60.21,0 109.01,45.06 109.01,100.62 0,55.63 -48.8,100.69 -109.01,100.69z"/>
  <path class="fil4" d="M10880.54 3758.98l-1342.12 0c-60.22,0 -109.01,-45.06 -109.01,-100.69 0,-55.56 48.79,-100.62 109.01,-100.62l1342.12 0c60.23,0 109.02,45.06 109.02,100.62 0,55.63 -48.79,100.69 -109.02,100.69z"/>
  <path class="fil8" d="M7769.8 5011.8l0 482.3c0,92.84 115.46,145.16 194.96,88.39l800.32 -572.11 -995.28 1.42z"/>
  <path class="fil4" d="M17595.47 2703.46l-4395.66 0c-89.62,0 -162.23,67.09 -162.23,149.87l0 1591.98c0,82.73 72.61,149.83 162.23,149.83l3472.49 0 629.37 449.8c79.46,56.86 194.92,4.55 194.92,-88.3l0 -361.5 98.88 0c89.58,0 162.24,-67.1 162.24,-149.83l0 -1591.98c0,-82.78 -72.66,-149.87 -162.24,-149.87z"/>
  <path class="fil8" d="M13163.43 2665.16c-76.18,0 -138.18,57.25 -138.18,127.6l0 1591.98c0,70.36 62,127.57 138.18,127.57l3480.69 0 635.87 454.48c29.89,21.38 67.98,25.03 101.96,9.58 33.95,-15.36 54.19,-45.38 54.19,-80.29l0 -383.77 122.95 0c76.17,0 138.12,-57.21 138.12,-127.57l0 -1591.98c0,-70.35 -61.95,-127.6 -138.12,-127.6l-4395.66 0zm4175.67 2365.04c-31.4,0 -62.54,-9.53 -88.58,-28.19l-622.9 -445.17 -3464.19 0c-102.75,0 -186.38,-77.24 -186.38,-172.1l0 -1591.98c0,-94.89 83.63,-172.13 186.38,-172.13l4395.66 0c102.69,0 186.34,77.24 186.34,172.13l0 1591.98c0,94.86 -83.65,172.1 -186.34,172.1l-74.73 0 0 339.24c0,51.52 -31.15,97.57 -81.2,120.27 -20.48,9.27 -42.32,13.85 -64.06,13.85z"/>
  <path class="fil8" d="M15267.31 3628.84l2083.88 0c60.22,0 109.02,-45.06 109.02,-100.63 0,-55.65 -48.8,-100.67 -109.02,-100.67l-2083.88 0c-60.21,0 -109,45.02 -109,100.67 0,55.57 48.79,100.63 109,100.63z"/>
  <path class="fil8" d="M13812.41 3628.84l1031.75 0c60.21,0 109,-45.06 109,-100.63 0,-55.65 -48.79,-100.67 -109,-100.67l-1031.75 0c-60.16,0 -109.01,45.02 -109.01,100.67 0,55.57 48.85,100.63 109.01,100.63z"/>
  <path class="fil8" d="M14223.03 4046.94l3128.16 0c60.22,0 109.02,-45.05 109.02,-100.67 0,-55.62 -48.8,-100.68 -109.02,-100.68l-3128.16 0c-60.21,0 -109,45.06 -109,100.68 0,55.62 48.79,100.67 109,100.67z"/>
  <path class="fil8" d="M13371.27 3210.79l3979.92 0c60.22,0 109.02,-45.06 109.02,-100.68 0,-55.61 -48.8,-100.67 -109.02,-100.67l-3979.92 0c-60.16,0 -109.01,45.06 -109.01,100.67 0,55.62 48.85,100.68 109.01,100.68z"/>
 </g>
</svg>
