<?xml version='1.0' encoding='utf-8'?>
<svg xmlns="http://www.w3.org/2000/svg" version="1.1" width="1080px" height="2132px" viewBox="0 0 1080 2132">
    <!-- <g id="layer1">
        <g style="fill:rgba(0, 176, 230, 0); fill-opacity:1.0; stroke-linejoin: miter">
            <path d="M-185.001,513.2562C-185.19801,513.2562,-185.38695,513.3345,-185.52626,513.47375C-185.66557,513.61304,-185.74384,513.802,-185.74384,513.999L-185.74283,1602.0C-185.74283,1602.4103,-185.41025,1602.7428,-185.0,1602.7428L1265.001,1602.7438C1265.198,1602.7438,1265.387,1602.6655,1265.5262,1602.5262C1265.6655,1602.387,1265.7438,1602.198,1265.7438,1602.001L1265.7428,514.0C1265.7428,513.5897,1265.4103,513.2572,1265.0,513.2572L-185.001,513.2562 Z"/>
        </g>
    </g> -->
    <g id="layer2">
        <g style="fill:rgb(0,0,0); fill-opacity:1.0; stroke-linejoin: miter">
            <path d="M164.35637,771.2775C135.46481,771.2775,111.77954,795.02344,111.77954,823.9141L111.77956,1297.1686C111.77956,1326.0597,135.46495,1349.745,164.35637,1349.745L972.7778,1349.774C1001.66876,1349.745,1025.3547,1326.0597,1025.3547,1297.1688L1025.3547,823.9165C1025.3547,795.0253,1001.66925,771.2798,972.7778,771.2798L164.35637,771.30945 Z M164.35637,801.3884L972.7778,801.4169C985.50916,801.3882,995.24365,811.1809,995.2434,823.9139L995.2433,1297.1688C995.2433,1309.9015,985.5084,1319.634,972.7778,1319.634L164.35637,1319.6635C151.62506,1319.634,141.89095,1309.9015,141.89095,1297.1688L141.89075,823.9169C141.89075,811.18365,151.62529,801.39087,164.35637,801.39087 Z"/>
        </g>
        <g style="fill:rgb(0,0,0); fill-opacity:1.0; stroke-linejoin: miter">
            <path d="M63.620033,1358.4362C63.620033,1390.22,85.56788,1415.8177,112.82132,1415.8175L1024.3126,1415.847C1051.5657,1415.8181,1073.514,1390.2256,1073.514,1358.4362L63.61991,1358.468 Z"/>
        </g>
        <g style="fill:rgb(34,43,50); fill-opacity:1.0; stroke-linejoin: miter">
            <path d="M493.37952,1370.482L643.7812,1370.5132C646.1018,1370.4823,647.9701,1372.3497,647.9701,1374.6733C647.9701,1376.9921,646.1018,1378.8625,643.7812,1378.8625L493.37952,1378.8912C491.0589,1378.8625,489.19067,1376.9967,489.19067,1374.6733C489.19067,1372.3547,491.0589,1370.482,493.37952,1370.482 Z"/>
        </g>
        <g style="fill:rgb(9,57,76); fill-opacity:1.0; stroke-linejoin: miter">
            <path d="M164.35637,800.94653C164.33969,800.94653,164.32314,800.9475,164.30681,800.9494L164.30368,800.95044C151.353,800.9762,141.44897,810.9586,141.44897,823.9169L141.44897,1297.1688C141.44897,1310.1458,151.3811,1320.0752,164.35527,1320.1052L164.35637,1320.1058L972.7778,1320.076C985.7526,1320.076,995.6852,1310.1455,995.6852,1297.1688L995.6852,823.9139C995.6852,810.9579,985.78424,800.9752,972.83417,800.975C972.8117,800.975,972.8006,800.975,972.7758,800.9752L164.35637,800.94653 Z"/>
        </g>
        <g style="fill:rgb(0,0,0); fill-opacity:0.5019608; stroke-linejoin: miter">
            <path d="M1158.3513,1414.6792L1152.9572,1415.6976Q1144.4343,1416.3812,1128.6166,1417.0042Q1082.6885,1418.509,1064.7489,1418.7362Q1011.22736,1419.8003,928.525,1420.6204Q845.25,1421.44,748.83136,1421.8257Q700.622,1422.0189,649.1268,1422.104Q517.51324,1422.2214,487.24762,1422.115Q433.39795,1422.0073,384.34033,1421.8063Q356.8166,1421.7634,247.9493,1420.9951Q164.20996,1420.3151,99.63846,1419.265Q-44.52719,1416.724,-20.098278,1413.9836Q-9.360922,1412.6191,33.060978,1411.466Q54.271935,1410.8895,83.403885,1410.3661Q93.48864,1410.0654,187.6839,1408.9264Q344.229,1407.2458,567.43176,1407.1741Q679.0331,1407.2101,773.97034,1407.6482Q888.99634,1408.2838,907.0022,1408.5316Q948.2215,1408.902,985.275,1409.3724Q1070.9769,1410.5952,1078.6122,1410.9032Q1103.7838,1411.4531,1121.0338,1412.056Q1155.5352,1413.2616,1158.3513,1414.6792"/>
        </g>
        <g style="fill:rgb(158,215,255); fill-opacity:0.2509804; stroke-linejoin: miter">
            <path d="M226.76994,934.4716L431.10773,934.472L635.4454,934.47235Q635.44556,1102.1434,635.4457,1269.8147Q431.1078,1269.8151,226.76979,1269.8153Q226.7699,1102.1432,226.76994,934.4716"/>
        </g>
        <g style="fill:rgb(255,255,255); fill-opacity:1.0; stroke-linejoin: miter">
            <path d="M446.87738,870.424L478.83997,870.5911C484.72418,870.6148,489.47003,875.4092,489.44025,881.2936L489.33252,902.60187C489.3031,908.48627,484.5091,913.23346,478.62506,913.2037L446.66223,913.04736C440.7779,913.01263,436.03162,908.2174,436.06158,902.3331L436.169,881.0249C436.1988,875.13983,440.99316,870.39417,446.87738,870.424 Z M489.41327,886.62036L502.2472,877.09595C504.60956,875.344,507.94604,875.83813,509.69977,878.19977L509.5921,899.5089C509.57733,902.4501,507.18054,904.82214,504.23834,904.8077C503.08557,904.8017,501.9655,904.42236,501.047,903.72687L488.31012,894.07385 Z"/>
        </g>
        <g style="fill:rgb(0,0,0); fill-opacity:1.0; stroke-linejoin: miter">
            <path d="M446.87738,870.424L446.87732,870.42737L478.83997,870.5911L478.83997,870.59454C484.72083,870.6148,489.46466,875.40393,489.44025,881.284L489.44025,881.28796C489.44025,881.28815,489.44025,881.2889,489.44025,881.2936L489.44025,881.2969L489.33252,902.60187L489.33252,902.6051C489.3031,908.48627,484.5091,913.23346,478.62506,913.2037L478.62506,913.207L446.66223,913.04736L446.66223,913.05096C440.7779,913.01263,436.03162,908.2174,436.06158,902.3331L436.06146,902.3358L436.169,881.0249L436.169,881.02795C436.1988,875.13983,440.99316,870.39417,446.87738,870.424L446.87732,870.42737 M446.87738,870.424L446.87732,870.42737C440.99316,870.39417,436.1988,875.13983,436.169,881.0249L436.169,881.02795L436.06158,902.3331L436.06146,902.3358C436.03162,908.2174,440.7779,913.01263,446.66223,913.04736L446.66223,913.05096L478.62506,913.2037L478.62506,913.207C484.5091,913.23346,489.3031,908.48627,489.33252,902.60187L489.33252,902.6051L489.44025,881.2936L489.44025,881.2969C489.44025,881.2889,489.44025,881.28815,489.44025,881.284L489.44025,881.28796C489.46466,875.40393,484.72083,870.6148,478.83997,870.5911L478.83997,870.59454L446.87738,870.424 Z M489.41327,886.62036L489.41327,886.62445L502.2472,877.09595L502.2472,877.09955C504.60956,875.344,507.94604,875.83813,509.69977,878.19977L509.69965,878.2036L509.5921,899.5089L509.5921,899.5123C509.57733,902.4501,507.18054,904.82214,504.23834,904.8077L504.23834,904.8114C503.08557,904.8017,501.9655,904.42236,501.047,903.72687L501.047,903.7302L488.31012,894.07385L488.31012,894.07745L489.41327,886.62036L489.41327,886.62445 M489.41327,886.62036L489.41327,886.62445L488.31012,894.07385L488.31012,894.07745L501.047,903.72687L501.047,903.7302C501.9655,904.42236,503.08557,904.8017,504.23834,904.8077L504.23834,904.8114C507.18054,904.82214,509.57733,902.4501,509.5921,899.5089L509.5921,899.5123L509.69977,878.19977L509.69965,878.2036C507.94604,875.83813,504.60956,875.344,502.2472,877.09595L502.2472,877.09955L489.41327,886.62036 Z"/>
        </g>
        <g style="fill:rgb(255,255,255); fill-opacity:1.0; stroke-linejoin: miter">
            <path d="M559.1029,871.49445C562.5411,871.51215,565.32556,874.3246,565.3081,877.7632L565.2456,890.2372C565.22784,893.67535,562.41504,896.45996,558.9768,896.44244C555.53827,896.4253,552.7539,893.6126,552.77106,890.17444L552.8339,877.7001C552.8517,874.26227,555.6642,871.47754,559.1029,871.49445 Z M559.12366,867.3376C553.4066,867.309,548.7051,871.9629,548.6763,877.67896L548.6133,890.1531C548.5843,895.87006,553.2387,900.57086,558.95605,900.5994C564.67316,900.62854,569.3747,895.9756,569.40326,890.2582L569.46643,877.784C569.49536,872.0681,564.84094,867.36664,559.12366,867.3376 Z"/>
        </g>
        <g style="fill:rgb(255,255,255); fill-opacity:1.0; stroke-linejoin: miter">
            <path d="M577.7403,886.14136L577.719,890.3003C577.67065,899.8846,570.3128,907.8105,560.9938,908.8018L560.97205,913.0843L569.288,913.128C570.4312,913.1325,571.362,914.07275,571.35626,915.2163C571.3504,916.3593,570.4104,917.2899,569.2672,917.2846L548.4768,917.18146C547.3337,917.1734,546.40283,916.23285,546.40857,915.0903C546.4144,913.94653,547.3545,913.0153,548.49774,913.0209L556.8137,913.0647L556.8354,908.7806C547.5268,907.6951,540.24915,899.6958,540.2975,890.1113L540.3185,885.9529C540.32416,884.8095,541.26447,883.8792,542.40796,883.8846C543.5511,883.891,544.48236,884.8305,544.47675,885.97375L544.4556,890.13245C544.4151,898.15656,550.91003,904.71735,558.9348,904.7579C566.96,904.7982,573.5209,898.30365,573.56146,890.2793L573.58264,886.12054C573.58826,884.9775,574.52826,884.047,575.6718,884.05316C576.81537,884.0586,577.7458,884.99835,577.7403,886.14136 Z"/>
        </g>
        <g style="fill:rgb(9,57,76); fill-opacity:1.0; stroke-linejoin: miter">
            <path d="M559.1029,871.4546C555.6432,871.4375,552.81195,874.23846,552.79443,877.7001L552.73145,890.17444C552.7142,893.63416,555.5167,896.4648,558.9764,896.48193C562.4369,896.4997,565.2673,893.6974,565.2849,890.2375L565.3479,877.7632C565.3653,874.3015,562.56274,871.47253,559.1029,871.4546 Z"/>
        </g>
        <g style="fill:rgb(255,255,255); fill-opacity:1.0; stroke-linejoin: miter">
            <path d="M394.06897,909.2502L359.1953,909.07776C353.0052,909.0431,347.96112,903.9483,347.9925,897.7579L348.05823,884.7484C348.08948,878.55786,353.18463,873.5144,359.37488,873.54535L394.24847,873.7249C400.43835,873.7523,405.48248,878.8474,405.45117,885.0382L405.3855,898.0478C405.35425,904.2506,400.2591,909.2813,394.06897,909.2502 Z"/>
        </g>
        <g style="fill:rgb(255,129,129); fill-opacity:1.0; stroke-linejoin: miter">
            <path d="M357.03186,883.7103L370.50537,883.7825L383.97845,883.8468L383.96484,886.5333Q370.4917,886.46533,357.01825,886.39716Q357.02515,885.0538,357.03186,883.7103"/>
        </g>
        <g style="fill:rgb(255,129,129); fill-opacity:1.0; stroke-linejoin: miter">
            <path d="M357.09296,889.9647L384.03967,890.105L384.02606,892.7865L357.0794,892.6543L357.09296,889.9647"/>
        </g>
        <g style="fill:rgb(255,129,129); fill-opacity:1.0; stroke-linejoin: miter">
            <path d="M357.2931,896.2199L370.7663,896.29095L384.23944,896.356L384.2257,899.042Q370.7527,898.9736,357.27942,898.9056Q357.28613,897.5623,357.2931,896.2199"/>
        </g>
        <g style="fill:rgb(51,202,35); fill-opacity:1.0; stroke-linejoin: miter">
            <path d="M317.412,891.4669L317.23352,893.9338Q316.01593,901.3819,310.2691,905.82227Q304.48297,910.2587,296.67615,909.3757Q289.22772,908.1581,284.78717,902.4106Q283.36438,900.5529,282.4486,898.3671L281.68066,896.1198Q281.05017,893.8009,281.05585,891.2833Q281.2898,883.5601,286.445,878.4569Q291.60004,873.3532,299.32562,873.197Q307.04913,873.43134,312.15265,878.5867Q317.25623,883.7418,317.412,891.4669"/>
        </g>
        <g style="fill:rgb(0,0,0); fill-opacity:0.99607843; stroke-linejoin: miter">
            <path d="M367.396,1023.25574L368.27008,1032.5315Q374.51923,1094.2272,372.64777,1121.6193Q371.42584,1147.0591,356.80438,1167.8373L517.3209,1178.4487Q495.82593,1158.465,492.14105,1130.6489Q487.19592,1106.0132,491.43103,1021.0936L367.396,1023.25574"/>
        </g>
        <g style="fill:rgb(0,0,0); fill-opacity:0.99607843; stroke-linejoin: miter">
            <path d="M385.78467,1063.6381L372.02142,1037.537Q368.98914,1039.069,366.0282,1033.7874Q362.5799,1028.2533,362.15234,1021.5713Q361.94153,1016.6283,368.57434,1010.04895Q367.17792,1001.8854,367.91113,997.91675Q369.0371,993.2936,374.4781,990.8557Q373.75073,983.48096,374.96826,980.5232Q375.5528,979.26843,376.63458,978.6106Q381.20892,976.5951,382.11633,975.6919Q382.6823,975.6367,387.2727,968.6692Q388.45074,967.1993,390.0572,966.13Q392.32562,964.3942,399.67303,962.31146Q409.38605,954.6804,413.4417,953.7367Q419.69183,950.89813,431.93988,958.63055Q445.6911,952.06537,451.99786,956.9567Q454.3656,958.04614,461.16455,964.1531Q472.2215,968.22797,475.3396,972.072Q478.88782,975.5936,481.16333,986.2494Q487.54858,992.896,488.79358,995.49036Q491.58643,999.9363,488.64368,1006.57935Q494.03326,1013.29175,493.62,1019.2306Q492.99524,1024.1565,488.3498,1032.1431L483.47443,1054.5681L385.78467,1063.6381"/>
        </g>
        <g style="fill:rgb(33,75,106); fill-opacity:1.0; stroke-linejoin: miter">
            <path d="M311.00067,1271.7849L311.43933,1261.0548Q314.55646,1174.1896,327.00098,1159.1556Q332.69397,1150.2255,340.14728,1146.32Q343.83398,1144.281,347.7209,1142.9816Q353.7058,1141.0184,367.00885,1138.0834Q368.99872,1137.7491,377.45813,1134.5055Q389.02454,1129.6708,404.40753,1119.1212L466.2254,1124.9613Q478.82397,1132.1456,485.25592,1134.7992Q491.60553,1137.7891,511.86957,1144.8254L521.2071,1148.7699Q530.7757,1153.092,539.2081,1160.5546Q551.9467,1171.7299,557.25507,1193.6124Q563.53845,1218.9143,564.125,1271.6208L311.00067,1271.7849"/>
        </g>
        <g style="fill:rgb(255,183,146); fill-opacity:1.0; stroke-linejoin: miter">
            <path d="M399.35767,1126.5205L399.9124,1125.5941Q403.71716,1119.6642,404.17383,1114.5763Q404.73505,1110.1241,401.57935,1099.2905Q393.36047,1093.62,388.07623,1082.8866Q379.39978,1082.6868,374.90436,1077.547Q369.79706,1070.3141,368.69464,1059.456Q367.69183,1051.985,371.1607,1048.6812Q373.20422,1047.1755,375.76184,1046.5641L379.88086,1050.3807Q375.70453,1032.5573,377.2578,1022.5908Q378.1615,1012.81274,387.2519,991.1472Q423.38098,968.8393,454.60303,982.50903Q463.9287,986.89136,470.43683,997.1156Q477.79938,1008.76,484.66443,1033.4109Q496.72662,1034.8158,496.7768,1042.4369Q497.18182,1052.102,489.75977,1066.8854Q485.4712,1075.5518,477.85553,1073.1128Q476.5121,1081.6562,474.32745,1085.3811Q472.41284,1089.2039,465.55786,1095.7563Q462.7898,1110.824,462.9403,1115.6852Q462.8169,1121.0239,465.63916,1126.3551L433.28906,1153.1825L399.35767,1126.5205"/>
        </g>
        <g style="fill:rgb(255,235,59); fill-opacity:0.99607843; stroke-linejoin: miter">
            <path d="M399.0199,1252.6102L399.0199,1252.6105L399.0199,1252.6107L399.0199,1252.6102"/>
        </g>
        <g style="fill:rgb(0,0,0); fill-opacity:0.99607843; stroke-linejoin: miter">
            <path d="M415.04095,1019.02185L414.123,1018.99316Q410.4204,1018.8402,406.96545,1019.0043Q404.29523,1019.1642,402.31842,1019.6616L401.4132,1019.91345L400.53973,1020.20654L399.695,1020.5365Q398.86456,1020.8845,398.08038,1021.2921Q396.1081,1022.29565,392.9129,1024.5579L415.04095,1019.02185"/>
        </g>
        <g style="fill:rgb(255,255,255); fill-opacity:0.99607843; stroke-linejoin: miter">
            <path d="M418.0504,1036.911L417.19293,1036.4434Q414.6139,1034.9784,412.09705,1034.0793Q411.2603,1033.8007,410.43744,1033.6477L409.61877,1033.534Q408.87634,1033.4462,407.86383,1033.5701Q406.67468,1033.7609,405.664,1034.2327L405.0379,1034.5382Q404.4145,1034.8672,403.7995,1035.2737Q402.5589,1035.9883,398.95972,1039.2504Q402.62042,1039.7743,404.63745,1039.867Q406.65198,1039.9313,407.04987,1039.8835Q407.8507,1039.8511,408.64618,1039.7542Q408.92175,1039.74,410.28424,1039.4828Q411.3722,1039.2552,412.45215,1038.9333Q413.9624,1038.5289,418.0504,1036.911"/>
        </g>
        <g style="fill:rgb(0,0,0); fill-opacity:0.99607843; stroke-linejoin: miter">
            <path d="M405.51874,1037.6163L405.69495,1038.0114Q406.3388,1039.1649,407.54895,1039.5537Q408.76526,1039.9392,409.99756,1039.3292Q411.15076,1038.6849,411.53955,1037.4752Q411.92523,1036.2587,411.315,1035.0264Q410.67108,1033.873,409.461,1033.4847Q408.24463,1033.0989,407.0124,1033.709Q405.85913,1034.3527,405.47046,1035.5632Q405.3468,1035.9532,405.32623,1036.3674L405.33374,1036.7831Q405.36798,1037.2024,405.51874,1037.6163"/>
        </g>
        <g style="fill:rgb(255,168,129); fill-opacity:1.0; stroke-linejoin: miter">
            <path d="M419.77185,1063.1697L434.48016,1067.4578L447.5625,1058.8436Q444.04785,1060.1853,438.35858,1061.8744Q435.305,1062.7264,433.25586,1063.0011Q428.1292,1063.8304,419.77185,1063.1697"/>
        </g>
        <g style="fill:rgb(255,160,118); fill-opacity:1.0; stroke-linejoin: miter">
            <path d="M416.69855,1079.1421L418.00134,1078.7443Q427.3667,1075.866,430.07812,1075.4279Q431.66113,1075.2222,432.19208,1075.2673Q432.60455,1075.2926,432.89642,1075.3479Q433.9123,1075.6328,434.0099,1075.5896Q434.0943,1075.5896,434.26538,1075.5554Q435.46796,1075.2319,435.8806,1075.1873Q437.01404,1075.0369,437.6535,1075.0476Q438.45465,1074.9905,441.36127,1075.2251Q444.1601,1075.4613,450.27936,1076.2281Q444.4073,1079.5792,441.27704,1080.5282Q438.8329,1081.3175,436.47406,1081.581Q436.26263,1081.6378,434.4355,1081.727L432.96698,1081.7328L431.45746,1081.6703Q428.72986,1081.4841,425.8202,1080.9948Q423.18402,1080.5826,416.69855,1079.1421"/>
        </g>
        <g style="fill:rgb(255,57,0); fill-opacity:0.11372549; stroke-linejoin: miter">
            <path d="M401.8316,1100.721L403.81226,1101.7666Q413.58502,1106.9587,419.2282,1108.5161Q424.38715,1110.1732,431.48566,1109.8356Q434.25024,1109.6008,437.70856,1108.7571Q441.40637,1107.668,446.08008,1105.8292Q452.87787,1102.983,464.46307,1096.5309L434.32812,1127.7891L401.8316,1100.721"/>
        </g>
        <g style="fill:rgb(0,0,0); fill-opacity:0.99607843; stroke-linejoin: miter">
            <path d="M440.78668,1019.10913L441.65454,1018.8093Q445.1444,1017.5626,448.49213,1016.693Q451.08936,1016.0525,453.12463,1015.9403L454.06384,1015.912L454.985,1015.9321L455.88947,1015.99585Q456.78583,1016.0814,457.6557,1016.2377Q459.83704,1016.6102,463.56006,1017.82056L440.78668,1019.10913"/>
        </g>
        <g style="fill:rgb(255,255,255); fill-opacity:0.99607843; stroke-linejoin: miter">
            <path d="M443.2276,1037.0845L443.9077,1036.3838Q445.93488,1034.2181,448.0711,1032.612Q448.7871,1032.0972,449.52747,1031.7068L450.27545,1031.3551Q450.9582,1031.0509,451.96185,1030.868Q453.1538,1030.6968,454.25934,1030.8474L454.9477,1030.9531Q455.64087,1031.0823,456.34863,1031.2877Q457.74567,1031.601,462.1515,1033.6469Q458.81165,1035.2346,456.9132,1035.922Q455.00873,1036.5818,454.61475,1036.6549Q453.84027,1036.8618,453.05194,1037.0054Q452.78455,1037.0736,451.4074,1037.2328Q450.30078,1037.339,449.17395,1037.3527Q447.61176,1037.415,443.2276,1037.0845"/>
        </g>
        <g style="fill:rgb(0,0,0); fill-opacity:0.99607843; stroke-linejoin: miter">
            <path d="M455.40308,1034.0352L455.3523,1034.4646Q455.08014,1035.7572,454.04028,1036.4875Q452.99323,1037.2174,451.63538,1037.0011Q450.3429,1036.7289,449.6123,1035.6891Q448.88257,1034.642,449.09918,1033.2842Q449.37122,1031.9917,450.4112,1031.261Q451.4582,1030.5312,452.81604,1030.7478Q454.10852,1031.0203,454.83917,1032.0602Q455.07324,1032.396,455.21588,1032.7858L455.3322,1033.1844Q455.424,1033.5953,455.40308,1034.0352"/>
        </g>
        <g style="fill:rgb(57,68,88); fill-opacity:1.0; stroke-linejoin: miter">
            <path d="M473.44684,1023.0178L480.25323,1024.6484L487.05957,1026.2794Q487.36926,1029.7853,487.67896,1033.2905Q480.67114,1033.4651,473.66345,1033.6392L473.44684,1023.0178"/>
        </g>
        <g style="fill:rgb(57,68,88); fill-opacity:1.0; stroke-linejoin: miter">
            <path d="M384.93848,1031.9694L384.93848,1031.9694L372.6781,1042.5503Q373.479,1044.737,374.2799,1046.9235Q381.44684,1044.7782,388.61365,1042.6327L384.93848,1031.9694"/>
        </g>
        <g style="fill:rgb(0,0,0); fill-opacity:1.0; stroke-linejoin: miter">
            <path d="M495.935,1120.9102L495.935,1120.9102L495.935,1120.9104L495.935,1120.9102"/>
        </g>
        <g style="fill:rgb(129,232,255); fill-opacity:0.17254902; stroke-linejoin: miter">
            <path d="M433.1142,1028.1411L434.49573,1027.4963Q437.51953,1025.8687,443.74774,1023.65344Q447.24164,1022.51196,450.40466,1022.0034Q456.23102,1021.41284,459.61523,1021.6946Q463.8169,1021.8834,468.84656,1022.57166L469.81305,1044.2316Q464.71802,1050.3137,460.90717,1051.9221Q457.82794,1053.2604,453.75616,1052.5521Q448.1399,1051.4098,441.925,1048.7367L433.1142,1028.1411"/>
        </g>
        <g style="fill:rgb(129,232,255); fill-opacity:0.17254902; stroke-linejoin: miter">
            <path d="M388.91992,1034.1278L388.91992,1034.1283Q392.81146,1030.8054,395.55377,1029.4303Q396.63702,1028.8695,397.85608,1028.4186L399.11725,1028.0018Q400.41687,1027.616,401.90283,1027.3817Q405.97717,1026.7975,411.2791,1027.156Q416.17328,1027.4528,424.6524,1028.5583L423.57098,1046.2214Q423.19147,1047.552,422.50818,1048.9103Q420.81018,1051.911,416.79364,1054.1052Q412.43768,1056.58,408.56775,1057.1887Q405.26532,1057.7552,401.6059,1056.4912Q398.70038,1055.5381,393.0091,1051.4967L388.91992,1034.1278"/>
        </g>
        <g style="fill:rgb(57,68,88); fill-opacity:1.0; stroke-linejoin: miter">
            <path d="M402.47864,1025.6666C397.67218,1026.432,390.38544,1027.9448,385.74945,1029.1525C382.86676,1029.9015,382.96106,1029.7272,383.31958,1033.5271L383.6026,1036.5277L384.5744,1037.2979C385.68604,1038.2023,385.91406,1038.6764,387.8631,1044.3617C389.6845,1049.6736,391.4311,1052.6278,394.1126,1054.9976C397.1311,1057.6293,400.80316,1058.8416,405.92114,1058.8362C410.06628,1058.8306,414.02698,1057.8512,416.94482,1056.1084C418.97748,1054.9075,420.16254,1053.8601,421.6209,1052.0166C423.7187,1049.3613,424.76495,1047.0433,426.34045,1041.5754C427.9743,1035.9554,428.69397,1034.6394,430.1853,1034.4991C431.6765,1034.3588,432.69025,1035.5842,435.24512,1040.6981C437.74866,1045.6525,439.40222,1048.0107,441.91565,1050.1577C443.67175,1051.6619,445.0498,1052.467,447.23352,1053.2507C450.42487,1054.4172,454.49976,1054.638,458.57214,1053.8694C463.6532,1052.8947,467.0346,1051.0165,469.53516,1047.7719C471.69385,1044.9825,472.82117,1041.7751,473.60492,1036.2721C474.42816,1030.416,474.5918,1029.8136,475.5155,1028.7175L476.3263,1027.779L476.04297,1024.7787C475.68457,1020.979,475.8089,1021.13257,472.83777,1020.9352C464.95612,1020.4131,458.0257,1020.4437,451.9325,1021.00024C445.5146,1021.6061,443.2874,1022.1089,434.2473,1025.053C430.22577,1026.3683,428.62585,1026.5188,424.43,1025.9794C419.49304,1025.3624,416.16022,1025.0355,413.69464,1024.9558C411.4853,1024.8904,404.71973,1025.3093,402.47864,1025.6666 Z M412.6753,1028.5574C416.33618,1028.6704,418.95074,1029.3591,420.742,1030.6583C422.2589,1031.7632,422.7885,1033.1067,422.79974,1035.9484C422.8141,1043.4862,420.21265,1049.5458,415.57764,1052.7157C412.56372,1054.7975,407.50702,1055.8257,403.3927,1055.1869C399.6333,1054.6058,396.47015,1052.5753,394.51172,1049.5126C393.39142,1047.7474,392.71173,1046.179,392.09198,1043.889C391.55463,1041.8857,391.15753,1037.8688,391.3828,1036.5638C392.0622,1032.4833,395.0716,1030.3646,401.72144,1029.2969C404.66766,1028.836,410.00665,1028.4614,412.6753,1028.5574 Z M456.68213,1024.112C462.84552,1023.91626,465.99835,1024.8651,467.74933,1027.488C468.68433,1028.8496,469.00928,1029.9558,469.24597,1032.4647C469.61658,1036.3922,469.29022,1039.1554,468.13513,1042.2731C467.4873,1043.9663,467.18835,1044.49,466.03406,1045.8643C463.94324,1048.3912,461.69568,1049.6497,457.91895,1050.4454C454.42767,1051.1603,450.63885,1050.8578,447.80554,1049.6022C444.68622,1048.2272,442.05518,1045.614,440.23352,1042.0621C438.61633,1038.9128,437.20093,1033.635,437.44086,1031.7052C437.88208,1028.2157,441.74164,1025.9613,449.26404,1024.8115C452.6819,1024.2875,453.44525,1024.2157,456.68213,1024.112 Z"/>
        </g>
        <g style="fill:rgb(47,97,121); fill-opacity:1.0; stroke-linejoin: miter">
            <path d="M652.88544,1149.3403L717.0453,1149.3433L781.2045,1149.3407Q781.2045,1209.9395,781.2045,1270.5381Q717.0454,1270.5383,652.88544,1270.5392Q652.88544,1209.9397,652.88544,1149.3403"/>
        </g>
        <g style="fill:rgb(255,255,255); fill-opacity:1.0; stroke-linejoin: miter">
            <path d="M752.8907,1217.6984L751.8441,1223.5089Q750.8042,1227.3738,749.3053,1230.8296Q748.8436,1232.8121,743.7749,1240.2792Q739.39874,1245.9691,733.1834,1250.0275Q726.92944,1254.0768,720.0622,1255.5333Q716.6284,1256.2623,713.0421,1256.3425Q711.34467,1256.7877,701.93567,1255.1222Q693.2281,1252.0671,691.9544,1250.8629Q688.91956,1249.0718,686.2751,1246.7859Q680.986,1242.213,677.25745,1235.6644Q669.0634,1219.9146,672.55975,1204.3557Q674.2035,1196.5968,677.87836,1190.3065Q679.71576,1187.1621,682.0609,1184.3839Q682.9526,1182.734,690.1676,1176.9358Q702.0176,1168.5132,717.36743,1169.872Q719.49475,1169.8044,728.01605,1172.7355Q731.30096,1174.0984,734.2332,1176.007Q740.0984,1179.8235,744.5531,1185.8217Q749.61597,1193.5299,749.9346,1195.3607Q751.29456,1198.7211,752.07635,1202.3242Q753.63995,1209.5289,752.8907,1217.6984"/>
        </g>
        <g style="fill:rgb(0,0,0); fill-opacity:1.0; stroke-linejoin: miter">
            <path d="M696.0194,1217.9742L695.477,1217.2665C693.0016,1214.2091,691.64575,1211.5664,691.2577,1209.3658C690.9109,1207.3977,687.7901,1201.2399,689.6991,1197.1406C689.3081,1189.7035,695.5101,1184.3375,695.5101,1184.3375C698.00586,1181.1323,700.7577,1180.7325,707.604,1178.7845C712.98175,1177.2535,718.8485,1179.0311,721.5652,1179.8054C730.56995,1182.3694,734.9346,1194.3728,734.9346,1194.3728C736.25946,1197.5773,734.487,1204.0265,734.49286,1206.2815C734.4979,1208.4215,733.94495,1212.28,732.6404,1217.8628L696.0194,1217.9742 Z"/>
        </g>
        <g style="fill:rgb(255,194,157); fill-opacity:1.0; stroke-linejoin: miter">
            <path d="M709.7309,1264.0205L709.7309,1264.022L709.7309,1264.0253L709.53406,1263.8071C708.6492,1262.9272,708.09906,1261.9187,707.8324,1260.7948C707.60205,1259.8237,712.6592,1261.4269,712.8788,1258.475C710.44,1257.6771,705.9742,1259.5906,704.8739,1258.2855C703.8436,1257.0647,697.6018,1258.6725,695.78235,1254.4204L698.79443,1233.9755C696.6339,1230.5408,695.4241,1226.816,695.16437,1222.8008C693.1922,1224.2677,691.6419,1223.5509,690.51685,1220.648C689.11786,1217.0378,688.5738,1214.3655,689.02893,1212.6685C689.46045,1211.0608,690.32635,1210.4359,691.4921,1210.7C692.2289,1210.8663,693.0395,1212.0055,693.91394,1214.1649L695.1043,1210.654C694.60345,1208.1445,694.43414,1206.12,694.6637,1204.5901C694.84906,1203.353,695.37085,1201.9794,696.16235,1200.4591C702.41187,1198.0057,707.2901,1196.6986,710.7709,1196.2932C714.2058,1195.8904,719.6955,1195.9829,727.2733,1196.8193L731.1849,1203.8796L731.66565,1213.7816C732.4005,1210.98,733.1963,1209.2715,733.9068,1208.5133C734.9781,1207.3712,735.8151,1207.2122,736.27185,1208.3142C736.9195,1209.8802,736.6711,1212.8804,735.74164,1217.1783C735.0807,1220.2375,733.5145,1221.7788,731.13983,1221.8251C731.25964,1225.8926,730.49426,1228.962,728.84534,1231.0364L728.96173,1242.1821C729.0657,1252.1832,730.90784,1255.5688,726.1599,1254.6925C721.4117,1253.8157,723.4174,1251.542,720.997,1257.2229C717.811,1264.7004,721.7437,1256.6354,717.8578,1258.291L714.0957,1261.7076L709.7309,1264.0205L709.7309,1264.022L709.7309,1264.0205 Z"/>
        </g>
        <g style="fill:rgb(45,55,62); fill-opacity:1.0; stroke-linejoin: miter">
            <path d="M699.1122,1234.4436L699.96936,1235.1328Q705.1199,1239.2933,708.0321,1240.7767Q710.8136,1242.2312,713.6543,1241.9619Q714.2787,1241.8856,714.9167,1241.7141Q715.22736,1241.6877,716.8602,1240.9908Q718.176,1240.3673,719.54443,1239.3682Q721.3973,1238.2456,728.6154,1231.0358L713.804,1248.5492L699.1122,1234.4436 Z"/>
        </g>
        <g style="fill:rgb(45,55,62); fill-opacity:1.0; stroke-linejoin: miter">
            <path d="M707.85345,1238.5261L707.85345,1238.5269L707.85345,1238.5295L707.85345,1238.5261 Z"/>
        </g>
        <g style="fill:rgb(255,255,255); fill-opacity:1.0; stroke-linejoin: miter">
            <path d="M719.2059,1209.6702L719.4551,1209.5431Q720.8297,1208.821,721.6818,1208.6685Q721.925,1208.6224,722.1658,1208.6128L722.4785,1208.6179L722.7222,1208.6443Q722.9651,1208.6809,723.2061,1208.7491Q723.3272,1208.7682,723.9238,1209.0065Q724.2815,1209.1536,725.1087,1209.5905Q724.07965,1210.3501,723.4956,1210.6227Q723.0298,1210.8533,722.55115,1210.9266L722.2598,1210.9493L722.0126,1210.9387L721.7635,1210.905Q721.2638,1210.804,720.75226,1210.5576Q719.9837,1210.1759,719.2059,1209.6702 Z"/>
        </g>
        <g style="fill:rgb(0,0,0); fill-opacity:1.0; stroke-linejoin: miter">
            <path d="M721.36957,1208.69L721.31915,1208.7577Q720.9756,1209.1926,720.91876,1209.59Q720.8557,1209.9373,721.0868,1210.8218Q721.79565,1210.9596,722.2681,1210.9493Q722.6781,1210.9493,723.5607,1210.7728Q723.899,1210.1272,723.90344,1209.7958Q723.9374,1209.4663,723.676,1208.789Q722.7117,1208.5759,722.3367,1208.5695Q721.9588,1208.5411,721.36957,1208.69 Z"/>
        </g>
        <g style="fill:rgb(0,0,0); fill-opacity:1.0; stroke-linejoin: miter">
            <path d="M719.57886,1206.9678L719.57837,1206.9708Q720.4158,1206.5005,720.89746,1206.3285Q721.0903,1206.2567,721.28534,1206.2068L721.4828,1206.1622L721.6822,1206.1305L721.88446,1206.1133Q722.1363,1206.1024,722.40784,1206.1342L722.58966,1206.1597Q722.7723,1206.1906,722.95715,1206.2354Q723.32477,1206.3049,724.4647,1206.7302L719.57886,1206.9678 Z"/>
        </g>
        <g style="fill:rgb(255,255,255); fill-opacity:1.0; stroke-linejoin: miter">
            <path d="M707.3892,1210.3107L707.13416,1210.1953Q705.7279,1209.5375,704.8698,1209.4237Q704.62445,1209.3883,704.38324,1209.3914L704.0713,1209.4099L703.8291,1209.4487Q703.5878,1209.4961,703.3509,1209.5754Q703.2303,1209.6005,702.64526,1209.8674Q702.29474,1210.0303,701.4886,1210.5049Q702.55194,1211.2153,703.1477,1211.4607Q703.6238,1211.6691,704.1052,1211.7197L704.39795,1211.7303L704.6439,1211.709L704.8911,1211.6619Q705.3859,1211.5383,705.8855,1211.2676Q706.63574,1210.8505,707.3892,1210.3107 Z"/>
        </g>
        <g style="fill:rgb(0,0,0); fill-opacity:1.0; stroke-linejoin: miter">
            <path d="M705.1829,1209.4314L705.236,1209.4967Q705.5993,1209.9146,705.67395,1210.3092Q705.7534,1210.6534,705.5634,1211.547Q704.862,1211.7183,704.3893,1211.7303Q703.98004,1211.7484,703.0892,1211.6134Q702.7219,1210.9849,702.70215,1210.654Q702.6529,1210.3262,702.88245,1209.6366Q703.8365,1209.3802,704.2104,1209.3555Q704.58704,1209.3104,705.1829,1209.4314 Z"/>
        </g>
        <g style="fill:rgb(0,0,0); fill-opacity:1.0; stroke-linejoin: miter">
            <path d="M706.8911,1207.6278L706.8911,1207.6313Q706.03314,1207.1995,705.544,1207.0499Q705.3487,1206.9879,705.1504,1206.9457L704.95123,1206.9109L704.75116,1206.8878L704.5476,1206.8817Q704.2955,1206.8817,704.02545,1206.925L703.8457,1206.9604Q703.6645,1206.9993,703.48193,1207.0513Q703.11835,1207.1394,701.99896,1207.6165L706.8911,1207.6278 Z"/>
        </g>
        <g style="fill:rgb(244,173,141); fill-opacity:1.0; stroke-linejoin: miter">
            <path d="M706.9665,1229.4888L707.34204,1229.3457Q710.20026,1228.2493,711.2283,1228.2006Q711.83057,1228.1188,712.65393,1228.2605Q713.2404,1228.37,714.1135,1228.6868Q715.1263,1228.0944,715.71643,1227.869Q716.53613,1227.5719,716.97595,1227.6647Q717.5401,1227.7528,718.0225,1228.1152Q718.5965,1228.5282,719.46545,1229.5135Q717.646,1230.3868,717.1965,1230.5342Q714.97015,1231.4229,712.9608,1231.2019Q711.7606,1231.0685,710.482,1230.6931Q708.3601,1230.0377,706.9665,1229.4888 Z"/>
        </g>
        <g style="fill:rgb(244,173,141); fill-opacity:1.0; stroke-linejoin: miter">
            <path d="M709.4654,1218.6969L711.4164,1220.5902L713.3671,1222.4825Q714.9339,1220.5055,716.5008,1218.5284Q714.861,1219.6,713.22034,1220.6735L709.4654,1218.6969 Z"/>
        </g>
        <g style="fill:rgb(45,55,62); fill-opacity:1.0; stroke-linejoin: miter">
            <path d="M716.44617,1208.7654L716.44617,1208.7688L716.44617,1208.7654L716.44617,1208.7688 Z"/>
        </g>
        <g style="fill:rgb(45,55,62); fill-opacity:1.0; stroke-linejoin: miter">
            <path d="M707.2569,1237.4006L707.25665,1237.402Q709.3739,1237.1611,710.4122,1237.0826Q711.43146,1237.0098,711.59375,1237.0115Q711.96124,1236.9988,712.2842,1237.0042Q712.6065,1237.0087,712.8839,1237.0305L713.1527,1237.0565Q713.41113,1237.0863,713.63763,1237.1285Q714.21216,1237.2312,714.99896,1237.5114L707.2569,1237.4006 Z"/>
        </g>
        <g style="fill:rgb(0,0,0); fill-opacity:1.0; stroke-linejoin: miter">
            <path d="M733.69995,1208.9573L733.8352,1208.2491Q734.1298,1206.6874,734.1278,1206.329Q734.1684,1205.965,733.9647,1206.1334Q733.67035,1206.3647,731.51263,1211.6335L731.8888,1207.823Q728.30505,1227.7217,725.9622,1230.2075Q724.81396,1231.8439,723.0813,1232.0488Q722.16364,1232.2938,717.50574,1231.4216Q716.38696,1231.308,715.65906,1231.6766Q714.4378,1232.0726,713.4693,1235.3512Q711.89984,1232.1808,709.47943,1231.8397Q707.7415,1231.681,706.61395,1232.0685Q705.7858,1232.194,703.0735,1233.7654L702.31744,1233.9626Q701.3606,1234.0571,700.5766,1233.0012Q699.58545,1231.8456,698.4119,1227.2429Q697.6403,1224.5072,694.5893,1208.4921Q693.9851,1205.8906,693.6882,1207.1978Q693.46515,1208.288,693.3898,1212.5228Q694.089,1217.7031,694.936,1222.6836Q696.9689,1233.7202,699.4197,1238.0818Q704.5286,1247.7083,713.4586,1248.7034Q715.2863,1248.7219,716.19977,1248.4221L717.3959,1248.0054Q718.5546,1247.4941,719.5695,1246.6954Q722.292,1244.7014,725.098,1239.3328Q727.8094,1233.8726,728.8367,1229.863Q729.516,1227.7052,733.69995,1208.9573"/>
        </g>
        <g style="fill:rgb(0,0,0); fill-opacity:1.0; stroke-linejoin: miter">
            <path d="M713.4054,1225.0553L713.4054,1225.0579L705.46826,1226.4622Q704.7357,1231.6445,704.00415,1236.8275Q705.23535,1232.8557,706.4671,1228.8835L713.4054,1225.0553"/>
        </g>
        <g style="fill:rgb(0,0,0); fill-opacity:1.0; stroke-linejoin: miter">
            <path d="M714.1809,1224.9666L714.1809,1224.9694Q718.11145,1225.7559,722.0423,1226.547L722.98193,1237.5706Q721.3913,1232.7517,719.8009,1227.9333L714.1809,1224.9666"/>
        </g>
        <g style="fill:rgb(47,97,121); fill-opacity:1.0; stroke-linejoin: miter">
            <path d="M772.1762,1210.7876L772.1762,1210.7906C772.1762,1243.2965,745.82245,1269.6515,713.313,1269.6515L713.313,1269.6545C680.8035,1269.6515,654.4498,1243.2972,654.4497,1210.7878L654.4497,1210.7909C654.4498,1178.2794,680.8038,1151.9259,713.31287,1151.9259L713.31287,1151.9282C745.8213,1151.9257,772.1762,1178.2783,772.1762,1210.7876L772.1762,1210.7906 M675.0602,1210.7876L675.0602,1210.7909C675.0602,1231.9149,692.187,1249.0405,713.313,1249.0405L713.313,1249.0433C734.439,1249.0403,751.5654,1231.9147,751.5654,1210.7876L751.5654,1210.7909C751.5654,1189.6622,734.43915,1172.5365,713.313,1172.5365L713.313,1172.5393C692.18634,1172.5365,675.0603,1189.6617,675.0602,1210.7876 Z"/>
        </g>
        <g style="fill:rgb(47,97,121); fill-opacity:1.0; stroke-linejoin: miter">
            <path d="M653.5686,892.83765L781.8872,892.83844L781.8873,1014.03625L653.5686,1014.037L653.5686,892.83765"/>
        </g>
        <g style="fill:rgb(255,252,252); fill-opacity:1.0; stroke-linejoin: miter">
            <path d="M757.8845,956.60156L756.8478,962.3573Q752.2172,979.5762,738.3679,988.6199Q724.43134,997.6448,707.4202,993.6675Q691.2873,988.99084,682.97845,974.39624Q680.32086,969.6808,678.86786,964.31586L677.7579,958.8424Q676.9702,953.23816,677.6382,947.3196Q680.1686,929.2141,692.8847,918.46857Q705.6007,907.72076,722.70337,909.2354Q739.70013,911.66583,749.6272,925.03174Q759.55414,938.39545,757.8845,956.60156"/>
        </g>
        <g style="fill:rgb(0,0,0); fill-opacity:1.0; stroke-linejoin: miter">
            <path d="M737.0276,963.8598L737.80035,962.3375Q740.2539,957.82825,741.4865,952.7908Q742.1713,948.4445,741.9558,947.42395Q741.8891,945.5364,741.4488,943.48926Q739.98254,938.22363,739.23865,937.10205Q738.2219,934.9363,736.8737,932.8776Q734.15814,928.6903,730.3453,925.7877Q723.6925,920.671,714.94305,923.1326Q706.2826,925.79,701.6432,933.9684Q698.4012,940.367,699.46405,949.5093Q700.13715,956.8885,704.49097,971.7073L737.0276,963.8598"/>
        </g>
        <g style="fill:rgb(255,191,159); fill-opacity:1.0; stroke-linejoin: miter">
            <path d="M729.0536,991.09534L729.0536,991.098L727.8395,983.49634L734.06665,975.56274C734.9411,974.2677,735.52515,973.3105,735.8848,972.7311C737.0677,970.82153,737.9108,968.5478,738.3222,965.86456C738.61163,963.9757,738.6218,961.34296,738.819,957.9854C738.9615,955.5518,739.351,953.23,739.453,950.97296C739.56824,948.4211,739.4633,946.7136,739.3125,945.8408C738.74457,942.54877,737.1847,939.6546,734.55383,937.1716L725.7887,946.86505C724.6606,948.0563,723.8563,948.7615,723.4294,949.0648C722.8455,949.478,722.2122,949.7983,721.4703,949.94727C721.40826,950.07605,720.0779,949.8602,717.4431,949.6446C716.7273,949.5862,716.1683,949.8631,715.7547,950.111C715.0745,950.5167,714.357,951.0873,713.6807,951.8966C710.8658,955.2627,709.49945,956.89325,709.515,956.7296C708.495,957.6658,707.49414,958.3002,706.5125,958.6325C705.5309,958.96375,704.556,959.1958,703.5876,959.32605C703.6876,954.60297,703.4717,951.4902,702.82605,950.03937C701.95776,948.087,700.6888,947.8872,699.3226,949.5485C697.8473,951.342,697.6221,954.9933,698.5505,960.32715C699.45105,965.50616,701.18005,966.671,703.63666,963.84314C704.28613,968.48615,704.5895,973.0314,704.5972,977.48254C704.6021,980.3992,704.2484,985.4148,703.64026,987.5217C701.4258,995.1996,705.5819,990.5746,708.9425,995.46606L721.376,1005.24365L729.0536,991.09534L729.0536,991.098 Z"/>
        </g>
        <g style="fill:rgb(255,255,255); fill-opacity:1.0; stroke-linejoin: miter">
            <path d="M722.1116,956.51245L721.8898,956.2988Q721.2295,955.6425,720.52936,955.12933Q720.2952,954.96216,720.0515,954.8284L719.80524,954.7043L719.5532,954.60034Q719.22375,954.49176,719.182,954.48895Q718.67035,954.3604,717.8614,954.42633Q717.21295,954.4746,715.85004,954.815Q716.8752,955.6214,717.47577,955.96893Q717.7154,956.1116,717.96216,956.2285L718.2111,956.33923Q718.46185,956.44293,718.7224,956.51434L718.9095,956.56006Q719.09894,956.60156,719.2922,956.62744Q719.6798,956.67725,720.08264,956.67725Q720.6997,956.69135,722.1116,956.51245"/>
        </g>
        <g style="fill:rgb(0,0,0); fill-opacity:1.0; stroke-linejoin: miter">
            <path d="M718.14557,954.3531L718.0898,954.4332Q717.7134,954.95856,717.6276,955.29224Q717.53894,955.59015,717.7058,956.1276Q718.29254,956.4932,718.66425,956.5878Q718.9748,956.6923,719.8939,956.7419Q720.35236,956.45013,720.4621,956.2691Q720.58496,956.09625,720.6169,955.8639Q720.6514,955.7176,720.63116,955.1972Q719.9906,954.7084,719.5674,954.5768Q719.09894,954.4167,718.14557,954.3531"/>
        </g>
        <g style="fill:rgb(0,0,0); fill-opacity:1.0; stroke-linejoin: miter">
            <path d="M723.7026,953.3058L723.4969,953.11255Q722.89105,952.51575,722.1826,952.0219Q721.943,951.8616,721.68066,951.72345L721.41064,951.5912Q721.13403,951.4647,720.82654,951.37085Q720.51825,951.2767,720.17834,951.21405L719.83215,951.15704Q719.47845,951.1072,719.1024,951.0793Q718.1675,951.0056,716.30914,951.0449L723.7026,953.3058"/>
        </g>
        <g style="fill:rgb(255,255,255); fill-opacity:1.0; stroke-linejoin: miter">
            <path d="M731.7892,958.32635L732.07947,958.22546Q732.9544,957.90515,733.805,957.73206Q734.0878,957.6803,734.365,957.65955L734.6405,957.64996L734.91254,957.6605Q735.2578,957.6992,735.2969,957.7156Q735.8158,957.81104,736.52203,958.2104Q737.09015,958.5272,738.1867,959.4043Q736.9175,959.7088,736.2267,959.77374Q735.9499,959.8025,735.6767,959.80566L735.40454,959.8025Q735.1334,959.7909,734.86633,959.7471L734.6771,959.7104Q734.4884,959.6672,734.3018,959.61084Q733.929,959.4935,733.56354,959.324Q732.99713,959.0799,731.7892,958.32635"/>
        </g>
        <g style="fill:rgb(0,0,0); fill-opacity:1.0; stroke-linejoin: miter">
            <path d="M736.2948,958.02466L736.3113,958.1206Q736.43414,958.7552,736.3724,959.0956Q736.328,959.4029,735.9518,959.821Q735.26587,959.9074,734.88916,959.8367Q734.56305,959.8017,733.70734,959.46405Q733.41296,959.0073,733.389,958.7963Q733.35,958.5875,733.41846,958.3634Q733.4483,958.21643,733.684,957.75183Q734.4705,957.57513,734.9097,957.63434Q735.40234,957.68353,736.2948,958.02466"/>
        </g>
        <g style="fill:rgb(0,0,0); fill-opacity:1.0; stroke-linejoin: miter">
            <path d="M731.6859,954.7475L731.95404,954.65753Q732.75305,954.36993,733.60333,954.2182Q733.8888,954.17084,734.1848,954.1549L734.4849,954.14905Q734.7885,954.1521,735.10736,954.19385Q735.42664,954.23773,735.76184,954.3228L736.1002,954.4156Q736.4418,954.519,736.7951,954.65125Q737.67554,954.9757,739.347,955.7885L731.6859,954.7475"/>
        </g>
        <g style="fill:rgb(140,80,53); fill-opacity:0.5529412; stroke-linejoin: miter">
            <path d="M731.06824,968.5157L726.9145,970.1756L723.8566,966.63446L727.3344,968.81287L731.06824,968.5157"/>
        </g>
        <g style="fill:rgb(255,57,0); fill-opacity:0.18431373; stroke-linejoin: miter">
            <path d="M727.8418,983.5553L727.4913,983.83496C725.90356,985.2029,724.3587,986.0206,722.85046,986.24426C720.9803,986.51917,719.2586,986.2234,717.6793,985.4291C716.24164,984.70593,714.77325,983.59546,713.27484,982.08594C711.4797,980.276,709.0807,977.4509,706.0904,973.5975L725.8326,1000.22205L729.06274,991.1295L727.8418,983.5553 Z"/>
        </g>
        <g style="fill:rgb(154,58,58); fill-opacity:1.0; stroke-linejoin: miter">
            <path d="M701.24384,955.31244L701.24384,955.31305L701.24384,955.31244L701.24384,955.31305"/>
        </g>
        <g style="fill:rgb(158,226,255); fill-opacity:0.99607843; stroke-linejoin: miter">
            <path d="M724.25586,984.9772L724.25586,984.98L724.25586,984.9772L724.25586,984.98"/>
        </g>
        <g style="fill:rgb(158,226,255); fill-opacity:0.99607843; stroke-linejoin: miter">
            <path d="M724.71295,970.42035L724.71295,970.42084L724.71295,970.42035L724.71295,970.42084"/>
        </g>
        <g style="fill:rgb(255,0,0); fill-opacity:0.99607843; stroke-linejoin: miter">
            <path d="M719.8524,971.985L719.19745,972.0368Q720.48224,972.7518,721.77966,973.36127Q722.86505,973.8344,723.0864,973.89484Q723.5251,974.04944,723.9684,974.1667Q724.9843,974.42615,725.9788,974.474Q726.3491,974.50183,727.06024,974.4939Q727.37384,974.4889,727.6888,974.474Q727.846,974.4712,728.6353,974.41284Q729.2678,974.3606,729.90173,974.3003L727.0186,972.9177L719.8524,971.985"/>
        </g>
        <g style="fill:rgb(255,0,0); fill-opacity:0.99607843; stroke-linejoin: miter">
            <path d="M721.3624,974.70276L721.3624,974.70557L721.3624,974.70276L721.3624,974.70557"/>
        </g>
        <g style="fill:rgb(236,122,94); fill-opacity:0.99607843; stroke-linejoin: miter">
            <path d="M712.9491,945.6266L712.9491,945.62946L712.9491,945.6266L712.9491,945.62946"/>
        </g>
        <g style="fill:rgb(255,255,255); fill-opacity:0.99607843; stroke-linejoin: miter">
            <path d="M729.3681,973.86414L721.1588,972.23566L719.1259,972.1036L721.9678,974.8816L726.5811,976.43176L730.01276,974.1966L729.3681,973.86414"/>
        </g>
        <g style="fill:rgb(255,88,171); fill-opacity:1.0; stroke-linejoin: miter">
            <path d="M730.04474,974.34265L730.04474,974.34314Q728.3723,972.6901,727.5059,972.28485Q727.0823,972.07764,726.61237,972.0091Q726.13116,971.94293,725.4641,971.9816Q724.7332,971.602,724.0905,971.4542Q723.3541,971.27814,722.2714,971.4188Q721.212,971.5523,719.22595,972.03296L724.95526,973.78687L730.04474,974.34265"/>
        </g>
        <g style="fill:rgb(255,88,171); fill-opacity:1.0; stroke-linejoin: miter">
            <path d="M729.8438,974.38L729.6321,974.6124Q728.0433,976.427,726.72327,977.0591Q725.3809,977.69446,723.71014,977.32544Q722.06726,976.9404,721.0229,975.7134Q720.20703,974.86926,719.2207,972.01965Q721.0844,973.50946,722.1459,974.1202Q722.5694,974.3706,722.99963,974.56995L723.4323,974.75195Q723.86615,974.92065,724.30853,975.0198Q724.7516,975.11755,725.20264,975.1461L725.65576,975.15845Q726.11066,975.1571,726.5719,975.1041Q727.7235,974.98413,729.8438,974.38"/>
        </g>
        <g style="fill:rgb(0,0,0); fill-opacity:0.99607843; stroke-linejoin: miter">
            <path d="M700.63763,926.2161L700.61194,927.5441Q700.89777,931.5919,703.75665,934.2526Q706.6368,936.9125,710.8598,936.82184Q714.90814,936.53687,717.56805,933.67816Q718.4209,932.75354,719.01886,931.6275L719.5402,930.4625Q719.9921,929.2515,720.11273,927.9033Q720.3665,923.7562,717.85706,920.7708Q715.34784,917.7849,711.2191,917.32275Q707.07227,917.0683,704.08673,919.5775Q701.1009,922.0871,700.63763,926.2161"/>
        </g>
        <g style="fill:rgb(0,0,0); fill-opacity:1.0; stroke-linejoin: miter">
            <path d="M688.0624,934.2657L688.06226,934.26886L688.0624,934.2657L688.06226,934.26886L688.0624,934.2657 Z"/>
        </g>
        <g style="fill:rgb(0,0,0); fill-opacity:1.0; stroke-linejoin: miter">
            <path d="M688.0624,934.2657L688.06226,934.26886L688.0624,934.2657L688.06226,934.26886L688.0624,934.2657 Z"/>
        </g>
        <g style="fill:rgb(244,67,54); fill-opacity:1.0; stroke-linejoin: miter">
            <path d="M719.575,994.1835L719.5749,994.1863L719.5749,994.1843L719.575,994.1835"/>
        </g>
        <g style="fill:rgb(47,97,121); fill-opacity:1.0; stroke-linejoin: miter">
            <path d="M775.7876,951.9888L775.7876,951.99194C775.7877,984.4979,749.43427,1010.8528,716.92456,1010.8528L716.92456,1010.85583C684.41547,1010.8528,658.06165,984.4979,658.0615,951.98865L658.0615,951.9918C658.06165,919.4795,684.4156,893.12646,716.92456,893.12646L716.92456,893.12933C749.433,893.1266,775.7876,919.4788,775.7876,951.9888L775.7876,951.99194 M678.6725,951.9886L678.6725,951.99176C678.67267,973.116,695.7988,990.2416,716.9247,990.2417L716.9247,990.2446C738.05066,990.2416,755.17725,973.11554,755.1771,951.9888L755.1771,951.99194C755.1771,930.8633,738.0511,913.7365,716.9247,913.7365L716.9247,913.73956C695.7984,913.7365,678.6725,930.86304,678.6725,951.9886 Z"/>
        </g>
        <g style="fill:rgb(47,97,121); fill-opacity:1.0; stroke-linejoin: miter">
            <path d="M653.0729,1020.73425L717.2324,1020.7345L781.39215,1020.7379Q781.39215,1081.3337,781.39215,1141.9321Q717.2324,1141.9333,653.0729,1141.9333Q653.0729,1081.3335,653.0729,1020.73425"/>
        </g>
        <g style="fill:rgb(165,179,188); fill-opacity:1.0; stroke-linejoin: miter">
            <path d="M744.6205,1142.1008L744.6205,1142.1031L744.6205,1142.1011L744.6205,1142.1008L744.6205,1142.1031L744.6205,1142.1008L744.6205,1142.1011Q744.6205,1142.1008,744.6205,1142.1008"/>
        </g>
        <g style="fill:rgb(255,252,252); fill-opacity:1.0; stroke-linejoin: miter">
            <path d="M757.1898,1086.9666L756.1072,1092.8385Q751.20636,1110.4031,736.2281,1119.5392Q721.15533,1128.6564,702.64435,1124.4628Q685.0813,1119.5612,675.9442,1104.5841Q673.02106,1099.7456,671.4022,1094.2527L670.1544,1088.652Q669.2565,1082.9167,669.9376,1076.8735Q672.5498,1058.3926,686.2835,1047.5048Q700.0172,1036.6178,718.60986,1038.2948Q737.09436,1040.907,747.9803,1054.6411Q758.8662,1068.3743,757.1898,1086.9666"/>
        </g>
        <g style="fill:rgb(165,179,188); fill-opacity:1.0; stroke-linejoin: miter">
            <path d="M701.6029,1108.7457L701.77325,1110.5917L701.77246,1110.5948L701.7685,1110.5912L701.77057,1110.594L701.76825,1110.5917L701.7666,1110.5948Q701.76764,1110.5912,701.76825,1110.5912L701.7684,1110.5917L701.76825,1110.5912L701.7727,1110.5917L701.6029,1108.7457 Z"/>
        </g>
        <g style="fill:rgb(0,0,0); fill-opacity:1.0; stroke-linejoin: miter">
            <path d="M698.3777,1095.635L697.51746,1093.9812C694.9212,1089.0133,693.21686,1085.2117,692.51086,1082.5425C691.5315,1078.8414,691.3563,1076.2534,691.58435,1074.7504C692.04803,1071.704,692.87006,1068.9299,694.38806,1066.4967C696.43823,1063.2097,698.6455,1061.0322,700.94055,1059.8844C702.89545,1058.9069,705.3556,1058.3613,708.3485,1058.3066C711.8391,1056.1302,714.19855,1055.0449,715.36096,1054.7416C717.12836,1054.2794,718.9027,1054.2628,720.814,1054.872C722.8687,1055.5266,725.6958,1057.5453,729.2291,1061.083C733.0961,1064.9581,735.7964,1068.47,737.3821,1071.5804C738.2505,1073.2843,738.7813,1074.9741,738.9523,1076.6599L738.9828,1077.9116C738.949,1078.7401,738.8261,1079.564,738.6135,1080.3792C737.8695,1083.2346,736.7696,1090.3333,733.45123,1094.6517L735.0978,1095.4222L698.3777,1095.635 Z"/>
        </g>
        <g style="fill:rgb(255,194,157); fill-opacity:1.0; stroke-linejoin: miter">
            <path d="M703.6901,1124.9495L702.5748,1124.9767L703.689,1110.9492C701.5729,1108.1079,699.729,1104.9141,698.17596,1101.4838C697.3565,1099.6738,696.64886,1095.8125,696.82,1091.3705C697.0914,1084.3335,698.287,1079.1075,699.3698,1075.664C700.11774,1073.2886,700.75745,1072.0146,700.9641,1071.6714C701.8712,1070.1637,702.8828,1068.9194,703.9832,1067.8354C705.11646,1066.7195,707.69226,1065.149,711.91284,1063.3177C718.31525,1070.3364,724.1228,1075.2058,729.33417,1077.923L731.9081,1086.1775L733.4454,1092.6061L734.4939,1086.8107C735.2679,1088.0555,735.7724,1089.237,735.9974,1090.3569C736.3993,1092.3585,736.1357,1094.9823,735.16003,1098.207C734.5786,1100.1301,733.6451,1100.9718,732.4141,1100.7509C732.4945,1103.1129,731.2415,1106.6902,729.5147,1109.7532L730.2985,1119.2324L729.1995,1126.9084C725.2603,1129.7402,721.35455,1130.7517,717.439,1130.2382C713.9695,1129.7836,710.90393,1129.21,708.3022,1128.1594C706.2767,1127.3405,704.7486,1126.2483,703.6901,1124.9495 Z"/>
        </g>
        <g style="fill:rgb(255,0,0); fill-opacity:0.11764706; stroke-linejoin: miter">
            <path d="M711.5898,1096.0254L715.30444,1098.8984L718.6418,1095.1216L715.2064,1097.09L711.5898,1096.0254"/>
        </g>
        <g style="fill:rgb(255,0,0); fill-opacity:0.08235294; stroke-linejoin: miter">
            <path d="M702.50116,1109.0032L703.1716,1109.6028Q706.44464,1112.7327,709.7538,1114.2142Q713.1169,1115.657,717.36505,1115.4001Q721.49896,1115.0854,724.05566,1113.5852Q726.424,1112.2426,728.9229,1108.3253L717.7493,1124.6766L702.50116,1109.0032"/>
        </g>
        <g style="fill:rgb(0,0,0); fill-opacity:1.0; stroke-linejoin: miter">
            <path d="M704.24023,1085.9231L704.421,1085.9703Q705.23395,1086.1819,705.68134,1086.2765Q705.9728,1086.3445,706.5267,1086.4304Q707.38885,1086.5508,707.9615,1086.5039Q708.2584,1086.484,708.54987,1086.4338L708.83966,1086.3763Q709.1276,1086.313,709.4123,1086.2252Q710.1233,1086.0144,711.3698,1085.4612L704.24023,1085.9231"/>
        </g>
        <g style="fill:rgb(0,0,0); fill-opacity:1.0; stroke-linejoin: miter">
            <path d="M719.82104,1085.208L720.00195,1085.2545Q720.91876,1085.4916,721.33014,1085.5763Q721.6155,1085.6385,722.1076,1085.7156Q722.21234,1085.7341,722.65027,1085.7764Q722.8204,1085.7909,722.9762,1085.7965Q723.25525,1085.8113,723.6086,1085.783Q723.98755,1085.7546,724.42035,1085.6613Q724.8169,1085.5706,725.15784,1085.4594Q725.84283,1085.2368,726.95087,1084.7451L719.82104,1085.208"/>
        </g>
        <g style="fill:rgb(0,0,0); fill-opacity:1.0; stroke-linejoin: miter">
            <path d="M704.3969,1079.4237L704.3969,1079.4268Q705.9466,1079.6915,706.758,1079.7809Q707.0843,1079.819,707.398,1079.8422L707.70886,1079.8599L708.0118,1079.8696L708.3073,1079.8713L708.5944,1079.8619L708.87335,1079.8428L709.1454,1079.8154Q709.4133,1079.7843,709.6699,1079.7378Q710.3147,1079.6268,711.38574,1079.321L704.3969,1079.4237"/>
        </g>
        <g style="fill:rgb(0,0,0); fill-opacity:1.0; stroke-linejoin: miter">
            <path d="M719.22986,1078.1016L719.22986,1078.1046Q719.9189,1078.221,720.4621,1078.3046Q720.91034,1078.3774,721.5915,1078.4591Q722.1154,1078.5183,722.5421,1078.5387L722.8455,1078.5487L723.1409,1078.55L723.42786,1078.5402L723.7068,1078.5206Q724.0895,1078.4884,724.5038,1078.4148Q725.34125,1078.2572,726.21936,1077.999L719.22986,1078.1016"/>
        </g>
        <g style="fill:rgb(255,0,0); fill-opacity:0.11764706; stroke-linejoin: miter">
            <path d="M709.5278,1103.4497L709.819,1103.3726Q712.4701,1102.6793,713.172,1102.6473Q714.1086,1102.5406,715.42755,1102.5944Q716.50946,1102.4897,717.05316,1102.4832Q718.1647,1102.4667,719.3404,1102.588Q720.77716,1102.7292,723.7044,1103.1531Q719.6702,1103.7157,718.4816,1103.8257Q717.4025,1103.9331,716.65314,1103.9918Q715.8415,1104.0431,715.214,1104.0566Q714.4503,1104.0667,714.2986,1104.0579Q713.9936,1104.0508,713.6889,1104.0352Q713.07947,1104.0046,712.47186,1103.9385Q711.91974,1103.877,711.27704,1103.7728Q710.1207,1103.5779,709.5278,1103.4497"/>
        </g>
        <g style="fill:rgb(47,97,121); fill-opacity:1.0; stroke-linejoin: miter">
            <path d="M773.4112,1083.2384L773.4112,1083.2413C773.4113,1115.747,747.0575,1142.1011,714.5479,1142.1013L714.5479,1142.1044C682.0388,1142.1013,655.685,1115.7484,655.685,1083.2384L655.685,1083.2413C655.685,1050.729,682.03894,1024.376,714.5479,1024.376L714.5479,1024.379C747.0566,1024.376,773.4113,1050.7288,773.4112,1083.2384L773.4112,1083.2413 M676.2955,1083.2384L676.2955,1083.2413C676.2955,1104.3661,693.4223,1121.491,714.5479,1121.491L714.5479,1121.494C735.674,1121.491,752.8005,1104.3651,752.80035,1083.2384L752.80035,1083.2413C752.8005,1062.1129,735.67413,1044.9869,714.5479,1044.9869L714.5479,1044.9895C693.42163,1044.9869,676.2955,1062.1129,676.2955,1083.2384 Z"/>
        </g>
        <g style="fill:rgb(255,57,0); fill-opacity:1.0; stroke-linejoin: miter">
            <path d="M732.3678,1095.3464L732.3678,1095.3464L732.3678,1095.3467L732.3678,1095.3464L732.3678,1095.3464L732.3678,1095.3464L732.3678,1095.3467Q732.3678,1095.3464,732.3678,1095.3464"/>
        </g>
        <g style="fill:rgb(45,96,119); fill-opacity:1.0; stroke-linejoin: miter">
            <path d="M190.86476,833.6858L190.86476,833.6858L819.93713,833.6865C822.5575,833.6865,824.68164,835.8106,824.68164,838.4309L824.68164,838.4309L824.68176,1293.5731C824.68176,1296.1935,822.5575,1298.3177,819.93726,1298.3177L819.93726,1298.3177L190.8647,1298.3182C189.60637,1298.3182,188.39961,1297.8185,187.50986,1296.9287C186.62006,1296.039,186.1202,1294.832,186.1202,1293.5739L186.1202,1293.5739L186.12027,838.43024C186.12027,837.1719,186.62013,835.9651,187.5099,835.0753C188.39967,834.18555,189.60643,833.6858,190.86476,833.6858L190.86476,833.6858 M190.86476,843.17474L195.60928,838.43024L195.60924,1293.5739L190.86473,1288.8295L819.93726,1288.8287L815.19275,1293.5731L815.1926,838.4309L819.93713,843.1756L190.86476,843.17474 Z"/>
        </g>
        <g style="fill:rgb(45,96,119); fill-opacity:1.0; stroke-linejoin: miter">
            <path d="M839.8794,832.5103L974.9935,832.5112L974.9935,1295.1118L839.8794,1295.1128L839.8794,832.5103"/>
        </g>
    </g>
</svg>